SplineFontDB: 3.0
FontName: FiraMath-ExtraLight
FullName: Fira Math ExtraLight
FamilyName: Fira Math
Weight: ExtraLight
Copyright: 
Version: 
ItalicAngle: 0
UnderlinePosition: -100
UnderlineWidth: 50
Ascent: 800
Descent: 200
InvalidEm: 0
LayerCount: 2
Layer: 0 0 "Back" 1
Layer: 1 0 "Fore" 0
XUID: [1021 620 891379711 6794]
OS2Version: 0
OS2_WeightWidthSlopeOnly: 0
OS2_UseTypoMetrics: 1
CreationTime: 1542519065
OS2TypoAscent: 0
OS2TypoAOffset: 1
OS2TypoDescent: 0
OS2TypoDOffset: 1
OS2TypoLinegap: 0
OS2WinAscent: 0
OS2WinAOffset: 1
OS2WinDescent: 0
OS2WinDOffset: 1
HheadAscent: 0
HheadAOffset: 1
HheadDescent: 0
HheadDOffset: 1
OS2Vendor: 'PfEd'
DEI: 91125
Encoding: UnicodeFull
Compacted: 1
UnicodeInterp: none
NameList: AGL For New Fonts
AntiAlias: 1
BeginChars: 1114138 1002

StartChar: uni0021
Encoding: 33 33 1
Width: 240
Flags: W
LayerCount: 2
Fore
SplineSet
143 684 m 1
 141 214 l 1
 98 214 l 1
 95 684 l 1
 143 684 l 1
120 69 m 0
 144 69 160 51 160 29 c 0
 160 7 144 -11 120 -11 c 0
 97 -11 80 7 80 29 c 0
 80 51 97 69 120 69 c 0
EndSplineSet
EndChar

StartChar: uni0022
Encoding: 34 34 2
Width: 349
Flags: W
LayerCount: 2
Fore
SplineSet
82 436 m 1
 75 684 l 1
 124 684 l 1
 117 436 l 1
 82 436 l 1
232 436 m 1
 225 684 l 1
 274 684 l 1
 268 436 l 1
 232 436 l 1
EndSplineSet
EndChar

StartChar: uni0023
Encoding: 35 35 3
Width: 498
Flags: W
LayerCount: 2
Fore
SplineSet
483 454 m 1
 404 454 l 1
 374 224 l 1
 446 224 l 1
 446 186 l 1
 369 186 l 1
 344 0 l 1
 301 0 l 1
 326 186 l 1
 133 186 l 1
 108 0 l 1
 65 0 l 1
 90 186 l 1
 15 186 l 1
 15 224 l 1
 95 224 l 1
 125 454 l 1
 52 454 l 1
 52 493 l 1
 130 493 l 1
 153 664 l 1
 196 664 l 1
 173 493 l 1
 366 493 l 1
 389 664 l 1
 432 664 l 1
 409 493 l 1
 483 493 l 1
 483 454 l 1
331 224 m 1
 361 454 l 1
 168 454 l 1
 138 224 l 1
 331 224 l 1
EndSplineSet
EndChar

StartChar: uni0024
Encoding: 36 36 4
Width: 524
Flags: W
LayerCount: 2
Fore
SplineSet
465 180 m 0
 465 76 393 2 282 -9 c 1
 282 -149 l 1
 241 -149 l 1
 241 -11 l 1
 157 -9 95 23 44 71 c 1
 72 101 l 1
 117 59 171 30 250 30 c 0
 349 30 418 86 418 179 c 0
 418 264 376 298 256 335 c 0
 122 377 70 422 70 513 c 0
 70 600 138 666 241 672 c 1
 241 817 l 1
 282 817 l 1
 282 672 l 1
 353 668 399 642 445 601 c 1
 416 571 l 1
 369 615 323 633 259 633 c 0
 174 633 117 586 117 514 c 0
 117 442 156 411 274 375 c 0
 399 336 465 293 465 180 c 0
EndSplineSet
EndChar

StartChar: uni0025
Encoding: 37 37 5
Width: 781
Flags: W
LayerCount: 2
Fore
SplineSet
609 701 m 1
 644 678 l 1
 181 -21 l 1
 146 1 l 1
 609 701 l 1
201 675 m 0
 287 675 346 613 346 516 c 0
 346 418 290 354 201 354 c 0
 115 354 56 416 56 514 c 0
 56 612 113 675 201 675 c 0
201 640 m 0
 128 640 100 582 100 514 c 0
 100 448 128 390 201 390 c 0
 274 390 302 448 302 516 c 0
 302 581 274 640 201 640 c 0
580 310 m 0
 666 310 725 248 725 151 c 0
 725 53 669 -11 580 -11 c 0
 495 -11 435 52 435 149 c 0
 435 247 492 310 580 310 c 0
580 275 m 0
 508 275 479 217 479 149 c 0
 479 83 508 25 580 25 c 0
 654 25 681 83 681 151 c 0
 681 216 654 275 580 275 c 0
EndSplineSet
EndChar

StartChar: uni0026
Encoding: 38 38 6
Width: 719
Flags: W
LayerCount: 2
Fore
SplineSet
301 694 m 0
 395 694 461 634 461 548 c 0
 461 468 405 419 304 363 c 1
 519 162 l 1
 548 222 570 283 587 360 c 1
 630 347 l 1
 610 263 583 195 547 134 c 1
 676 16 l 1
 640 -11 l 1
 523 98 l 1
 472 34 406 -11 298 -11 c 0
 183 -11 94 61 94 170 c 0
 94 261 149 317 239 369 c 1
 172 432 137 473 137 543 c 0
 137 629 202 694 301 694 c 0
301 657 m 0
 228 657 183 606 183 544 c 0
 183 494 197 464 276 390 c 1
 370 440 415 484 415 546 c 0
 415 618 365 657 301 657 c 0
267 343 m 1
 186 295 141 244 141 171 c 0
 141 87 209 29 301 29 c 0
 391 29 447 66 494 126 c 1
 267 343 l 1
EndSplineSet
EndChar

StartChar: uni0027
Encoding: 39 39 7
Width: 199
Flags: W
LayerCount: 2
Fore
SplineSet
82 436 m 1
 75 684 l 1
 124 684 l 1
 117 436 l 1
 82 436 l 1
EndSplineSet
EndChar

StartChar: uni0028
Encoding: 40 40 8
Width: 324
Flags: W
LayerCount: 2
Fore
SplineSet
236 835 m 1
 265 815 l 1
 176 684 106 569 106 350 c 0
 106 132 176 16 265 -115 c 1
 236 -135 l 1
 139 1 59 119 59 350 c 0
 59 581 139 699 236 835 c 1
EndSplineSet
EndChar

StartChar: uni0029
Encoding: 41 41 9
Width: 324
Flags: W
LayerCount: 2
Fore
SplineSet
88 835 m 1
 185 699 265 581 265 350 c 0
 265 119 185 1 88 -135 c 1
 59 -115 l 1
 148 16 218 132 218 350 c 0
 218 569 148 684 59 815 c 1
 88 835 l 1
EndSplineSet
EndChar

StartChar: uni002A
Encoding: 42 42 10
Width: 435
Flags: W
LayerCount: 2
Fore
SplineSet
396 589 m 1
 244 547 l 1
 342 422 l 1
 305 395 l 1
 218 526 l 1
 130 395 l 1
 93 422 l 1
 191 546 l 1
 39 589 l 1
 52 630 l 1
 200 575 l 1
 195 735 l 1
 240 735 l 1
 235 577 l 1
 382 631 l 1
 396 589 l 1
EndSplineSet
EndChar

StartChar: uni002B
Encoding: 43 43 11
Width: 491
Flags: W
LayerCount: 2
Fore
SplineSet
268 504 m 1
 268 351 l 1
 419 351 l 1
 419 310 l 1
 268 310 l 1
 268 157 l 1
 223 157 l 1
 223 310 l 1
 72 310 l 1
 72 351 l 1
 223 351 l 1
 223 504 l 1
 268 504 l 1
EndSplineSet
EndChar

StartChar: uni002C
Encoding: 44 44 12
Width: 195
Flags: W
LayerCount: 2
Fore
SplineSet
97 69 m 0
 122 69 138 51 138 29 c 0
 138 14 131 -3 124 -20 c 2
 72 -146 l 1
 38 -146 l 1
 78 -5 l 1
 65 1 57 14 57 29 c 0
 57 51 74 69 97 69 c 0
EndSplineSet
EndChar

StartChar: uni002D
Encoding: 45 45 13
Width: 400
Flags: W
LayerCount: 2
Fore
SplineSet
71 293 m 1
 71 333 l 1
 329 333 l 1
 329 293 l 1
 71 293 l 1
EndSplineSet
EndChar

StartChar: uni002E
Encoding: 46 46 14
Width: 195
Flags: W
LayerCount: 2
Fore
SplineSet
97 69 m 0
 122 69 138 51 138 29 c 0
 138 7 122 -11 97 -11 c 0
 74 -11 57 7 57 29 c 0
 57 51 74 69 97 69 c 0
EndSplineSet
EndChar

StartChar: uni002F
Encoding: 47 47 15
Width: 520
Flags: W
LayerCount: 2
Fore
SplineSet
356 801 m 1
 396 790 l 1
 164 -98 l 1
 124 -87 l 1
 356 801 l 1
EndSplineSet
EndChar

StartChar: uni0030
Encoding: 48 48 16
Width: 547
Flags: W
LayerCount: 2
Fore
SplineSet
274 675 m 0
 406 675 477 559 477 331 c 0
 477 105 405 -11 274 -11 c 0
 142 -11 70 107 70 333 c 0
 70 559 142 675 274 675 c 0
274 636 m 0
 174 636 118 540 118 333 c 0
 118 125 173 29 274 29 c 0
 374 29 429 124 429 331 c 0
 429 539 375 636 274 636 c 0
EndSplineSet
EndChar

StartChar: uni0031
Encoding: 49 49 17
Width: 406
Flags: W
LayerCount: 2
Fore
SplineSet
281 664 m 1
 281 0 l 1
 235 0 l 1
 235 612 l 1
 68 507 l 1
 46 542 l 1
 242 664 l 1
 281 664 l 1
EndSplineSet
EndChar

StartChar: uni0032
Encoding: 50 50 18
Width: 473
Flags: W
LayerCount: 2
Fore
SplineSet
224 675 m 0
 335 675 401 601 401 503 c 0
 401 368 328 287 99 42 c 1
 419 42 l 1
 412 0 l 1
 44 0 l 1
 44 40 l 1
 295 310 353 380 353 500 c 0
 353 583 302 635 222 635 c 0
 155 635 108 606 69 558 c 1
 36 582 l 1
 88 645 145 675 224 675 c 0
EndSplineSet
EndChar

StartChar: uni0033
Encoding: 51 51 19
Width: 482
Flags: W
LayerCount: 2
Fore
SplineSet
219 675 m 0
 331 675 398 604 398 510 c 0
 398 418 339 365 266 354 c 1
 348 351 416 293 416 186 c 0
 416 71 335 -11 209 -11 c 0
 132 -11 72 18 22 74 c 1
 52 100 l 1
 100 48 148 30 208 30 c 0
 310 30 368 93 368 185 c 0
 368 289 306 332 213 332 c 2
 171 332 l 1
 177 370 l 1
 209 370 l 2
 280 370 351 412 351 508 c 0
 351 587 298 635 217 635 c 0
 160 635 115 617 66 572 c 1
 41 601 l 1
 91 650 146 675 219 675 c 0
EndSplineSet
EndChar

StartChar: uni0034
Encoding: 52 52 20
Width: 513
Flags: W
LayerCount: 2
Fore
SplineSet
476 218 m 1
 476 178 l 1
 385 178 l 1
 385 0 l 1
 340 0 l 1
 340 178 l 1
 47 178 l 1
 47 214 l 1
 251 675 l 1
 290 659 l 1
 96 218 l 1
 340 218 l 1
 345 418 l 1
 385 418 l 1
 385 218 l 1
 476 218 l 1
EndSplineSet
EndChar

StartChar: uni0035
Encoding: 53 53 21
Width: 482
Flags: W
LayerCount: 2
Fore
SplineSet
408 664 m 1
 400 624 l 1
 127 624 l 1
 127 386 l 1
 157 405 194 419 243 419 c 0
 357 419 429 342 429 214 c 0
 429 83 349 -11 221 -11 c 0
 141 -11 84 19 36 68 c 1
 67 96 l 1
 109 52 154 30 222 30 c 0
 319 30 381 102 381 215 c 0
 381 328 320 380 235 380 c 0
 187 380 157 369 119 346 c 1
 82 346 l 1
 82 664 l 1
 408 664 l 1
EndSplineSet
EndChar

StartChar: uni0036
Encoding: 54 54 22
Width: 520
Flags: W
LayerCount: 2
Fore
SplineSet
292 431 m 0
 387 431 466 365 466 223 c 0
 466 77 385 -11 276 -11 c 0
 124 -11 70 126 70 295 c 0
 70 532 160 675 305 675 c 0
 355 675 391 660 424 637 c 1
 403 604 l 1
 372 625 343 636 304 636 c 0
 187 636 122 506 117 328 c 1
 158 389 215 431 292 431 c 0
276 29 m 0
 370 29 419 110 419 222 c 0
 419 340 362 391 287 391 c 0
 214 391 156 345 117 276 c 1
 121 126 164 29 276 29 c 0
EndSplineSet
EndChar

StartChar: uni0037
Encoding: 55 55 23
Width: 434
Flags: W
LayerCount: 2
Fore
SplineSet
397 664 m 1
 397 627 l 1
 131 -7 l 1
 87 8 l 1
 348 624 l 1
 32 624 l 1
 32 664 l 1
 397 664 l 1
EndSplineSet
EndChar

StartChar: uni0038
Encoding: 56 56 24
Width: 533
Flags: W
LayerCount: 2
Fore
SplineSet
327 350 m 1
 429 309 477 261 477 171 c 0
 477 60 390 -11 265 -11 c 0
 137 -11 56 63 56 170 c 0
 56 260 109 323 204 358 c 1
 123 393 86 435 86 511 c 0
 86 616 173 675 267 675 c 0
 360 675 449 620 449 511 c 0
 449 439 410 393 327 350 c 1
132 510 m 0
 132 446 162 413 254 378 c 2
 291 364 l 1
 368 405 402 446 402 509 c 0
 402 592 345 637 267 637 c 0
 191 637 132 592 132 510 c 0
266 30 m 0
 361 30 429 79 429 171 c 0
 429 255 385 289 280 329 c 2
 244 343 l 1
 145 306 104 254 104 170 c 0
 104 79 170 30 266 30 c 0
EndSplineSet
EndChar

StartChar: uni0039
Encoding: 57 57 25
Width: 515
Flags: W
LayerCount: 2
Fore
SplineSet
254 675 m 0
 390 675 451 572 451 404 c 0
 451 146 335 48 124 -18 c 1
 112 18 l 1
 288 73 393 160 404 348 c 1
 363 286 306 250 235 250 c 0
 133 250 56 329 56 458 c 0
 56 593 140 675 254 675 c 0
242 290 m 0
 311 290 360 328 404 395 c 1
 404 554 361 636 255 636 c 0
 162 636 104 572 104 457 c 0
 104 350 159 290 242 290 c 0
EndSplineSet
EndChar

StartChar: uni003A
Encoding: 58 58 26
Width: 195
Flags: W
LayerCount: 2
Fore
SplineSet
97 468 m 0
 122 468 138 450 138 427 c 0
 138 406 122 388 97 388 c 0
 74 388 57 406 57 427 c 0
 57 450 74 468 97 468 c 0
97 69 m 0
 122 69 138 51 138 29 c 0
 138 7 122 -11 97 -11 c 0
 74 -11 57 7 57 29 c 0
 57 51 74 69 97 69 c 0
EndSplineSet
EndChar

StartChar: uni003B
Encoding: 59 59 27
Width: 195
Flags: W
LayerCount: 2
Fore
SplineSet
97 468 m 0
 122 468 138 450 138 427 c 0
 138 406 122 388 97 388 c 0
 74 388 57 406 57 427 c 0
 57 450 74 468 97 468 c 0
97 69 m 0
 122 69 138 51 138 29 c 0
 138 14 131 -3 124 -20 c 2
 72 -146 l 1
 38 -146 l 1
 78 -5 l 1
 65 1 57 14 57 29 c 0
 57 51 74 69 97 69 c 0
EndSplineSet
EndChar

StartChar: uni003C
Encoding: 60 60 28
Width: 496
Flags: W
LayerCount: 2
Fore
SplineSet
410 521 m 1
 427 482 l 1
 113 333 l 1
 427 181 l 1
 410 142 l 1
 69 313 l 1
 69 353 l 1
 410 521 l 1
EndSplineSet
EndChar

StartChar: uni003D
Encoding: 61 61 29
Width: 491
Flags: W
LayerCount: 2
Fore
SplineSet
72 394 m 1
 72 436 l 1
 419 436 l 1
 419 394 l 1
 72 394 l 1
72 226 m 1
 72 267 l 1
 419 267 l 1
 419 226 l 1
 72 226 l 1
EndSplineSet
EndChar

StartChar: uni003E
Encoding: 62 62 30
Width: 496
Flags: W
LayerCount: 2
Fore
SplineSet
86 521 m 1
 427 353 l 1
 427 313 l 1
 86 142 l 1
 69 181 l 1
 383 333 l 1
 69 482 l 1
 86 521 l 1
EndSplineSet
EndChar

StartChar: uni003F
Encoding: 63 63 31
Width: 443
Flags: W
LayerCount: 2
Fore
SplineSet
233 694 m 0
 338 694 399 629 399 552 c 0
 399 401 215 421 215 272 c 2
 215 214 l 1
 170 214 l 1
 170 276 l 2
 170 444 350 423 350 550 c 0
 350 613 304 654 231 654 c 0
 167 654 124 630 77 579 c 1
 45 604 l 1
 98 665 155 694 233 694 c 0
195 69 m 0
 220 69 236 51 236 29 c 0
 236 7 220 -11 195 -11 c 0
 172 -11 155 7 155 29 c 0
 155 51 172 69 195 69 c 0
EndSplineSet
EndChar

StartChar: uni0040
Encoding: 64 64 32
Width: 1020
Flags: W
LayerCount: 2
Fore
SplineSet
526 694 m 0
 793 694 930 513 930 308 c 0
 930 97 847 13 754 13 c 0
 688 13 647 61 635 124 c 1
 605 57 557 15 485 15 c 0
 393 15 319 91 319 232 c 0
 319 403 410 482 525 482 c 0
 576 482 624 467 666 446 c 1
 666 189 l 2
 666 94 700 51 754 51 c 0
 821 51 883 110 883 306 c 0
 883 500 757 654 526 654 c 0
 292 654 137 473 137 239 c 0
 137 -6 292 -162 525 -162 c 0
 601 -162 658 -149 713 -129 c 1
 725 -167 l 1
 667 -187 613 -203 524 -203 c 0
 272 -203 90 -36 90 239 c 0
 90 494 265 694 526 694 c 0
490 54 m 0
 558 54 604 110 622 166 c 1
 622 421 l 1
 592 436 563 444 526 444 c 0
 426 444 365 367 365 232 c 0
 365 113 416 54 490 54 c 0
EndSplineSet
EndChar

StartChar: uni0041
Encoding: 65 65 33
Width: 562
Flags: W
LayerCount: 2
Fore
SplineSet
491 0 m 1
 429 192 l 1
 131 192 l 1
 68 0 l 1
 20 0 l 1
 251 684 l 1
 311 684 l 1
 542 0 l 1
 491 0 l 1
145 234 m 1
 415 234 l 1
 281 645 l 1
 145 234 l 1
EndSplineSet
EndChar

StartChar: uni0042
Encoding: 66 66 34
Width: 594
Flags: W
LayerCount: 2
Fore
SplineSet
380 363 m 1
 464 355 538 306 538 188 c 0
 538 63 448 0 300 0 c 2
 115 0 l 1
 115 684 l 1
 264 684 l 2
 416 684 505 628 505 514 c 0
 505 424 453 376 380 363 c 1
269 643 m 2
 162 643 l 1
 162 380 l 1
 312 380 l 2
 398 380 456 428 456 511 c 0
 456 605 388 643 269 643 c 2
301 41 m 2
 416 41 488 85 488 188 c 0
 488 294 415 340 318 340 c 2
 162 340 l 1
 162 41 l 1
 301 41 l 2
EndSplineSet
EndChar

StartChar: uni0043
Encoding: 67 67 35
Width: 547
Flags: W
LayerCount: 2
Fore
SplineSet
344 694 m 0
 422 694 468 671 515 633 c 1
 489 601 l 1
 443 637 405 653 347 653 c 0
 222 653 120 564 120 342 c 0
 120 131 219 32 344 32 c 0
 416 32 456 57 497 90 c 1
 523 58 l 1
 480 19 424 -11 342 -11 c 0
 186 -11 70 112 70 342 c 0
 70 577 193 694 344 694 c 0
EndSplineSet
EndChar

StartChar: uni0044
Encoding: 68 68 36
Width: 628
Flags: W
LayerCount: 2
Fore
SplineSet
248 684 m 2
 401 684 558 629 558 348 c 0
 558 63 393 0 255 0 c 2
 115 0 l 1
 115 684 l 1
 248 684 l 2
251 643 m 2
 162 643 l 1
 162 41 l 1
 258 41 l 2
 380 41 508 96 508 348 c 0
 508 605 375 643 251 643 c 2
EndSplineSet
EndChar

StartChar: uni0045
Encoding: 69 69 37
Width: 504
Flags: W
LayerCount: 2
Fore
SplineSet
454 684 m 1
 448 643 l 1
 162 643 l 1
 162 377 l 1
 409 377 l 1
 409 336 l 1
 162 336 l 1
 162 41 l 1
 460 41 l 1
 460 0 l 1
 115 0 l 1
 115 684 l 1
 454 684 l 1
EndSplineSet
EndChar

StartChar: uni0046
Encoding: 70 70 38
Width: 477
Flags: W
LayerCount: 2
Fore
SplineSet
115 0 m 1
 115 684 l 1
 448 684 l 1
 442 643 l 1
 162 643 l 1
 162 364 l 1
 404 364 l 1
 404 324 l 1
 162 324 l 1
 162 0 l 1
 115 0 l 1
EndSplineSet
EndChar

StartChar: uni0047
Encoding: 71 71 39
Width: 614
Flags: W
LayerCount: 2
Fore
SplineSet
351 694 m 0
 428 694 478 673 533 629 c 1
 504 598 l 1
 456 636 412 653 351 653 c 0
 238 653 120 568 120 345 c 0
 120 131 211 31 351 31 c 0
 410 31 455 44 499 68 c 1
 499 324 l 1
 361 324 l 1
 355 365 l 1
 546 365 l 1
 546 44 l 1
 487 9 420 -11 351 -11 c 0
 183 -11 70 108 70 345 c 0
 70 582 209 694 351 694 c 0
EndSplineSet
EndChar

StartChar: uni0048
Encoding: 72 72 40
Width: 667
Flags: W
LayerCount: 2
Fore
SplineSet
504 0 m 1
 504 339 l 1
 162 339 l 1
 162 0 l 1
 115 0 l 1
 115 684 l 1
 162 684 l 1
 162 381 l 1
 504 381 l 1
 504 684 l 1
 552 684 l 1
 552 0 l 1
 504 0 l 1
EndSplineSet
EndChar

StartChar: uni0049
Encoding: 73 73 41
Width: 277
Flags: W
LayerCount: 2
Fore
SplineSet
162 684 m 1
 162 0 l 1
 115 0 l 1
 115 684 l 1
 162 684 l 1
EndSplineSet
EndChar

StartChar: uni004A
Encoding: 74 74 42
Width: 286
Flags: W
LayerCount: 2
Fore
SplineSet
177 684 m 1
 177 90 l 2
 177 -24 141 -66 29 -113 c 1
 16 -78 l 1
 107 -36 129 0 129 93 c 2
 129 684 l 1
 177 684 l 1
EndSplineSet
EndChar

StartChar: uni004B
Encoding: 75 75 43
Width: 533
Flags: W
LayerCount: 2
Fore
SplineSet
162 684 m 1
 162 0 l 1
 115 0 l 1
 115 684 l 1
 162 684 l 1
516 684 m 1
 224 369 l 1
 533 0 l 1
 474 0 l 1
 166 367 l 1
 461 684 l 1
 516 684 l 1
EndSplineSet
EndChar

StartChar: uni004C
Encoding: 76 76 44
Width: 470
Flags: W
LayerCount: 2
Fore
SplineSet
162 684 m 1
 162 44 l 1
 450 44 l 1
 443 0 l 1
 115 0 l 1
 115 684 l 1
 162 684 l 1
EndSplineSet
EndChar

StartChar: uni004D
Encoding: 77 77 45
Width: 768
Flags: W
LayerCount: 2
Fore
SplineSet
627 684 m 1
 696 0 l 1
 650 0 l 1
 616 334 l 2
 604 445 592 574 587 638 c 1
 407 82 l 1
 361 82 l 1
 175 638 l 1
 172 574 159 445 149 339 c 2
 117 0 l 1
 72 0 l 1
 139 684 l 1
 206 684 l 1
 385 139 l 1
 559 684 l 1
 627 684 l 1
EndSplineSet
EndChar

StartChar: uni004E
Encoding: 78 78 46
Width: 669
Flags: W
LayerCount: 2
Fore
SplineSet
554 684 m 1
 554 0 l 1
 493 0 l 1
 154 631 l 1
 157 587 160 528 160 407 c 2
 160 0 l 1
 115 0 l 1
 115 684 l 1
 176 684 l 1
 515 53 l 1
 513 86 509 163 509 253 c 2
 509 684 l 1
 554 684 l 1
EndSplineSet
EndChar

StartChar: uni004F
Encoding: 79 79 47
Width: 691
Flags: W
LayerCount: 2
Fore
SplineSet
345 694 m 0
 509 694 621 572 621 341 c 0
 621 117 513 -11 345 -11 c 0
 182 -11 70 113 70 340 c 0
 70 566 183 694 345 694 c 0
345 653 m 0
 211 653 120 551 120 340 c 0
 120 133 212 31 345 31 c 0
 485 31 571 133 571 341 c 0
 571 552 482 653 345 653 c 0
EndSplineSet
EndChar

StartChar: uni0050
Encoding: 80 80 48
Width: 566
Flags: W
LayerCount: 2
Fore
SplineSet
268 684 m 2
 425 684 517 622 517 481 c 0
 517 329 412 272 265 272 c 2
 162 272 l 1
 162 0 l 1
 115 0 l 1
 115 684 l 1
 268 684 l 2
266 312 m 2
 384 312 467 351 467 480 c 0
 467 601 395 643 268 643 c 2
 162 643 l 1
 162 312 l 1
 266 312 l 2
EndSplineSet
EndChar

StartChar: uni0051
Encoding: 81 81 49
Width: 690
Flags: W
LayerCount: 2
Fore
SplineSet
442 18 m 1
 516 17 589 -2 643 -49 c 1
 611 -89 l 1
 538 -25 466 -9 345 -9 c 0
 182 -9 70 113 70 340 c 0
 70 566 183 694 345 694 c 0
 509 694 621 572 621 341 c 0
 621 145 544 51 442 18 c 1
120 340 m 0
 120 133 212 31 345 31 c 0
 485 31 571 133 571 341 c 0
 571 552 482 653 345 653 c 0
 211 653 120 551 120 340 c 0
EndSplineSet
EndChar

StartChar: uni0052
Encoding: 82 82 50
Width: 584
Flags: W
LayerCount: 2
Fore
SplineSet
491 0 m 1
 310 313 l 1
 162 313 l 1
 162 0 l 1
 115 0 l 1
 115 684 l 1
 276 684 l 2
 438 684 513 619 513 501 c 0
 513 397 455 344 359 321 c 1
 548 0 l 1
 491 0 l 1
162 353 m 1
 283 353 l 2
 397 353 463 398 463 501 c 0
 463 594 411 643 273 643 c 2
 162 643 l 1
 162 353 l 1
EndSplineSet
EndChar

StartChar: uni0053
Encoding: 83 83 51
Width: 537
Flags: W
LayerCount: 2
Fore
SplineSet
266 694 m 0
 353 694 405 666 457 620 c 1
 429 589 l 1
 378 634 332 653 267 653 c 0
 178 653 119 604 119 531 c 0
 119 456 160 423 282 386 c 0
 410 347 478 302 478 185 c 0
 478 69 390 -11 258 -11 c 0
 166 -11 99 22 44 74 c 1
 72 105 l 1
 122 60 175 31 257 31 c 0
 358 31 430 88 430 184 c 0
 430 272 387 308 263 346 c 0
 125 388 71 435 71 530 c 0
 71 624 149 694 266 694 c 0
EndSplineSet
EndChar

StartChar: uni0054
Encoding: 84 84 52
Width: 487
Flags: W
LayerCount: 2
Fore
SplineSet
477 684 m 1
 471 641 l 1
 267 641 l 1
 267 0 l 1
 220 0 l 1
 220 641 l 1
 15 641 l 1
 15 684 l 1
 477 684 l 1
EndSplineSet
EndChar

StartChar: uni0055
Encoding: 85 85 53
Width: 648
Flags: W
LayerCount: 2
Fore
SplineSet
543 684 m 1
 543 211 l 2
 543 82 473 -11 324 -11 c 0
 174 -11 105 82 105 211 c 2
 105 684 l 1
 152 684 l 1
 152 215 l 2
 152 103 204 32 324 32 c 0
 445 32 495 105 495 215 c 2
 495 684 l 1
 543 684 l 1
EndSplineSet
EndChar

StartChar: uni0056
Encoding: 86 86 54
Width: 543
Flags: W
LayerCount: 2
Fore
SplineSet
523 684 m 1
 299 0 l 1
 244 0 l 1
 20 684 l 1
 71 684 l 1
 272 48 l 1
 473 684 l 1
 523 684 l 1
EndSplineSet
EndChar

StartChar: uni0057
Encoding: 87 87 55
Width: 804
Flags: W
LayerCount: 2
Fore
SplineSet
771 684 m 1
 617 0 l 1
 559 0 l 1
 402 632 l 1
 244 0 l 1
 187 0 l 1
 32 684 l 1
 81 684 l 1
 218 46 l 1
 375 684 l 1
 429 684 l 1
 588 46 l 1
 725 684 l 1
 771 684 l 1
EndSplineSet
EndChar

StartChar: uni0058
Encoding: 88 88 56
Width: 505
Flags: W
LayerCount: 2
Fore
SplineSet
278 371 m 1
 493 0 l 1
 439 0 l 1
 249 338 l 1
 64 0 l 1
 12 0 l 1
 222 368 l 1
 33 684 l 1
 87 684 l 1
 250 400 l 1
 411 684 l 1
 463 684 l 1
 278 371 l 1
EndSplineSet
EndChar

StartChar: uni0059
Encoding: 89 89 57
Width: 513
Flags: W
LayerCount: 2
Fore
SplineSet
497 684 m 1
 281 269 l 1
 281 0 l 1
 234 0 l 1
 234 268 l 1
 16 684 l 1
 69 684 l 1
 259 312 l 1
 445 684 l 1
 497 684 l 1
EndSplineSet
EndChar

StartChar: uni005A
Encoding: 90 90 58
Width: 514
Flags: W
LayerCount: 2
Fore
SplineSet
465 684 m 1
 465 644 l 1
 92 43 l 1
 456 43 l 1
 450 0 l 1
 37 0 l 1
 37 40 l 1
 412 642 l 1
 75 642 l 1
 75 684 l 1
 465 684 l 1
EndSplineSet
EndChar

StartChar: uni005B
Encoding: 91 91 59
Width: 315
Flags: W
LayerCount: 2
Fore
SplineSet
243 803 m 1
 243 765 l 1
 134 765 l 1
 134 -73 l 1
 243 -73 l 1
 243 -111 l 1
 91 -111 l 1
 91 803 l 1
 243 803 l 1
EndSplineSet
EndChar

StartChar: uni005C
Encoding: 92 92 60
Width: 520
Flags: W
LayerCount: 2
Fore
SplineSet
164 801 m 1
 396 -87 l 1
 355 -98 l 1
 124 791 l 1
 164 801 l 1
EndSplineSet
EndChar

StartChar: uni005D
Encoding: 93 93 61
Width: 315
Flags: W
LayerCount: 2
Fore
SplineSet
224 803 m 1
 224 -111 l 1
 72 -111 l 1
 72 -73 l 1
 181 -73 l 1
 181 765 l 1
 72 765 l 1
 72 803 l 1
 224 803 l 1
EndSplineSet
EndChar

StartChar: uni005E
Encoding: 94 94 62
Width: 527
Flags: W
LayerCount: 2
Fore
SplineSet
282 830 m 1
 465 527 l 1
 412 527 l 1
 264 781 l 1
 116 527 l 1
 62 527 l 1
 245 830 l 1
 282 830 l 1
EndSplineSet
EndChar

StartChar: uni005F
Encoding: 95 95 63
Width: 520
Flags: W
LayerCount: 2
Fore
SplineSet
33 -115 m 1
 33 -73 l 1
 488 -73 l 1
 488 -115 l 1
 33 -115 l 1
EndSplineSet
EndChar

StartChar: uni0060
Encoding: 96 96 64
Width: 265
Flags: W
LayerCount: 2
Fore
SplineSet
51 776 m 1
 235 676 l 1
 220 648 l 1
 30 732 l 1
 51 776 l 1
EndSplineSet
EndChar

StartChar: uni0061
Encoding: 97 97 65
Width: 529
Flags: W
LayerCount: 2
Fore
SplineSet
420 113 m 2
 420 51 435 33 464 22 c 1
 453 -11 l 1
 410 0 385 24 380 80 c 1
 342 20 287 -11 215 -11 c 0
 115 -11 55 52 55 145 c 0
 55 253 138 312 267 312 c 2
 374 312 l 1
 374 367 l 2
 374 452 340 492 249 492 c 0
 205 492 158 481 107 461 c 1
 94 498 l 1
 150 520 200 532 253 532 c 0
 369 532 420 475 420 370 c 2
 420 113 l 2
221 28 m 0
 293 28 341 64 374 127 c 1
 374 276 l 1
 274 276 l 2
 167 276 104 234 104 146 c 0
 104 71 148 28 221 28 c 0
EndSplineSet
EndChar

StartChar: uni0062
Encoding: 98 98 66
Width: 570
Flags: W
LayerCount: 2
Fore
SplineSet
315 532 m 0
 435 532 504 437 504 264 c 0
 504 95 434 -11 308 -11 c 0
 239 -11 187 25 154 69 c 1
 149 0 l 1
 109 0 l 1
 109 735 l 1
 155 741 l 1
 155 447 l 1
 193 497 245 532 315 532 c 0
301 29 m 0
 399 29 455 109 455 264 c 0
 455 420 403 493 308 493 c 0
 237 493 194 453 155 399 c 1
 155 115 l 1
 190 65 238 29 301 29 c 0
EndSplineSet
EndChar

StartChar: uni0063
Encoding: 99 99 67
Width: 466
Flags: W
LayerCount: 2
Fore
SplineSet
285 532 m 0
 342 532 385 517 428 481 c 1
 404 450 l 1
 371 477 336 492 287 492 c 0
 187 492 116 414 116 258 c 0
 116 104 186 30 286 30 c 0
 336 30 373 47 408 76 c 1
 432 45 l 1
 393 10 344 -11 286 -11 c 0
 154 -11 67 88 67 258 c 0
 67 426 153 532 285 532 c 0
EndSplineSet
EndChar

StartChar: uni0064
Encoding: 100 100 68
Width: 575
Flags: W
LayerCount: 2
Fore
SplineSet
420 741 m 1
 466 735 l 1
 466 0 l 1
 426 0 l 1
 421 82 l 1
 392 32 342 -11 261 -11 c 0
 142 -11 67 92 67 259 c 0
 67 420 143 532 271 532 c 0
 347 532 391 496 420 459 c 1
 420 741 l 1
267 29 m 0
 341 29 384 67 420 133 c 1
 420 410 l 1
 389 456 345 493 277 493 c 0
 181 493 114 409 115 259 c 0
 116 111 174 29 267 29 c 0
EndSplineSet
EndChar

StartChar: uni0065
Encoding: 101 101 69
Width: 531
Flags: W
LayerCount: 2
Fore
SplineSet
471 282 m 0
 471 266 470 251 469 241 c 1
 115 241 l 1
 122 93 192 30 286 30 c 0
 345 30 383 48 428 83 c 1
 451 53 l 1
 403 13 353 -11 284 -11 c 0
 150 -11 67 89 67 257 c 0
 67 425 147 532 272 532 c 0
 405 532 471 433 471 282 c 0
426 278 m 1
 426 297 l 2
 426 414 378 493 274 493 c 0
 189 493 120 428 115 278 c 1
 426 278 l 1
EndSplineSet
EndChar

StartChar: uni0066
Encoding: 102 102 70
Width: 316
Flags: W
LayerCount: 2
Fore
SplineSet
255 701 m 0
 195 701 160 675 160 610 c 2
 160 522 l 1
 302 522 l 1
 295 483 l 1
 160 483 l 1
 160 0 l 1
 114 0 l 1
 114 483 l 1
 25 483 l 1
 25 522 l 1
 114 522 l 1
 114 612 l 2
 114 693 168 741 253 741 c 0
 296 741 336 731 373 713 c 1
 356 678 l 1
 322 693 290 701 255 701 c 0
EndSplineSet
EndChar

StartChar: uni0067
Encoding: 103 103 71
Width: 501
Flags: W
LayerCount: 2
Fore
SplineSet
471 562 m 1
 486 516 l 1
 453 506 409 502 344 501 c 1
 397 476 432 431 432 355 c 0
 432 254 362 185 247 185 c 0
 222 185 198 189 178 196 c 1
 151 181 134 158 134 132 c 0
 134 99 156 74 222 74 c 2
 308 74 l 2
 410 74 471 21 471 -55 c 0
 471 -147 400 -203 251 -203 c 0
 98 -203 36 -159 36 -56 c 1
 80 -56 l 1
 81 -134 122 -163 251 -163 c 0
 375 -163 424 -123 424 -58 c 0
 424 0 378 33 301 33 c 2
 216 33 l 2
 132 33 89 73 89 123 c 0
 89 158 111 188 146 210 c 1
 87 241 59 287 59 358 c 0
 59 462 132 532 246 532 c 0
 390 531 424 543 471 562 c 1
247 495 m 0
 151 495 106 438 106 358 c 0
 106 269 163 221 246 221 c 0
 335 221 385 270 385 356 c 0
 385 440 340 495 247 495 c 0
EndSplineSet
EndChar

StartChar: uni0068
Encoding: 104 104 72
Width: 581
Flags: W
LayerCount: 2
Fore
SplineSet
334 532 m 0
 428 532 477 472 477 372 c 2
 477 0 l 1
 431 0 l 1
 431 366 l 2
 431 454 395 494 327 494 c 0
 252 494 200 447 155 381 c 1
 155 0 l 1
 109 0 l 1
 109 735 l 1
 155 741 l 1
 155 430 l 1
 200 491 257 532 334 532 c 0
EndSplineSet
EndChar

StartChar: uni0069
Encoding: 105 105 73
Width: 264
Flags: W
LayerCount: 2
Fore
SplineSet
132 744 m 0
 154 744 168 728 168 709 c 0
 168 690 154 674 132 674 c 0
 110 674 96 690 96 709 c 0
 96 728 110 744 132 744 c 0
155 522 m 1
 155 0 l 1
 109 0 l 1
 109 522 l 1
 155 522 l 1
EndSplineSet
EndChar

StartChar: uni006A
Encoding: 106 106 74
Width: 265
Flags: W
LayerCount: 2
Fore
SplineSet
133 744 m 0
 155 744 169 728 169 709 c 0
 169 690 155 674 133 674 c 0
 111 674 97 690 97 709 c 0
 97 728 111 744 133 744 c 0
156 522 m 1
 156 14 l 2
 156 -122 114 -158 25 -200 c 1
 12 -167 l 1
 81 -132 110 -103 110 13 c 2
 110 522 l 1
 156 522 l 1
EndSplineSet
EndChar

StartChar: uni006B
Encoding: 107 107 75
Width: 479
Flags: W
LayerCount: 2
Fore
SplineSet
155 741 m 1
 155 0 l 1
 109 0 l 1
 109 735 l 1
 155 741 l 1
445 522 m 1
 216 287 l 1
 468 0 l 1
 412 0 l 1
 161 285 l 1
 390 522 l 1
 445 522 l 1
EndSplineSet
EndChar

StartChar: uni006C
Encoding: 108 108 76
Width: 289
Flags: W
LayerCount: 2
Fore
SplineSet
190 -11 m 0
 139 -11 104 19 104 82 c 2
 104 735 l 1
 150 741 l 1
 150 84 l 2
 150 48 165 30 195 30 c 0
 208 30 221 33 232 37 c 1
 245 2 l 1
 230 -5 210 -11 190 -11 c 0
EndSplineSet
EndChar

StartChar: uni006D
Encoding: 109 109 77
Width: 849
Flags: W
LayerCount: 2
Fore
SplineSet
612 532 m 0
 696 532 745 472 745 372 c 2
 745 0 l 1
 699 0 l 1
 699 366 l 2
 699 454 664 494 605 494 c 0
 540 494 491 447 450 381 c 1
 450 0 l 1
 404 0 l 1
 404 366 l 2
 404 454 370 494 310 494 c 0
 245 494 196 447 155 381 c 1
 155 0 l 1
 109 0 l 1
 109 522 l 1
 149 522 l 1
 153 430 l 1
 194 491 250 532 317 532 c 0
 385 532 430 492 445 425 c 1
 486 488 543 532 612 532 c 0
EndSplineSet
EndChar

StartChar: uni006E
Encoding: 110 110 78
Width: 581
Flags: W
LayerCount: 2
Fore
SplineSet
334 532 m 0
 429 532 477 474 477 372 c 2
 477 0 l 1
 431 0 l 1
 431 366 l 2
 431 455 396 494 328 494 c 0
 252 494 200 447 155 381 c 1
 155 0 l 1
 109 0 l 1
 109 522 l 1
 149 522 l 1
 153 429 l 1
 197 490 257 532 334 532 c 0
EndSplineSet
EndChar

StartChar: uni006F
Encoding: 111 111 79
Width: 567
Flags: W
LayerCount: 2
Fore
SplineSet
284 532 m 0
 419 532 500 435 500 263 c 0
 500 92 417 -11 283 -11 c 0
 148 -11 67 92 67 260 c 0
 67 430 151 532 284 532 c 0
284 492 m 0
 181 492 115 414 115 260 c 0
 115 110 178 29 283 29 c 0
 387 29 452 109 452 263 c 0
 452 414 390 492 284 492 c 0
EndSplineSet
EndChar

StartChar: uni0070
Encoding: 112 112 80
Width: 570
Flags: W
LayerCount: 2
Fore
SplineSet
315 532 m 0
 441 532 504 434 504 264 c 0
 504 97 436 -11 308 -11 c 0
 239 -11 187 24 155 66 c 1
 155 -195 l 1
 109 -203 l 1
 109 522 l 1
 149 522 l 1
 152 443 l 1
 190 496 245 532 315 532 c 0
301 30 m 0
 401 30 455 110 455 264 c 0
 455 417 405 493 310 493 c 0
 239 493 194 453 155 399 c 1
 155 114 l 1
 190 63 237 30 301 30 c 0
EndSplineSet
EndChar

StartChar: uni0071
Encoding: 113 113 81
Width: 575
Flags: W
LayerCount: 2
Fore
SplineSet
426 522 m 1
 466 522 l 1
 466 -203 l 1
 420 -195 l 1
 420 79 l 1
 390 30 340 -11 262 -11 c 0
 142 -11 67 92 67 259 c 0
 67 420 143 532 272 532 c 0
 349 532 393 494 422 457 c 1
 426 522 l 1
268 29 m 0
 341 29 384 66 420 131 c 1
 420 411 l 1
 389 456 346 493 278 493 c 0
 181 493 114 409 115 259 c 0
 116 111 174 29 268 29 c 0
EndSplineSet
EndChar

StartChar: uni0072
Encoding: 114 114 82
Width: 368
Flags: W
LayerCount: 2
Fore
SplineSet
302 532 m 0
 325 532 342 530 354 526 c 1
 346 483 l 1
 332 487 317 489 300 489 c 0
 225 489 184 435 155 326 c 1
 155 0 l 1
 109 0 l 1
 109 522 l 1
 149 522 l 1
 152 401 l 1
 180 489 227 532 302 532 c 0
EndSplineSet
EndChar

StartChar: uni0073
Encoding: 115 115 83
Width: 455
Flags: W
LayerCount: 2
Fore
SplineSet
229 532 m 0
 293 532 343 513 392 475 c 1
 368 444 l 1
 323 477 285 493 231 493 c 0
 158 493 108 457 108 398 c 0
 108 344 143 320 239 294 c 0
 355 263 405 227 405 138 c 0
 405 46 327 -11 223 -11 c 0
 139 -11 85 18 40 56 c 1
 66 86 l 1
 112 50 155 29 223 29 c 0
 301 29 357 68 357 137 c 0
 357 204 327 228 216 258 c 0
 105 287 60 326 60 398 c 0
 60 477 133 532 229 532 c 0
EndSplineSet
EndChar

StartChar: uni0074
Encoding: 116 116 84
Width: 338
Flags: W
LayerCount: 2
Fore
SplineSet
319 54 m 1
 338 21 l 1
 307 1 272 -11 230 -11 c 0
 155 -11 108 34 108 123 c 2
 108 483 l 1
 21 483 l 1
 21 522 l 1
 108 522 l 1
 108 649 l 1
 154 654 l 1
 154 522 l 1
 292 522 l 1
 286 483 l 1
 154 483 l 1
 154 126 l 2
 154 62 180 30 235 30 c 0
 266 30 293 39 319 54 c 1
EndSplineSet
EndChar

StartChar: uni0075
Encoding: 117 117 85
Width: 576
Flags: W
LayerCount: 2
Fore
SplineSet
467 522 m 1
 467 0 l 1
 428 0 l 1
 425 97 l 1
 390 35 335 -11 252 -11 c 0
 158 -11 104 46 104 149 c 2
 104 522 l 1
 150 522 l 1
 150 153 l 2
 150 66 189 29 261 29 c 0
 334 29 383 76 421 141 c 1
 421 522 l 1
 467 522 l 1
EndSplineSet
EndChar

StartChar: uni0076
Encoding: 118 118 86
Width: 462
Flags: W
LayerCount: 2
Fore
SplineSet
445 522 m 1
 264 0 l 1
 206 0 l 1
 17 522 l 1
 68 522 l 1
 235 40 l 1
 395 522 l 1
 445 522 l 1
EndSplineSet
EndChar

StartChar: uni0077
Encoding: 119 119 87
Width: 692
Flags: W
LayerCount: 2
Fore
SplineSet
664 522 m 1
 534 0 l 1
 472 0 l 1
 347 478 l 1
 222 0 l 1
 161 0 l 1
 27 522 l 1
 76 522 l 1
 193 38 l 1
 321 522 l 1
 375 522 l 1
 503 37 l 1
 619 522 l 1
 664 522 l 1
EndSplineSet
EndChar

StartChar: uni0078
Encoding: 120 120 88
Width: 449
Flags: W
LayerCount: 2
Fore
SplineSet
252 280 m 1
 437 0 l 1
 382 0 l 1
 223 250 l 1
 65 0 l 1
 12 0 l 1
 196 278 l 1
 36 522 l 1
 90 522 l 1
 225 307 l 1
 360 522 l 1
 413 522 l 1
 252 280 l 1
EndSplineSet
EndChar

StartChar: uni0079
Encoding: 121 121 89
Width: 459
Flags: W
LayerCount: 2
Fore
SplineSet
442 522 m 1
 261 -2 l 2
 222 -116 180 -173 59 -201 c 1
 53 -165 l 1
 158 -137 182 -95 217 0 c 1
 201 0 l 1
 17 522 l 1
 67 522 l 1
 232 35 l 1
 392 522 l 1
 442 522 l 1
EndSplineSet
EndChar

StartChar: uni007A
Encoding: 122 122 90
Width: 412
Flags: W
LayerCount: 2
Fore
SplineSet
382 522 m 1
 382 485 l 1
 84 41 l 1
 379 41 l 1
 374 0 l 1
 29 0 l 1
 29 36 l 1
 328 481 l 1
 53 481 l 1
 53 522 l 1
 382 522 l 1
EndSplineSet
EndChar

StartChar: uni007B
Encoding: 123 123 91
Width: 327
Flags: W
LayerCount: 2
Fore
SplineSet
256 826 m 1
 256 789 l 1
 195 789 172 763 172 707 c 2
 172 449 l 2
 172 381 147 361 97 349 c 1
 147 337 172 317 172 249 c 2
 172 -9 l 2
 172 -64 195 -90 256 -90 c 1
 256 -127 l 1
 172 -127 129 -92 129 -10 c 2
 129 257 l 2
 129 310 100 328 51 328 c 1
 51 370 l 1
 100 370 129 388 129 442 c 2
 129 709 l 2
 129 791 172 826 256 826 c 1
EndSplineSet
EndChar

StartChar: uni007C
Encoding: 124 124 92
Width: 408
Flags: W
LayerCount: 2
Fore
SplineSet
226 803 m 1
 226 -100 l 1
 182 -100 l 1
 182 803 l 1
 226 803 l 1
EndSplineSet
EndChar

StartChar: uni007D
Encoding: 125 125 93
Width: 327
Flags: W
LayerCount: 2
Fore
SplineSet
71 826 m 1
 155 826 198 791 198 709 c 2
 198 442 l 2
 198 388 228 370 276 370 c 1
 276 328 l 1
 228 328 198 310 198 257 c 2
 198 -10 l 2
 198 -92 155 -127 71 -127 c 1
 71 -90 l 1
 132 -90 155 -64 155 -9 c 2
 155 249 l 2
 155 317 180 337 231 349 c 1
 180 361 155 381 155 449 c 2
 155 707 l 2
 155 763 132 789 71 789 c 1
 71 826 l 1
EndSplineSet
EndChar

StartChar: uni007E
Encoding: 126 126 94
Width: 466
Flags: W
LayerCount: 2
Fore
SplineSet
310 269 m 0
 250 269 202 325 156 325 c 0
 123 325 106 306 87 281 c 1
 57 297 l 1
 81 335 108 366 159 366 c 0
 221 366 265 310 312 310 c 0
 344 310 360 327 379 352 c 1
 408 336 l 1
 385 299 359 269 310 269 c 0
EndSplineSet
EndChar

StartChar: uni00A1
Encoding: 161 161 96
Width: 240
Flags: W
LayerCount: 2
Fore
SplineSet
120 468 m 0
 144 468 160 450 160 428 c 0
 160 406 144 388 120 388 c 0
 96 388 80 406 80 428 c 0
 80 450 96 468 120 468 c 0
142 250 m 1
 145 -195 l 1
 97 -195 l 1
 100 250 l 1
 142 250 l 1
EndSplineSet
EndChar

StartChar: uni00A2
Encoding: 162 162 97
Width: 466
Flags: W
LayerCount: 2
Fore
SplineSet
432 45 m 1
 397 14 355 -6 305 -10 c 1
 305 -149 l 1
 264 -149 l 1
 264 -10 l 1
 144 0 67 98 67 258 c 0
 67 417 144 521 265 531 c 1
 265 679 l 1
 305 679 l 1
 305 531 l 1
 352 528 390 513 428 481 c 1
 404 450 l 1
 371 477 336 492 287 492 c 0
 187 492 116 414 116 258 c 0
 116 104 186 30 286 30 c 0
 336 30 373 47 408 76 c 1
 432 45 l 1
EndSplineSet
EndChar

StartChar: uni00A3
Encoding: 163 163 98
Width: 505
Flags: W
LayerCount: 2
Fore
SplineSet
184 159 m 2
 184 93 164 66 116 41 c 1
 447 41 l 1
 441 0 l 1
 55 0 l 1
 55 40 l 1
 116 68 138 92 138 158 c 2
 138 335 l 1
 73 335 l 1
 73 371 l 1
 138 371 l 1
 138 502 l 2
 138 599 194 675 304 675 c 0
 371 675 418 652 460 603 c 1
 429 577 l 1
 396 615 361 635 305 635 c 0
 225 635 184 580 184 501 c 2
 184 371 l 1
 400 371 l 1
 400 335 l 1
 184 335 l 1
 184 159 l 2
EndSplineSet
EndChar

StartChar: uni00A4
Encoding: 164 164 99
Width: 560
Flags: W
LayerCount: 2
Fore
SplineSet
466 341 m 0
 466 292 451 248 424 215 c 1
 504 136 l 1
 475 107 l 1
 394 186 l 1
 364 164 326 151 280 151 c 0
 235 151 196 164 166 187 c 1
 85 107 l 1
 56 136 l 1
 137 216 l 1
 111 249 96 293 96 341 c 0
 96 388 111 431 137 464 c 1
 56 544 l 1
 85 573 l 1
 166 493 l 1
 196 516 235 530 280 530 c 0
 326 530 365 517 395 494 c 1
 475 573 l 1
 504 544 l 1
 424 466 l 1
 451 433 466 389 466 341 c 0
281 189 m 0
 375 189 421 252 421 341 c 0
 421 430 375 492 281 492 c 0
 189 492 141 430 141 341 c 0
 141 252 189 189 281 189 c 0
EndSplineSet
EndChar

StartChar: uni00A5
Encoding: 165 165 100
Width: 503
Flags: W
LayerCount: 2
Fore
SplineSet
487 664 m 1
 293 336 l 1
 411 336 l 1
 411 299 l 1
 276 299 l 1
 276 192 l 1
 411 192 l 1
 411 155 l 1
 276 155 l 1
 276 0 l 1
 229 0 l 1
 229 155 l 1
 95 155 l 1
 95 192 l 1
 229 192 l 1
 229 299 l 1
 95 299 l 1
 95 336 l 1
 212 336 l 1
 16 664 l 1
 69 664 l 1
 254 345 l 1
 436 664 l 1
 487 664 l 1
EndSplineSet
EndChar

StartChar: uni00A6
Encoding: 166 166 101
Width: 408
Flags: W
LayerCount: 2
Fore
SplineSet
226 803 m 1
 226 443 l 1
 182 443 l 1
 182 803 l 1
 226 803 l 1
226 262 m 1
 226 -100 l 1
 182 -100 l 1
 182 262 l 1
 226 262 l 1
EndSplineSet
EndChar

StartChar: uni00A7
Encoding: 167 167 102
Width: 532
Flags: W
LayerCount: 2
Fore
SplineSet
366 164 m 1
 403 140 420 112 420 66 c 0
 420 -16 350 -67 253 -67 c 0
 185 -67 137 -49 92 -21 c 1
 113 13 l 1
 154 -14 198 -28 254 -28 c 0
 329 -28 373 10 373 62 c 0
 373 114 353 136 249 172 c 0
 135 211 89 241 89 319 c 0
 89 368 117 410 169 445 c 1
 130 470 115 498 115 542 c 0
 115 623 184 674 274 674 c 0
 342 674 386 654 428 627 c 1
 407 595 l 1
 365 622 327 635 274 635 c 0
 204 635 161 595 161 544 c 0
 161 492 184 470 293 433 c 0
 401 397 444 360 444 287 c 0
 444 238 419 198 366 164 c 1
135 323 m 0
 135 266 159 244 262 209 c 0
 291 199 315 190 336 180 c 1
 381 212 398 243 398 283 c 0
 398 335 380 363 277 398 c 0
 246 409 220 419 199 429 c 1
 154 397 135 362 135 323 c 0
EndSplineSet
EndChar

StartChar: uni00A8
Encoding: 168 168 103
Width: 309
Flags: W
LayerCount: 2
Fore
SplineSet
64 732 m 0
 84 732 98 718 98 699 c 0
 98 680 84 666 64 666 c 0
 44 666 30 680 30 699 c 0
 30 718 44 732 64 732 c 0
246 732 m 0
 265 732 279 718 279 699 c 0
 279 680 265 666 246 666 c 0
 226 666 212 680 212 699 c 0
 212 718 226 732 246 732 c 0
EndSplineSet
EndChar

StartChar: uni00A9
Encoding: 169 169 104
Width: 810
Flags: W
LayerCount: 2
Fore
SplineSet
405 732 m 0
 570 732 696 610 696 435 c 0
 696 261 570 138 405 138 c 0
 240 138 114 260 114 435 c 0
 114 608 240 732 405 732 c 0
406 697 m 0
 260 697 153 590 153 435 c 0
 153 278 260 173 406 173 c 0
 551 173 657 280 657 435 c 0
 657 592 551 697 406 697 c 0
405 612 m 0
 448 612 476 600 503 580 c 1
 483 552 l 1
 461 568 440 576 406 576 c 0
 361 576 306 544 306 436 c 0
 306 337 350 295 408 295 c 0
 446 295 470 307 492 323 c 1
 510 295 l 1
 486 275 453 258 407 258 c 0
 323 258 264 322 264 436 c 0
 264 559 336 612 405 612 c 0
EndSplineSet
EndChar

StartChar: uni00AA
Encoding: 170 170 105
Width: 500
Flags: W
LayerCount: 2
Fore
SplineSet
255 520 m 2
 337 520 l 1
 337 557 l 2
 337 618 313 645 240 645 c 0
 206 645 168 637 128 623 c 1
 116 658 l 1
 160 674 200 684 244 684 c 0
 341 684 383 642 383 561 c 2
 383 371 l 2
 383 326 395 315 416 306 c 1
 406 275 l 1
 371 283 350 300 344 339 c 1
 313 296 269 275 214 275 c 0
 132 275 84 321 84 392 c 0
 84 475 151 520 255 520 c 2
220 313 m 0
 274 313 312 339 337 382 c 1
 337 485 l 1
 262 485 l 2
 180 485 132 457 132 394 c 0
 132 340 166 313 220 313 c 0
84 41 m 1
 431 41 l 1
 431 0 l 1
 84 0 l 1
 84 41 l 1
EndSplineSet
EndChar

StartChar: uni00AB
Encoding: 171 171 106
Width: 548
Flags: W
LayerCount: 2
Fore
SplineSet
237 514 m 1
 266 495 l 1
 128 288 l 1
 266 81 l 1
 237 62 l 1
 77 272 l 1
 77 303 l 1
 237 514 l 1
442 514 m 1
 471 495 l 1
 333 288 l 1
 471 81 l 1
 442 62 l 1
 283 272 l 1
 283 303 l 1
 442 514 l 1
EndSplineSet
EndChar

StartChar: uni00AC
Encoding: 172 172 107
Width: 499
Flags: W
LayerCount: 2
Fore
SplineSet
427 342 m 1
 427 178 l 1
 382 178 l 1
 382 300 l 1
 72 300 l 1
 72 342 l 1
 427 342 l 1
EndSplineSet
EndChar

StartChar: uni00AD
Encoding: 173 173 108
Width: 400
Flags: W
LayerCount: 2
Fore
SplineSet
71 293 m 1
 71 333 l 1
 329 333 l 1
 329 293 l 1
 71 293 l 1
EndSplineSet
EndChar

StartChar: uni00AE
Encoding: 174 174 109
Width: 639
Flags: W
LayerCount: 2
Fore
SplineSet
319 732 m 0
 451 732 555 632 555 499 c 0
 555 369 451 263 319 263 c 0
 188 263 84 363 84 496 c 0
 84 626 188 732 319 732 c 0
319 295 m 0
 431 295 520 384 520 499 c 0
 520 615 433 700 319 700 c 0
 208 700 119 611 119 496 c 0
 119 380 208 295 319 295 c 0
415 556 m 0
 415 516 391 494 353 484 c 1
 427 366 l 1
 382 366 l 1
 316 479 l 1
 276 479 l 1
 276 366 l 1
 239 366 l 1
 239 636 l 1
 305 636 l 2
 380 636 415 610 415 556 c 0
276 605 m 1
 276 510 l 1
 318 510 l 2
 355 510 378 522 378 556 c 0
 378 594 354 605 311 605 c 2
 276 605 l 1
EndSplineSet
EndChar

StartChar: uni00AF
Encoding: 175 175 110
Width: 289
Flags: W
LayerCount: 2
Fore
SplineSet
259 679 m 1
 30 679 l 1
 30 718 l 1
 259 718 l 1
 259 679 l 1
EndSplineSet
EndChar

StartChar: uni00B0
Encoding: 176 176 111
Width: 520
Flags: W
LayerCount: 2
Fore
SplineSet
219 400 m 0
 145 400 74 454 74 548 c 0
 74 638 145 694 219 694 c 0
 299 694 365 639 365 547 c 0
 365 457 299 400 219 400 c 0
219 437 m 0
 281 437 322 480 322 547 c 0
 322 616 281 657 219 657 c 0
 162 657 116 616 116 548 c 0
 116 480 162 437 219 437 c 0
EndSplineSet
EndChar

StartChar: uni00B1
Encoding: 177 177 112
Width: 490
Flags: W
LayerCount: 2
Fore
SplineSet
73 317 m 1
 73 357 l 1
 224 357 l 1
 224 510 l 1
 267 510 l 1
 267 357 l 1
 417 357 l 1
 417 317 l 1
 267 317 l 1
 267 164 l 1
 224 164 l 1
 224 317 l 1
 73 317 l 1
73 61 m 1
 73 100 l 1
 417 100 l 1
 417 61 l 1
 73 61 l 1
EndSplineSet
EndChar

StartChar: uni00B2
Encoding: 178 178 113
Width: 400
Flags: W
LayerCount: 2
Fore
SplineSet
197 741 m 0
 273 741 318 694 318 631 c 0
 318 550 273 502 128 360 c 1
 330 360 l 1
 323 323 l 1
 78 323 l 1
 78 358 l 1
 239 519 274 561 274 628 c 0
 274 678 243 705 195 705 c 0
 153 705 124 688 100 660 c 1
 70 681 l 1
 106 723 146 741 197 741 c 0
EndSplineSet
EndChar

StartChar: uni00B3
Encoding: 179 179 114
Width: 400
Flags: W
LayerCount: 2
Fore
SplineSet
200 743 m 0
 274 743 321 700 321 640 c 0
 321 586 286 551 236 543 c 1
 289 540 332 505 332 439 c 0
 332 367 279 315 192 315 c 0
 140 315 99 335 67 370 c 1
 93 393 l 1
 124 362 155 351 190 351 c 0
 255 351 289 387 289 439 c 0
 289 500 251 523 194 523 c 2
 166 523 l 1
 171 557 l 1
 191 557 l 2
 234 557 279 581 279 636 c 0
 279 682 246 708 198 708 c 0
 161 708 134 698 101 670 c 1
 78 696 l 1
 113 726 148 743 200 743 c 0
EndSplineSet
EndChar

StartChar: uni00B4
Encoding: 180 180 115
Width: 265
Flags: W
LayerCount: 2
Fore
SplineSet
214 776 m 1
 235 732 l 1
 45 648 l 1
 30 676 l 1
 214 776 l 1
EndSplineSet
EndChar

StartChar: uni00B5
Encoding: 181 181 116
Width: 584
Flags: W
LayerCount: 2
Fore
SplineSet
494 -3 m 1
 451 -8 l 1
 435 32 429 58 425 107 c 1
 389 44 339 -11 260 -11 c 0
 200 -11 166 15 147 57 c 1
 153 13 155 -22 155 -74 c 2
 155 -195 l 1
 109 -200 l 1
 109 522 l 1
 155 522 l 1
 155 148 l 2
 155 61 205 31 260 31 c 0
 327 31 380 76 419 155 c 1
 419 522 l 1
 465 522 l 1
 465 176 l 2
 465 98 477 46 494 -3 c 1
EndSplineSet
EndChar

StartChar: uni00B6
Encoding: 182 182 117
Width: 699
Flags: W
LayerCount: 2
Fore
SplineSet
332 684 m 2
 544 684 l 1
 544 -195 l 1
 501 -203 l 1
 501 645 l 1
 367 645 l 1
 367 -195 l 1
 324 -203 l 1
 324 298 l 1
 161 303 105 388 105 491 c 0
 105 615 188 684 332 684 c 2
EndSplineSet
EndChar

StartChar: uni00B7
Encoding: 183 183 118
Width: 195
Flags: W
LayerCount: 2
Fore
SplineSet
97 361 m 0
 122 361 138 344 138 321 c 0
 138 299 122 282 97 282 c 0
 74 282 57 299 57 321 c 0
 57 344 74 361 97 361 c 0
EndSplineSet
EndChar

StartChar: uni00B8
Encoding: 184 184 119
Width: 235
Flags: W
LayerCount: 2
Fore
SplineSet
113 16 m 1
 113 -67 l 1
 177 -72 205 -99 205 -140 c 0
 205 -193 159 -222 106 -222 c 0
 73 -222 48 -213 30 -202 c 1
 46 -172 l 1
 61 -180 79 -187 105 -187 c 0
 136 -187 162 -172 162 -140 c 0
 162 -110 136 -95 73 -95 c 1
 82 16 l 1
 113 16 l 1
EndSplineSet
EndChar

StartChar: uni00B9
Encoding: 185 185 120
Width: 400
Flags: W
LayerCount: 2
Fore
SplineSet
252 736 m 1
 252 323 l 1
 211 323 l 1
 211 689 l 1
 106 628 l 1
 87 658 l 1
 218 736 l 1
 252 736 l 1
EndSplineSet
EndChar

StartChar: uni00BA
Encoding: 186 186 121
Width: 500
Flags: W
LayerCount: 2
Fore
SplineSet
249 684 m 0
 358 684 425 612 425 481 c 0
 425 352 357 275 248 275 c 0
 138 275 72 352 72 479 c 0
 72 606 141 684 249 684 c 0
250 645 m 0
 170 645 120 591 120 479 c 0
 120 371 168 313 249 313 c 0
 329 313 378 369 378 481 c 0
 378 590 331 645 250 645 c 0
75 0 m 1
 75 41 l 1
 422 41 l 1
 422 0 l 1
 75 0 l 1
EndSplineSet
EndChar

StartChar: uni00BB
Encoding: 187 187 122
Width: 539
Flags: W
LayerCount: 2
Fore
SplineSet
106 514 m 1
 266 303 l 1
 266 272 l 1
 106 62 l 1
 77 81 l 1
 215 288 l 1
 77 495 l 1
 106 514 l 1
302 514 m 1
 461 303 l 1
 461 272 l 1
 302 62 l 1
 273 81 l 1
 411 288 l 1
 273 495 l 1
 302 514 l 1
EndSplineSet
EndChar

StartChar: uni00BC
Encoding: 188 188 123
Width: 908
Flags: W
LayerCount: 2
Fore
SplineSet
641 746 m 1
 675 730 l 1
 267 -68 l 1
 233 -52 l 1
 641 746 l 1
252 271 m 1
 211 271 l 1
 211 637 l 1
 106 576 l 1
 87 606 l 1
 218 684 l 1
 252 684 l 1
 252 271 l 1
851 141 m 1
 851 106 l 1
 794 106 l 1
 794 0 l 1
 753 0 l 1
 753 106 l 1
 564 106 l 1
 564 137 l 1
 694 420 l 1
 730 406 l 1
 608 141 l 1
 753 141 l 1
 758 260 l 1
 794 260 l 1
 794 141 l 1
 851 141 l 1
EndSplineSet
EndChar

StartChar: uni00BD
Encoding: 189 189 124
Width: 908
Flags: W
LayerCount: 2
Fore
SplineSet
641 746 m 1
 675 730 l 1
 267 -68 l 1
 233 -52 l 1
 641 746 l 1
252 684 m 1
 252 271 l 1
 211 271 l 1
 211 637 l 1
 106 576 l 1
 87 606 l 1
 218 684 l 1
 252 684 l 1
705 418 m 0
 781 418 826 371 826 308 c 0
 826 227 781 179 636 37 c 1
 838 37 l 1
 831 0 l 1
 586 0 l 1
 586 35 l 1
 747 196 782 238 782 305 c 0
 782 355 751 382 703 382 c 0
 661 382 632 365 608 337 c 1
 578 358 l 1
 614 400 654 418 705 418 c 0
EndSplineSet
EndChar

StartChar: uni00BE
Encoding: 190 190 125
Width: 908
Flags: W
LayerCount: 2
Fore
SplineSet
641 746 m 1
 675 730 l 1
 267 -68 l 1
 233 -52 l 1
 641 746 l 1
332 387 m 0
 332 315 279 263 192 263 c 0
 140 263 99 283 67 318 c 1
 93 341 l 1
 124 310 155 299 190 299 c 0
 255 299 289 335 289 387 c 0
 289 448 251 471 194 471 c 2
 166 471 l 1
 171 505 l 1
 191 505 l 2
 234 505 279 529 279 584 c 0
 279 630 246 656 198 656 c 0
 161 656 134 646 101 618 c 1
 78 644 l 1
 113 674 148 691 200 691 c 0
 274 691 321 648 321 588 c 0
 321 534 286 499 236 491 c 1
 289 488 332 453 332 387 c 0
851 141 m 1
 851 106 l 1
 794 106 l 1
 794 0 l 1
 753 0 l 1
 753 106 l 1
 564 106 l 1
 564 137 l 1
 694 420 l 1
 730 406 l 1
 608 141 l 1
 753 141 l 1
 758 260 l 1
 794 260 l 1
 794 141 l 1
 851 141 l 1
EndSplineSet
EndChar

StartChar: uni00BF
Encoding: 191 191 126
Width: 443
Flags: W
LayerCount: 2
Fore
SplineSet
248 388 m 0
 224 388 208 406 208 428 c 0
 208 450 224 468 248 468 c 0
 271 468 288 450 288 428 c 0
 288 406 271 388 248 388 c 0
211 -203 m 0
 105 -203 45 -137 45 -66 c 0
 45 85 227 70 227 203 c 2
 227 250 l 1
 272 250 l 1
 272 200 l 2
 272 46 93 61 93 -65 c 0
 93 -121 140 -163 212 -163 c 0
 276 -163 320 -139 366 -88 c 1
 399 -113 l 1
 345 -174 288 -203 211 -203 c 0
EndSplineSet
EndChar

StartChar: uni00C0
Encoding: 192 192 127
Width: 562
Flags: W
LayerCount: 2
Fore
SplineSet
198 880 m 1
 381 788 l 1
 368 759 l 1
 176 836 l 1
 198 880 l 1
491 0 m 1
 429 192 l 1
 131 192 l 1
 68 0 l 1
 20 0 l 1
 251 684 l 1
 311 684 l 1
 542 0 l 1
 491 0 l 1
145 234 m 1
 415 234 l 1
 281 645 l 1
 145 234 l 1
EndSplineSet
EndChar

StartChar: uni00C1
Encoding: 193 193 128
Width: 562
Flags: W
LayerCount: 2
Fore
SplineSet
383 836 m 1
 191 759 l 1
 178 788 l 1
 362 880 l 1
 383 836 l 1
491 0 m 1
 428 192 l 1
 131 192 l 1
 68 0 l 1
 20 0 l 1
 251 684 l 1
 311 684 l 1
 542 0 l 1
 491 0 l 1
145 234 m 1
 415 234 l 1
 281 645 l 1
 145 234 l 1
EndSplineSet
EndChar

StartChar: uni00C2
Encoding: 194 194 129
Width: 562
Flags: W
LayerCount: 2
Fore
SplineSet
160 763 m 1
 139 788 l 1
 267 887 l 1
 294 887 l 1
 421 788 l 1
 400 763 l 1
 281 843 l 1
 160 763 l 1
491 0 m 1
 429 192 l 1
 131 192 l 1
 68 0 l 1
 20 0 l 1
 251 684 l 1
 311 684 l 1
 542 0 l 1
 491 0 l 1
145 234 m 1
 415 234 l 1
 281 645 l 1
 145 234 l 1
EndSplineSet
EndChar

StartChar: uni00C3
Encoding: 195 195 130
Width: 562
Flags: W
LayerCount: 2
Fore
SplineSet
339 796 m 0
 312 796 288 808 269 821 c 0
 252 833 238 840 222 840 c 0
 199 840 184 829 165 803 c 1
 136 818 l 1
 158 854 186 878 222 878 c 0
 245 878 266 868 287 854 c 0
 305 843 321 834 339 834 c 0
 360 834 375 846 396 877 c 1
 425 862 l 1
 402 815 373 796 339 796 c 0
491 0 m 1
 429 192 l 1
 131 192 l 1
 68 0 l 1
 20 0 l 1
 251 684 l 1
 311 684 l 1
 542 0 l 1
 491 0 l 1
145 234 m 1
 415 234 l 1
 281 645 l 1
 145 234 l 1
EndSplineSet
EndChar

StartChar: uni00C4
Encoding: 196 196 131
Width: 562
Flags: W
LayerCount: 2
Fore
SplineSet
190 858 m 0
 210 858 224 844 224 825 c 0
 224 806 210 792 190 792 c 0
 170 792 156 806 156 825 c 0
 156 844 170 858 190 858 c 0
372 858 m 0
 391 858 405 844 405 825 c 0
 405 806 391 792 372 792 c 0
 352 792 338 806 338 825 c 0
 338 844 352 858 372 858 c 0
491 0 m 1
 429 192 l 1
 131 192 l 1
 68 0 l 1
 20 0 l 1
 251 684 l 1
 311 684 l 1
 542 0 l 1
 491 0 l 1
145 234 m 1
 415 234 l 1
 281 645 l 1
 145 234 l 1
EndSplineSet
EndChar

StartChar: uni00C5
Encoding: 197 197 132
Width: 562
Flags: W
LayerCount: 2
Fore
SplineSet
281 941 m 0
 336 941 374 905 374 852 c 0
 374 798 336 762 281 762 c 0
 226 762 188 798 188 852 c 0
 188 905 226 941 281 941 c 0
281 911 m 0
 245 911 225 889 225 852 c 0
 225 814 245 793 281 793 c 0
 317 793 337 814 337 852 c 0
 337 889 317 911 281 911 c 0
491 0 m 1
 429 192 l 1
 131 192 l 1
 68 0 l 1
 20 0 l 1
 251 684 l 1
 311 684 l 1
 542 0 l 1
 491 0 l 1
145 234 m 1
 415 234 l 1
 281 645 l 1
 145 234 l 1
EndSplineSet
EndChar

StartChar: uni00C6
Encoding: 198 198 133
Width: 772
Flags: W
LayerCount: 2
Fore
SplineSet
499 41 m 1
 729 41 l 1
 729 0 l 1
 462 0 l 1
 414 188 l 1
 123 188 l 1
 52 0 l 1
 4 0 l 1
 269 684 l 1
 679 684 l 1
 673 643 l 1
 343 643 l 1
 412 377 l 1
 671 377 l 1
 671 336 l 1
 423 336 l 1
 499 41 l 1
139 229 m 1
 404 229 l 1
 297 646 l 1
 139 229 l 1
EndSplineSet
EndChar

StartChar: uni00C7
Encoding: 199 199 134
Width: 547
Flags: W
LayerCount: 2
Fore
SplineSet
353 -67 m 1
 417 -72 445 -99 445 -140 c 0
 445 -193 399 -222 346 -222 c 0
 313 -222 288 -213 270 -202 c 1
 286 -172 l 1
 301 -180 319 -187 345 -187 c 0
 376 -187 402 -172 402 -140 c 0
 402 -110 376 -95 313 -95 c 1
 320 -10 l 1
 175 1 70 123 70 342 c 0
 70 577 193 694 344 694 c 0
 422 694 468 671 515 633 c 1
 489 601 l 1
 443 637 405 653 347 653 c 0
 222 653 120 564 120 342 c 0
 120 131 219 32 344 32 c 0
 416 32 456 57 497 90 c 1
 523 58 l 1
 482 21 429 -8 353 -11 c 1
 353 -67 l 1
EndSplineSet
EndChar

StartChar: uni00C8
Encoding: 200 200 135
Width: 504
Flags: W
LayerCount: 2
Fore
SplineSet
205 880 m 1
 388 788 l 1
 375 759 l 1
 183 836 l 1
 205 880 l 1
454 684 m 1
 448 643 l 1
 162 643 l 1
 162 377 l 1
 409 377 l 1
 409 336 l 1
 162 336 l 1
 162 41 l 1
 460 41 l 1
 460 0 l 1
 115 0 l 1
 115 684 l 1
 454 684 l 1
EndSplineSet
EndChar

StartChar: uni00C9
Encoding: 201 201 136
Width: 504
Flags: W
LayerCount: 2
Fore
SplineSet
370 880 m 1
 391 836 l 1
 199 759 l 1
 186 788 l 1
 370 880 l 1
454 684 m 1
 448 643 l 1
 162 643 l 1
 162 377 l 1
 409 377 l 1
 409 336 l 1
 162 336 l 1
 162 41 l 1
 460 41 l 1
 460 0 l 1
 115 0 l 1
 115 684 l 1
 454 684 l 1
EndSplineSet
EndChar

StartChar: uni00CA
Encoding: 202 202 137
Width: 504
Flags: W
LayerCount: 2
Fore
SplineSet
168 763 m 1
 147 788 l 1
 275 887 l 1
 302 887 l 1
 429 788 l 1
 408 763 l 1
 289 843 l 1
 168 763 l 1
454 684 m 1
 448 643 l 1
 162 643 l 1
 162 377 l 1
 409 377 l 1
 409 336 l 1
 162 336 l 1
 162 41 l 1
 460 41 l 1
 460 0 l 1
 115 0 l 1
 115 684 l 1
 454 684 l 1
EndSplineSet
EndChar

StartChar: uni00CB
Encoding: 203 203 138
Width: 504
Flags: W
LayerCount: 2
Fore
SplineSet
197 858 m 0
 217 858 231 844 231 825 c 0
 231 806 217 792 197 792 c 0
 177 792 163 806 163 825 c 0
 163 844 177 858 197 858 c 0
379 858 m 0
 398 858 412 844 412 825 c 0
 412 806 398 792 379 792 c 0
 359 792 345 806 345 825 c 0
 345 844 359 858 379 858 c 0
454 684 m 1
 448 643 l 1
 162 643 l 1
 162 377 l 1
 409 377 l 1
 409 336 l 1
 162 336 l 1
 162 41 l 1
 460 41 l 1
 460 0 l 1
 115 0 l 1
 115 684 l 1
 454 684 l 1
EndSplineSet
EndChar

StartChar: uni00CC
Encoding: 204 204 139
Width: 277
Flags: W
LayerCount: 2
Fore
SplineSet
55 880 m 1
 238 788 l 1
 225 759 l 1
 33 836 l 1
 55 880 l 1
162 684 m 1
 162 0 l 1
 115 0 l 1
 115 684 l 1
 162 684 l 1
EndSplineSet
EndChar

StartChar: uni00CD
Encoding: 205 205 140
Width: 277
Flags: W
LayerCount: 2
Fore
SplineSet
219 880 m 1
 240 836 l 1
 48 759 l 1
 35 788 l 1
 219 880 l 1
162 684 m 1
 162 0 l 1
 115 0 l 1
 115 684 l 1
 162 684 l 1
EndSplineSet
EndChar

StartChar: uni00CE
Encoding: 206 206 141
Width: 277
Flags: W
LayerCount: 2
Fore
SplineSet
17 763 m 1
 -4 788 l 1
 124 887 l 1
 151 887 l 1
 278 788 l 1
 257 763 l 1
 138 843 l 1
 17 763 l 1
162 684 m 1
 162 0 l 1
 115 0 l 1
 115 684 l 1
 162 684 l 1
EndSplineSet
EndChar

StartChar: uni00CF
Encoding: 207 207 142
Width: 277
Flags: W
LayerCount: 2
Fore
SplineSet
47 858 m 0
 67 858 81 844 81 825 c 0
 81 806 67 792 47 792 c 0
 27 792 13 806 13 825 c 0
 13 844 27 858 47 858 c 0
229 858 m 0
 248 858 262 844 262 825 c 0
 262 806 248 792 229 792 c 0
 209 792 195 806 195 825 c 0
 195 844 209 858 229 858 c 0
162 684 m 1
 162 0 l 1
 115 0 l 1
 115 684 l 1
 162 684 l 1
EndSplineSet
EndChar

StartChar: uni00D0
Encoding: 208 208 143
Width: 630
Flags: W
LayerCount: 2
Fore
SplineSet
250 684 m 2
 404 684 560 629 560 348 c 0
 560 63 396 0 258 0 c 2
 117 0 l 1
 117 332 l 1
 24 332 l 1
 24 372 l 1
 117 372 l 1
 117 684 l 1
 250 684 l 2
260 41 m 2
 382 41 510 96 510 348 c 0
 510 605 377 643 253 643 c 2
 165 643 l 1
 165 372 l 1
 346 372 l 1
 346 332 l 1
 165 332 l 1
 165 41 l 1
 260 41 l 2
EndSplineSet
EndChar

StartChar: uni00D1
Encoding: 209 209 144
Width: 669
Flags: W
LayerCount: 2
Fore
SplineSet
401 796 m 0
 374 796 350 808 331 821 c 0
 314 833 300 840 284 840 c 0
 261 840 246 829 227 803 c 1
 198 818 l 1
 220 854 248 878 284 878 c 0
 307 878 328 868 349 854 c 0
 367 843 383 834 401 834 c 0
 422 834 437 846 458 877 c 1
 487 862 l 1
 464 815 435 796 401 796 c 0
554 684 m 1
 554 0 l 1
 493 0 l 1
 154 631 l 1
 157 587 160 528 160 407 c 2
 160 0 l 1
 115 0 l 1
 115 684 l 1
 176 684 l 1
 515 53 l 1
 513 86 509 163 509 253 c 2
 509 684 l 1
 554 684 l 1
EndSplineSet
EndChar

StartChar: uni00D2
Encoding: 210 210 145
Width: 691
Flags: W
LayerCount: 2
Fore
SplineSet
262 880 m 1
 445 788 l 1
 432 759 l 1
 240 836 l 1
 262 880 l 1
345 694 m 0
 509 694 621 572 621 341 c 0
 621 117 513 -11 345 -11 c 0
 182 -11 70 113 70 340 c 0
 70 566 183 694 345 694 c 0
345 653 m 0
 211 653 120 551 120 340 c 0
 120 133 212 31 345 31 c 0
 485 31 571 133 571 341 c 0
 571 552 482 653 345 653 c 0
EndSplineSet
EndChar

StartChar: uni00D3
Encoding: 211 211 146
Width: 691
Flags: W
LayerCount: 2
Fore
SplineSet
426 880 m 1
 447 836 l 1
 255 759 l 1
 242 788 l 1
 426 880 l 1
345 694 m 0
 509 694 621 572 621 341 c 0
 621 117 513 -11 345 -11 c 0
 182 -11 70 113 70 340 c 0
 70 566 183 694 345 694 c 0
345 653 m 0
 211 653 120 551 120 340 c 0
 120 133 212 31 345 31 c 0
 485 31 571 133 571 341 c 0
 571 552 482 653 345 653 c 0
EndSplineSet
EndChar

StartChar: uni00D4
Encoding: 212 212 147
Width: 691
Flags: W
LayerCount: 2
Fore
SplineSet
224 763 m 1
 203 788 l 1
 331 887 l 1
 358 887 l 1
 485 788 l 1
 464 763 l 1
 345 843 l 1
 224 763 l 1
345 694 m 0
 509 694 621 572 621 341 c 0
 621 117 513 -11 345 -11 c 0
 182 -11 70 113 70 340 c 0
 70 566 183 694 345 694 c 0
345 653 m 0
 211 653 120 551 120 340 c 0
 120 133 212 31 345 31 c 0
 485 31 571 133 571 341 c 0
 571 552 482 653 345 653 c 0
EndSplineSet
EndChar

StartChar: uni00D5
Encoding: 213 213 148
Width: 691
Flags: W
LayerCount: 2
Fore
SplineSet
404 796 m 0
 377 796 353 808 334 821 c 0
 317 833 303 840 287 840 c 0
 264 840 249 829 230 803 c 1
 201 818 l 1
 223 854 251 878 287 878 c 0
 310 878 331 868 352 854 c 0
 370 843 386 834 404 834 c 0
 425 834 440 846 461 877 c 1
 490 862 l 1
 467 815 438 796 404 796 c 0
345 694 m 0
 509 694 621 572 621 341 c 0
 621 117 513 -11 345 -11 c 0
 182 -11 70 113 70 340 c 0
 70 566 183 694 345 694 c 0
345 653 m 0
 211 653 120 551 120 340 c 0
 120 133 212 31 345 31 c 0
 485 31 571 133 571 341 c 0
 571 552 482 653 345 653 c 0
EndSplineSet
EndChar

StartChar: uni00D6
Encoding: 214 214 149
Width: 691
Flags: W
LayerCount: 2
Fore
SplineSet
254 858 m 0
 274 858 288 844 288 825 c 0
 288 806 274 792 254 792 c 0
 234 792 220 806 220 825 c 0
 220 844 234 858 254 858 c 0
436 858 m 0
 455 858 469 844 469 825 c 0
 469 806 455 792 436 792 c 0
 416 792 402 806 402 825 c 0
 402 844 416 858 436 858 c 0
345 694 m 0
 509 694 621 572 621 341 c 0
 621 117 513 -11 345 -11 c 0
 182 -11 70 113 70 340 c 0
 70 566 183 694 345 694 c 0
345 653 m 0
 211 653 120 551 120 340 c 0
 120 133 212 31 345 31 c 0
 485 31 571 133 571 341 c 0
 571 552 482 653 345 653 c 0
EndSplineSet
EndChar

StartChar: uni00D7
Encoding: 215 215 150
Width: 491
Flags: W
LayerCount: 2
Fore
SplineSet
371 466 m 1
 402 436 l 1
 275 308 l 1
 402 178 l 1
 371 149 l 1
 246 279 l 1
 120 149 l 1
 89 178 l 1
 214 306 l 1
 89 436 l 1
 120 466 l 1
 244 335 l 1
 371 466 l 1
EndSplineSet
EndChar

StartChar: uni00D8
Encoding: 216 216 151
Width: 691
Flags: W
LayerCount: 2
Fore
SplineSet
462 669 m 1
 560 623 621 512 621 341 c 0
 621 117 513 -11 345 -11 c 0
 316 -11 289 -7 264 1 c 1
 231 -117 l 1
 188 -105 l 1
 226 15 l 1
 130 63 70 174 70 340 c 0
 70 566 183 694 345 694 c 0
 373 694 400 690 424 683 c 1
 459 807 l 1
 502 795 l 1
 462 669 l 1
120 340 m 0
 120 190 167 97 242 56 c 1
 415 643 l 1
 394 650 370 653 345 653 c 0
 211 653 120 551 120 340 c 0
345 31 m 0
 485 31 571 133 571 341 c 0
 571 496 524 590 447 630 c 1
 273 42 l 1
 295 35 319 31 345 31 c 0
EndSplineSet
EndChar

StartChar: uni00D9
Encoding: 217 217 152
Width: 648
Flags: W
LayerCount: 2
Fore
SplineSet
241 880 m 1
 424 788 l 1
 411 759 l 1
 219 836 l 1
 241 880 l 1
543 684 m 1
 543 211 l 2
 543 82 473 -11 324 -11 c 0
 174 -11 105 82 105 211 c 2
 105 684 l 1
 152 684 l 1
 152 215 l 2
 152 103 204 32 324 32 c 0
 445 32 495 105 495 215 c 2
 495 684 l 1
 543 684 l 1
EndSplineSet
EndChar

StartChar: uni00DA
Encoding: 218 218 153
Width: 648
Flags: W
LayerCount: 2
Fore
SplineSet
405 880 m 1
 426 836 l 1
 234 759 l 1
 221 788 l 1
 405 880 l 1
543 684 m 1
 543 211 l 2
 543 82 473 -11 324 -11 c 0
 174 -11 105 82 105 211 c 2
 105 684 l 1
 152 684 l 1
 152 215 l 2
 152 103 204 32 324 32 c 0
 445 32 495 105 495 215 c 2
 495 684 l 1
 543 684 l 1
EndSplineSet
EndChar

StartChar: uni00DB
Encoding: 219 219 154
Width: 648
Flags: W
LayerCount: 2
Fore
SplineSet
204 763 m 1
 183 788 l 1
 311 887 l 1
 338 887 l 1
 465 788 l 1
 444 763 l 1
 325 843 l 1
 204 763 l 1
543 684 m 1
 543 211 l 2
 543 82 473 -11 324 -11 c 0
 174 -11 105 82 105 211 c 2
 105 684 l 1
 152 684 l 1
 152 215 l 2
 152 103 204 32 324 32 c 0
 445 32 495 105 495 215 c 2
 495 684 l 1
 543 684 l 1
EndSplineSet
EndChar

StartChar: uni00DC
Encoding: 220 220 155
Width: 648
Flags: W
LayerCount: 2
Fore
SplineSet
233 858 m 0
 253 858 267 844 267 825 c 0
 267 806 253 792 233 792 c 0
 213 792 199 806 199 825 c 0
 199 844 213 858 233 858 c 0
415 858 m 0
 434 858 448 844 448 825 c 0
 448 806 434 792 415 792 c 0
 395 792 381 806 381 825 c 0
 381 844 395 858 415 858 c 0
543 684 m 1
 543 211 l 2
 543 82 473 -11 324 -11 c 0
 174 -11 105 82 105 211 c 2
 105 684 l 1
 152 684 l 1
 152 215 l 2
 152 103 204 32 324 32 c 0
 445 32 495 105 495 215 c 2
 495 684 l 1
 543 684 l 1
EndSplineSet
EndChar

StartChar: uni00DD
Encoding: 221 221 156
Width: 513
Flags: W
LayerCount: 2
Fore
SplineSet
338 880 m 1
 359 836 l 1
 167 759 l 1
 154 788 l 1
 338 880 l 1
497 684 m 1
 281 269 l 1
 281 0 l 1
 234 0 l 1
 234 268 l 1
 16 684 l 1
 69 684 l 1
 259 312 l 1
 445 684 l 1
 497 684 l 1
EndSplineSet
EndChar

StartChar: uni00DE
Encoding: 222 222 157
Width: 566
Flags: W
LayerCount: 2
Fore
SplineSet
268 560 m 2
 425 560 517 499 517 356 c 0
 517 197 412 140 265 140 c 2
 162 140 l 1
 162 0 l 1
 115 0 l 1
 115 684 l 1
 162 684 l 1
 162 560 l 1
 268 560 l 2
266 180 m 2
 384 180 467 219 467 355 c 0
 467 477 395 519 268 519 c 2
 162 519 l 1
 162 180 l 1
 266 180 l 2
EndSplineSet
EndChar

StartChar: uni00DF
Encoding: 223 223 158
Width: 577
Flags: W
LayerCount: 2
Fore
SplineSet
292 741 m 0
 386 741 451 686 451 609 c 0
 451 501 332 490 332 423 c 0
 332 336 526 329 526 153 c 0
 526 55 463 -11 369 -11 c 0
 326 -11 298 -1 274 12 c 1
 290 45 l 1
 308 37 330 29 366 29 c 0
 433 29 479 73 479 153 c 0
 479 311 288 307 288 421 c 0
 288 506 405 511 405 608 c 0
 405 666 359 702 292 702 c 0
 213 702 155 652 155 538 c 2
 155 0 l 1
 109 0 l 1
 109 540 l 2
 109 671 184 741 292 741 c 0
EndSplineSet
EndChar

StartChar: uni00E0
Encoding: 224 224 159
Width: 529
Flags: W
LayerCount: 2
Fore
SplineSet
173 776 m 1
 357 676 l 1
 342 648 l 1
 152 732 l 1
 173 776 l 1
420 113 m 2
 420 51 435 33 464 22 c 1
 453 -11 l 1
 410 0 385 24 380 80 c 1
 342 20 287 -11 215 -11 c 0
 115 -11 55 52 55 145 c 0
 55 253 138 312 267 312 c 2
 374 312 l 1
 374 367 l 2
 374 452 340 492 249 492 c 0
 205 492 158 481 107 461 c 1
 94 498 l 1
 150 520 200 532 253 532 c 0
 369 532 420 475 420 370 c 2
 420 113 l 2
221 28 m 0
 293 28 341 64 374 127 c 1
 374 276 l 1
 274 276 l 2
 167 276 104 234 104 146 c 0
 104 71 148 28 221 28 c 0
EndSplineSet
EndChar

StartChar: uni00E1
Encoding: 225 225 160
Width: 529
Flags: W
LayerCount: 2
Fore
SplineSet
347 732 m 1
 157 648 l 1
 142 676 l 1
 326 776 l 1
 347 732 l 1
420 113 m 2
 420 51 435 33 464 22 c 1
 453 -11 l 1
 410 0 385 24 380 81 c 1
 342 20 287 -11 215 -11 c 0
 115 -11 55 52 55 145 c 0
 55 253 138 312 267 312 c 2
 374 312 l 1
 374 367 l 2
 374 452 340 492 249 492 c 0
 205 492 158 481 107 461 c 1
 94 498 l 1
 150 520 200 532 253 532 c 0
 369 532 420 475 420 370 c 2
 420 113 l 2
221 28 m 0
 292 28 341 64 374 127 c 1
 374 276 l 1
 274 276 l 2
 167 276 104 234 104 146 c 0
 104 71 148 28 221 28 c 0
EndSplineSet
EndChar

StartChar: uni00E2
Encoding: 226 226 161
Width: 529
Flags: W
LayerCount: 2
Fore
SplineSet
132 647 m 1
 111 672 l 1
 238 775 l 1
 265 775 l 1
 393 672 l 1
 372 647 l 1
 252 731 l 1
 132 647 l 1
420 113 m 2
 420 51 435 33 464 22 c 1
 453 -11 l 1
 410 0 385 24 380 80 c 1
 342 20 287 -11 215 -11 c 0
 115 -11 55 52 55 145 c 0
 55 253 138 312 267 312 c 2
 374 312 l 1
 374 367 l 2
 374 452 340 492 249 492 c 0
 205 492 158 481 107 461 c 1
 94 498 l 1
 150 520 200 532 253 532 c 0
 369 532 420 475 420 370 c 2
 420 113 l 2
221 28 m 0
 293 28 341 64 374 127 c 1
 374 276 l 1
 274 276 l 2
 167 276 104 234 104 146 c 0
 104 71 148 28 221 28 c 0
EndSplineSet
EndChar

StartChar: uni00E3
Encoding: 227 227 162
Width: 529
Flags: W
LayerCount: 2
Fore
SplineSet
311 670 m 0
 284 670 260 682 241 695 c 0
 224 707 210 714 194 714 c 0
 171 714 156 703 137 677 c 1
 108 692 l 1
 130 728 158 752 194 752 c 0
 217 752 238 742 259 728 c 0
 277 717 293 708 311 708 c 0
 332 708 347 720 368 751 c 1
 397 736 l 1
 374 689 345 670 311 670 c 0
420 113 m 2
 420 51 435 33 464 22 c 1
 453 -11 l 1
 410 0 385 24 380 80 c 1
 342 20 287 -11 215 -11 c 0
 115 -11 55 52 55 145 c 0
 55 253 138 312 267 312 c 2
 374 312 l 1
 374 367 l 2
 374 452 340 492 249 492 c 0
 205 492 158 481 107 461 c 1
 94 498 l 1
 150 520 200 532 253 532 c 0
 369 532 420 475 420 370 c 2
 420 113 l 2
221 28 m 0
 293 28 341 64 374 127 c 1
 374 276 l 1
 274 276 l 2
 167 276 104 234 104 146 c 0
 104 71 148 28 221 28 c 0
EndSplineSet
EndChar

StartChar: uni00E4
Encoding: 228 228 163
Width: 529
Flags: W
LayerCount: 2
Fore
SplineSet
161 732 m 0
 181 732 195 718 195 699 c 0
 195 680 181 666 161 666 c 0
 141 666 127 680 127 699 c 0
 127 718 141 732 161 732 c 0
343 732 m 0
 362 732 376 718 376 699 c 0
 376 680 362 666 343 666 c 0
 323 666 309 680 309 699 c 0
 309 718 323 732 343 732 c 0
420 113 m 2
 420 51 435 33 464 22 c 1
 453 -11 l 1
 410 0 385 24 380 80 c 1
 342 20 287 -11 215 -11 c 0
 115 -11 55 52 55 145 c 0
 55 253 138 312 267 312 c 2
 374 312 l 1
 374 367 l 2
 374 452 340 492 249 492 c 0
 205 492 158 481 107 461 c 1
 94 498 l 1
 150 520 200 532 253 532 c 0
 369 532 420 475 420 370 c 2
 420 113 l 2
221 28 m 0
 293 28 341 64 374 127 c 1
 374 276 l 1
 274 276 l 2
 167 276 104 234 104 146 c 0
 104 71 148 28 221 28 c 0
EndSplineSet
EndChar

StartChar: uni00E5
Encoding: 229 229 164
Width: 529
Flags: W
LayerCount: 2
Fore
SplineSet
252 815 m 0
 307 815 345 779 345 726 c 0
 345 672 307 636 252 636 c 0
 197 636 159 672 159 726 c 0
 159 779 197 815 252 815 c 0
252 785 m 0
 216 785 196 763 196 726 c 0
 196 688 216 667 252 667 c 0
 288 667 308 688 308 726 c 0
 308 763 288 785 252 785 c 0
420 113 m 2
 420 51 435 33 464 22 c 1
 453 -11 l 1
 410 0 385 24 380 80 c 1
 342 20 287 -11 215 -11 c 0
 115 -11 55 52 55 145 c 0
 55 253 138 312 267 312 c 2
 374 312 l 1
 374 367 l 2
 374 452 340 492 249 492 c 0
 205 492 158 481 107 461 c 1
 94 498 l 1
 150 520 200 532 253 532 c 0
 369 532 420 475 420 370 c 2
 420 113 l 2
221 28 m 0
 293 28 341 64 374 127 c 1
 374 276 l 1
 274 276 l 2
 167 276 104 234 104 146 c 0
 104 71 148 28 221 28 c 0
EndSplineSet
EndChar

StartChar: uni00E6
Encoding: 230 230 165
Width: 839
Flags: W
LayerCount: 2
Fore
SplineSet
779 282 m 0
 779 266 778 251 777 241 c 1
 423 241 l 1
 430 93 500 30 594 30 c 0
 652 30 691 48 736 83 c 1
 759 53 l 1
 711 13 661 -11 592 -11 c 0
 508 -11 443 29 407 101 c 1
 350 20 293 -11 216 -11 c 0
 115 -11 55 52 55 145 c 0
 55 253 138 313 268 313 c 2
 375 313 l 1
 375 367 l 2
 375 452 341 492 250 492 c 0
 206 492 159 481 108 461 c 1
 95 498 l 1
 150 520 200 532 254 532 c 0
 348 532 396 493 414 423 c 1
 449 494 506 532 584 532 c 0
 713 532 779 433 779 282 c 0
734 278 m 1
 734 297 l 2
 734 414 686 493 584 493 c 0
 497 493 429 429 423 278 c 1
 734 278 l 1
222 28 m 0
 291 28 341 62 392 139 c 1
 381 173 375 212 375 256 c 2
 375 276 l 1
 275 276 l 2
 168 276 105 234 105 146 c 0
 105 71 149 28 222 28 c 0
EndSplineSet
EndChar

StartChar: uni00E7
Encoding: 231 231 166
Width: 466
Flags: W
LayerCount: 2
Fore
SplineSet
295 -67 m 1
 359 -72 387 -99 387 -140 c 0
 387 -193 341 -222 288 -222 c 0
 255 -222 230 -213 212 -202 c 1
 228 -172 l 1
 243 -180 261 -187 287 -187 c 0
 318 -187 344 -172 344 -140 c 0
 344 -110 318 -95 255 -95 c 1
 262 -10 l 1
 144 2 67 99 67 258 c 0
 67 426 153 532 285 532 c 0
 342 532 385 517 428 481 c 1
 404 450 l 1
 371 477 336 492 287 492 c 0
 187 492 116 414 116 258 c 0
 116 104 186 30 286 30 c 0
 336 30 373 47 408 76 c 1
 432 45 l 1
 395 12 349 -9 295 -11 c 1
 295 -67 l 1
EndSplineSet
EndChar

StartChar: uni00E8
Encoding: 232 232 167
Width: 531
Flags: W
LayerCount: 2
Fore
SplineSet
196 776 m 1
 380 676 l 1
 365 648 l 1
 175 732 l 1
 196 776 l 1
471 282 m 0
 471 266 470 251 469 241 c 1
 115 241 l 1
 122 93 192 30 286 30 c 0
 345 30 383 48 428 83 c 1
 451 53 l 1
 403 13 353 -11 284 -11 c 0
 150 -11 67 89 67 257 c 0
 67 425 147 532 272 532 c 0
 405 532 471 433 471 282 c 0
426 278 m 1
 426 297 l 2
 426 414 378 493 274 493 c 0
 189 493 120 428 115 278 c 1
 426 278 l 1
EndSplineSet
EndChar

StartChar: uni00E9
Encoding: 233 233 168
Width: 531
Flags: W
LayerCount: 2
Fore
SplineSet
370 732 m 1
 180 648 l 1
 165 676 l 1
 349 776 l 1
 370 732 l 1
471 282 m 0
 471 266 470 251 469 241 c 1
 115 241 l 1
 122 93 192 30 286 30 c 0
 345 30 383 48 428 83 c 1
 451 53 l 1
 403 13 353 -11 284 -11 c 0
 150 -11 67 89 67 257 c 0
 67 425 147 532 272 532 c 0
 405 532 471 433 471 282 c 0
426 278 m 1
 426 297 l 2
 426 414 378 493 274 493 c 0
 189 493 121 429 115 278 c 1
 426 278 l 1
EndSplineSet
EndChar

StartChar: uni00EA
Encoding: 234 234 169
Width: 531
Flags: W
LayerCount: 2
Fore
SplineSet
275 731 m 1
 155 647 l 1
 134 672 l 1
 261 775 l 1
 288 775 l 1
 416 672 l 1
 395 647 l 1
 275 731 l 1
471 282 m 0
 471 266 470 251 469 241 c 1
 115 241 l 1
 122 93 192 30 286 30 c 0
 345 30 383 48 428 83 c 1
 451 53 l 1
 403 13 353 -11 284 -11 c 0
 150 -11 67 89 67 257 c 0
 67 425 147 532 272 532 c 0
 405 532 471 433 471 282 c 0
426 278 m 1
 426 297 l 2
 426 414 378 493 274 493 c 0
 189 493 121 429 115 278 c 1
 426 278 l 1
EndSplineSet
EndChar

StartChar: uni00EB
Encoding: 235 235 170
Width: 531
Flags: W
LayerCount: 2
Fore
SplineSet
184 732 m 0
 204 732 218 718 218 699 c 0
 218 680 204 666 184 666 c 0
 164 666 150 680 150 699 c 0
 150 718 164 732 184 732 c 0
366 732 m 0
 385 732 399 718 399 699 c 0
 399 680 385 666 366 666 c 0
 346 666 332 680 332 699 c 0
 332 718 346 732 366 732 c 0
471 282 m 0
 471 266 470 251 469 241 c 1
 115 241 l 1
 122 93 192 30 286 30 c 0
 345 30 383 48 428 83 c 1
 451 53 l 1
 403 13 353 -11 284 -11 c 0
 150 -11 67 89 67 257 c 0
 67 425 147 532 272 532 c 0
 405 532 471 433 471 282 c 0
426 278 m 1
 426 297 l 2
 426 414 378 493 274 493 c 0
 189 493 120 428 115 278 c 1
 426 278 l 1
EndSplineSet
EndChar

StartChar: uni00EC
Encoding: 236 236 171
Width: 264
Flags: W
LayerCount: 2
Fore
SplineSet
53 776 m 1
 237 676 l 1
 222 648 l 1
 32 732 l 1
 53 776 l 1
155 522 m 1
 155 0 l 1
 109 0 l 1
 109 522 l 1
 155 522 l 1
EndSplineSet
EndChar

StartChar: uni00ED
Encoding: 237 237 172
Width: 264
Flags: W
LayerCount: 2
Fore
SplineSet
206 776 m 1
 227 732 l 1
 37 648 l 1
 22 676 l 1
 206 776 l 1
155 522 m 1
 155 0 l 1
 109 0 l 1
 109 522 l 1
 155 522 l 1
EndSplineSet
EndChar

StartChar: uni00EE
Encoding: 238 238 173
Width: 264
Flags: W
LayerCount: 2
Fore
SplineSet
12 647 m 1
 -9 672 l 1
 118 775 l 1
 145 775 l 1
 273 672 l 1
 252 647 l 1
 132 731 l 1
 12 647 l 1
155 522 m 1
 155 0 l 1
 109 0 l 1
 109 522 l 1
 155 522 l 1
EndSplineSet
EndChar

StartChar: uni00EF
Encoding: 239 239 174
Width: 264
Flags: W
LayerCount: 2
Fore
SplineSet
41 732 m 0
 61 732 75 718 75 699 c 0
 75 680 61 666 41 666 c 0
 21 666 7 680 7 699 c 0
 7 718 21 732 41 732 c 0
223 732 m 0
 242 732 256 718 256 699 c 0
 256 680 242 666 223 666 c 0
 203 666 189 680 189 699 c 0
 189 718 203 732 223 732 c 0
155 522 m 1
 155 0 l 1
 109 0 l 1
 109 522 l 1
 155 522 l 1
EndSplineSet
EndChar

StartChar: uni00F0
Encoding: 240 240 175
Width: 551
Flags: W
LayerCount: 2
Fore
SplineSet
318 664 m 1
 424 583 479 472 479 285 c 0
 479 87 395 -11 271 -11 c 0
 144 -11 67 83 67 232 c 0
 67 353 134 466 259 466 c 0
 329 466 383 434 427 381 c 1
 415 487 371 569 289 635 c 1
 211 556 l 1
 176 570 l 1
 259 655 l 1
 223 677 178 695 134 704 c 1
 144 742 l 1
 193 732 242 713 288 685 c 1
 356 757 l 1
 385 732 l 1
 318 664 l 1
271 29 m 0
 371 29 432 118 432 288 c 0
 432 307 432 320 431 332 c 1
 386 391 330 427 265 427 c 0
 165 427 115 340 115 232 c 0
 115 103 172 29 271 29 c 0
EndSplineSet
EndChar

StartChar: uni00F1
Encoding: 241 241 176
Width: 581
Flags: W
LayerCount: 2
Fore
SplineSet
238 714 m 0
 215 714 200 703 181 677 c 1
 152 692 l 1
 174 728 202 752 238 752 c 0
 261 752 282 742 303 728 c 0
 321 717 337 708 355 708 c 0
 376 708 391 720 412 751 c 1
 441 736 l 1
 418 689 389 670 355 670 c 0
 328 670 304 682 285 695 c 0
 268 707 254 714 238 714 c 0
334 532 m 0
 429 532 477 474 477 372 c 2
 477 0 l 1
 431 0 l 1
 431 366 l 2
 431 455 396 494 328 494 c 0
 252 494 200 447 155 381 c 1
 155 0 l 1
 109 0 l 1
 109 522 l 1
 149 522 l 1
 153 429 l 1
 197 490 257 532 334 532 c 0
EndSplineSet
EndChar

StartChar: uni00F2
Encoding: 242 242 177
Width: 567
Flags: W
LayerCount: 2
Fore
SplineSet
204 776 m 1
 388 676 l 1
 373 648 l 1
 183 732 l 1
 204 776 l 1
284 532 m 0
 419 532 500 435 500 263 c 0
 500 92 417 -11 283 -11 c 0
 148 -11 67 92 67 260 c 0
 67 430 151 532 284 532 c 0
284 492 m 0
 181 492 115 414 115 260 c 0
 115 110 178 29 283 29 c 0
 387 29 452 109 452 263 c 0
 452 414 390 492 284 492 c 0
EndSplineSet
EndChar

StartChar: uni00F3
Encoding: 243 243 178
Width: 567
Flags: W
LayerCount: 2
Fore
SplineSet
357 776 m 1
 378 732 l 1
 188 648 l 1
 173 676 l 1
 357 776 l 1
284 532 m 0
 419 532 500 435 500 263 c 0
 500 92 417 -11 283 -11 c 0
 148 -11 67 92 67 260 c 0
 67 430 151 532 284 532 c 0
284 492 m 0
 181 492 115 414 115 260 c 0
 115 110 178 29 283 29 c 0
 387 29 452 109 452 263 c 0
 452 414 390 492 284 492 c 0
EndSplineSet
EndChar

StartChar: uni00F4
Encoding: 244 244 179
Width: 567
Flags: W
LayerCount: 2
Fore
SplineSet
163 647 m 1
 142 672 l 1
 269 775 l 1
 296 775 l 1
 424 672 l 1
 403 647 l 1
 283 731 l 1
 163 647 l 1
284 532 m 0
 419 532 500 435 500 263 c 0
 500 92 417 -11 283 -11 c 0
 148 -11 67 92 67 260 c 0
 67 430 151 532 284 532 c 0
284 492 m 0
 181 492 115 414 115 260 c 0
 115 110 178 29 283 29 c 0
 387 29 452 109 452 263 c 0
 452 414 390 492 284 492 c 0
EndSplineSet
EndChar

StartChar: uni00F5
Encoding: 245 245 180
Width: 567
Flags: W
LayerCount: 2
Fore
SplineSet
342 670 m 0
 315 670 291 682 272 695 c 0
 255 707 241 714 225 714 c 0
 202 714 187 703 168 677 c 1
 139 692 l 1
 161 728 189 752 225 752 c 0
 248 752 269 742 290 728 c 0
 308 717 324 708 342 708 c 0
 363 708 378 720 399 751 c 1
 428 736 l 1
 405 689 376 670 342 670 c 0
284 532 m 0
 419 532 500 435 500 263 c 0
 500 92 417 -11 283 -11 c 0
 148 -11 67 92 67 260 c 0
 67 430 151 532 284 532 c 0
284 492 m 0
 181 492 115 414 115 260 c 0
 115 110 178 29 283 29 c 0
 387 29 452 109 452 263 c 0
 452 414 390 492 284 492 c 0
EndSplineSet
EndChar

StartChar: uni00F6
Encoding: 246 246 181
Width: 567
Flags: W
LayerCount: 2
Fore
SplineSet
193 732 m 0
 213 732 227 718 227 699 c 0
 227 680 213 666 193 666 c 0
 173 666 159 680 159 699 c 0
 159 718 173 732 193 732 c 0
375 732 m 0
 394 732 408 718 408 699 c 0
 408 680 394 666 375 666 c 0
 355 666 341 680 341 699 c 0
 341 718 355 732 375 732 c 0
284 532 m 0
 419 532 500 435 500 263 c 0
 500 92 417 -11 283 -11 c 0
 148 -11 67 92 67 260 c 0
 67 430 151 532 284 532 c 0
284 492 m 0
 181 492 115 414 115 260 c 0
 115 110 178 29 283 29 c 0
 387 29 452 109 452 263 c 0
 452 414 390 492 284 492 c 0
EndSplineSet
EndChar

StartChar: uni00F7
Encoding: 247 247 182
Width: 491
Flags: W
LayerCount: 2
Fore
SplineSet
246 586 m 0
 270 586 286 569 286 546 c 0
 286 524 270 507 246 507 c 0
 222 507 205 524 205 546 c 0
 205 569 222 586 246 586 c 0
72 310 m 1
 72 352 l 1
 419 352 l 1
 419 310 l 1
 72 310 l 1
246 155 m 0
 270 155 286 138 286 115 c 0
 286 93 270 76 246 76 c 0
 222 76 205 93 205 115 c 0
 205 138 222 155 246 155 c 0
EndSplineSet
EndChar

StartChar: uni00F8
Encoding: 248 248 183
Width: 567
Flags: W
LayerCount: 2
Fore
SplineSet
389 507 m 1
 460 468 500 384 500 263 c 0
 500 92 417 -11 283 -11 c 0
 259 -11 237 -8 217 -2 c 1
 176 -123 l 1
 137 -112 l 1
 180 14 l 1
 108 54 67 141 67 260 c 0
 67 430 151 532 284 532 c 0
 308 532 331 529 351 523 c 1
 390 646 l 1
 430 634 l 1
 389 507 l 1
115 260 m 0
 115 154 144 85 197 52 c 1
 340 484 l 1
 323 489 304 492 284 492 c 0
 181 492 115 414 115 260 c 0
283 29 m 0
 387 29 452 109 452 263 c 0
 452 369 423 437 372 469 c 1
 229 37 l 1
 245 32 263 29 283 29 c 0
EndSplineSet
EndChar

StartChar: uni00F9
Encoding: 249 249 184
Width: 576
Flags: W
LayerCount: 2
Fore
SplineSet
206 776 m 1
 390 676 l 1
 375 648 l 1
 185 732 l 1
 206 776 l 1
467 522 m 1
 467 0 l 1
 428 0 l 1
 425 97 l 1
 390 35 335 -11 252 -11 c 0
 158 -11 104 46 104 149 c 2
 104 522 l 1
 150 522 l 1
 150 153 l 2
 150 66 189 29 261 29 c 0
 334 29 383 76 421 141 c 1
 421 522 l 1
 467 522 l 1
EndSplineSet
EndChar

StartChar: uni00FA
Encoding: 250 250 185
Width: 576
Flags: W
LayerCount: 2
Fore
SplineSet
359 776 m 1
 380 732 l 1
 190 648 l 1
 175 676 l 1
 359 776 l 1
467 522 m 1
 467 0 l 1
 428 0 l 1
 425 97 l 1
 390 35 335 -11 252 -11 c 0
 158 -11 104 46 104 149 c 2
 104 522 l 1
 150 522 l 1
 150 153 l 2
 150 66 189 29 261 29 c 0
 334 29 383 76 421 141 c 1
 421 522 l 1
 467 522 l 1
EndSplineSet
EndChar

StartChar: uni00FB
Encoding: 251 251 186
Width: 576
Flags: W
LayerCount: 2
Fore
SplineSet
165 647 m 1
 144 672 l 1
 271 775 l 1
 298 775 l 1
 426 672 l 1
 405 647 l 1
 285 731 l 1
 165 647 l 1
467 522 m 1
 467 0 l 1
 428 0 l 1
 425 97 l 1
 390 35 335 -11 252 -11 c 0
 158 -11 104 46 104 149 c 2
 104 522 l 1
 150 522 l 1
 150 153 l 2
 150 66 189 29 261 29 c 0
 334 29 383 76 421 141 c 1
 421 522 l 1
 467 522 l 1
EndSplineSet
EndChar

StartChar: uni00FC
Encoding: 252 252 187
Width: 576
Flags: W
LayerCount: 2
Fore
SplineSet
195 732 m 0
 215 732 229 718 229 699 c 0
 229 680 215 666 195 666 c 0
 175 666 161 680 161 699 c 0
 161 718 175 732 195 732 c 0
377 732 m 0
 396 732 410 718 410 699 c 0
 410 680 396 666 377 666 c 0
 357 666 343 680 343 699 c 0
 343 718 357 732 377 732 c 0
467 522 m 1
 467 0 l 1
 428 0 l 1
 425 97 l 1
 390 35 335 -11 252 -11 c 0
 158 -11 104 46 104 149 c 2
 104 522 l 1
 150 522 l 1
 150 153 l 2
 150 66 189 29 261 29 c 0
 334 29 383 76 421 141 c 1
 421 522 l 1
 467 522 l 1
EndSplineSet
EndChar

StartChar: uni00FD
Encoding: 253 253 188
Width: 459
Flags: W
LayerCount: 2
Fore
SplineSet
303 776 m 1
 324 732 l 1
 134 648 l 1
 119 676 l 1
 303 776 l 1
442 522 m 1
 261 -2 l 2
 222 -116 180 -173 59 -201 c 1
 53 -165 l 1
 158 -137 182 -95 217 0 c 1
 201 0 l 1
 17 522 l 1
 67 522 l 1
 232 35 l 1
 392 522 l 1
 442 522 l 1
EndSplineSet
EndChar

StartChar: uni00FE
Encoding: 254 254 189
Width: 570
Flags: W
LayerCount: 2
Fore
SplineSet
315 532 m 0
 441 532 504 434 504 264 c 0
 504 97 436 -11 308 -11 c 0
 239 -11 187 24 155 66 c 1
 155 -194 l 1
 109 -203 l 1
 109 735 l 1
 155 741 l 1
 155 446 l 1
 193 498 247 532 315 532 c 0
301 30 m 0
 401 30 455 110 455 264 c 0
 455 417 405 493 310 493 c 0
 239 493 194 453 155 399 c 1
 155 114 l 1
 190 63 237 30 301 30 c 0
EndSplineSet
EndChar

StartChar: uni00FF
Encoding: 255 255 190
Width: 459
Flags: W
LayerCount: 2
Fore
SplineSet
139 732 m 0
 159 732 173 718 173 699 c 0
 173 680 159 666 139 666 c 0
 119 666 105 680 105 699 c 0
 105 718 119 732 139 732 c 0
321 732 m 0
 340 732 354 718 354 699 c 0
 354 680 340 666 321 666 c 0
 301 666 287 680 287 699 c 0
 287 718 301 732 321 732 c 0
442 522 m 1
 261 -2 l 2
 222 -116 180 -173 59 -201 c 1
 53 -165 l 1
 158 -137 182 -95 217 0 c 1
 201 0 l 1
 17 522 l 1
 67 522 l 1
 232 35 l 1
 392 522 l 1
 442 522 l 1
EndSplineSet
EndChar

StartChar: uni0100
Encoding: 256 256 191
Width: 562
Flags: W
LayerCount: 2
Fore
SplineSet
395 805 m 1
 166 805 l 1
 166 844 l 1
 395 844 l 1
 395 805 l 1
491 0 m 1
 429 192 l 1
 131 192 l 1
 68 0 l 1
 20 0 l 1
 251 684 l 1
 311 684 l 1
 542 0 l 1
 491 0 l 1
145 234 m 1
 415 234 l 1
 281 645 l 1
 145 234 l 1
EndSplineSet
EndChar

StartChar: uni0101
Encoding: 257 257 192
Width: 529
Flags: W
LayerCount: 2
Fore
SplineSet
367 679 m 1
 138 679 l 1
 138 718 l 1
 367 718 l 1
 367 679 l 1
420 113 m 2
 420 51 435 33 464 22 c 1
 453 -11 l 1
 410 0 385 24 380 80 c 1
 342 20 287 -11 215 -11 c 0
 115 -11 55 52 55 145 c 0
 55 253 138 312 267 312 c 2
 374 312 l 1
 374 367 l 2
 374 452 340 492 249 492 c 0
 205 492 158 481 107 461 c 1
 94 498 l 1
 150 520 200 532 253 532 c 0
 369 532 420 475 420 370 c 2
 420 113 l 2
221 28 m 0
 293 28 341 64 374 127 c 1
 374 276 l 1
 274 276 l 2
 167 276 104 234 104 146 c 0
 104 71 148 28 221 28 c 0
EndSplineSet
EndChar

StartChar: uni0102
Encoding: 258 258 193
Width: 562
Flags: W
LayerCount: 2
Fore
SplineSet
281 767 m 0
 215 767 167 808 158 859 c 1
 190 867 l 1
 203 831 234 806 281 806 c 0
 328 806 359 831 372 867 c 1
 404 859 l 1
 395 808 346 767 281 767 c 0
491 0 m 1
 428 192 l 1
 131 192 l 1
 68 0 l 1
 20 0 l 1
 251 684 l 1
 311 684 l 1
 542 0 l 1
 491 0 l 1
145 234 m 1
 415 234 l 1
 281 645 l 1
 145 234 l 1
EndSplineSet
EndChar

StartChar: uni0103
Encoding: 259 259 194
Width: 529
Flags: W
LayerCount: 2
Fore
SplineSet
252 656 m 0
 186 656 138 697 129 759 c 1
 161 766 l 1
 174 720 205 696 252 696 c 0
 299 696 330 720 343 766 c 1
 375 759 l 1
 366 697 317 656 252 656 c 0
420 113 m 2
 420 51 435 33 464 22 c 1
 453 -11 l 1
 410 0 385 24 380 81 c 1
 342 20 287 -11 215 -11 c 0
 115 -11 55 52 55 145 c 0
 55 253 138 312 267 312 c 2
 374 312 l 1
 374 367 l 2
 374 452 340 492 249 492 c 0
 205 492 158 481 107 461 c 1
 94 498 l 1
 150 520 200 532 253 532 c 0
 369 532 420 475 420 370 c 2
 420 113 l 2
221 28 m 0
 292 28 341 64 374 127 c 1
 374 276 l 1
 274 276 l 2
 167 276 104 234 104 146 c 0
 104 71 148 28 221 28 c 0
EndSplineSet
EndChar

StartChar: uni0104
Encoding: 260 260 195
Width: 562
Flags: W
LayerCount: 2
Fore
SplineSet
532 0 m 1
 448 -38 410 -68 410 -119 c 0
 410 -151 430 -172 475 -172 c 0
 494 -172 511 -170 532 -166 c 1
 528 -206 l 1
 508 -210 492 -213 471 -213 c 0
 400 -213 365 -174 365 -124 c 0
 365 -67 407 -27 488 9 c 1
 429 192 l 1
 131 192 l 1
 68 0 l 1
 20 0 l 1
 251 684 l 1
 311 684 l 1
 542 0 l 1
 532 0 l 1
145 234 m 1
 415 234 l 1
 281 645 l 1
 145 234 l 1
EndSplineSet
EndChar

StartChar: uni0105
Encoding: 261 261 196
Width: 529
Flags: W
LayerCount: 2
Fore
SplineSet
454 -11 m 1
 370 -49 332 -79 332 -130 c 0
 332 -162 352 -183 397 -183 c 0
 416 -183 433 -181 454 -177 c 1
 450 -217 l 1
 430 -221 414 -224 393 -224 c 0
 322 -224 287 -185 287 -135 c 0
 287 -76 332 -34 420 2 c 1
 397 17 384 40 380 80 c 1
 342 20 287 -11 215 -11 c 0
 115 -11 55 52 55 145 c 0
 55 253 138 312 267 312 c 2
 374 312 l 1
 374 367 l 2
 374 452 340 492 249 492 c 0
 205 492 158 481 107 461 c 1
 94 498 l 1
 150 520 200 532 253 532 c 0
 369 532 420 475 420 370 c 2
 420 113 l 2
 420 51 435 33 464 22 c 1
 453 -10 l 1
 454 -11 l 1
374 127 m 1
 374 276 l 1
 274 276 l 2
 167 276 104 234 104 146 c 0
 104 71 148 28 221 28 c 0
 293 28 341 64 374 127 c 1
EndSplineSet
EndChar

StartChar: uni0106
Encoding: 262 262 197
Width: 547
Flags: W
LayerCount: 2
Fore
SplineSet
424 880 m 1
 445 836 l 1
 253 759 l 1
 240 788 l 1
 424 880 l 1
344 694 m 0
 422 694 468 671 515 633 c 1
 489 601 l 1
 443 637 405 653 347 653 c 0
 222 653 120 564 120 342 c 0
 120 131 219 32 344 32 c 0
 416 32 456 57 497 90 c 1
 523 58 l 1
 480 19 424 -11 342 -11 c 0
 186 -11 70 112 70 342 c 0
 70 577 193 694 344 694 c 0
EndSplineSet
EndChar

StartChar: uni0107
Encoding: 263 263 198
Width: 466
Flags: W
LayerCount: 2
Fore
SplineSet
358 776 m 1
 379 732 l 1
 189 648 l 1
 174 676 l 1
 358 776 l 1
285 532 m 0
 342 532 385 517 428 481 c 1
 404 450 l 1
 371 477 336 492 287 492 c 0
 187 492 116 414 116 258 c 0
 116 104 186 30 286 30 c 0
 336 30 373 47 408 76 c 1
 432 45 l 1
 393 10 344 -11 286 -11 c 0
 154 -11 67 88 67 258 c 0
 67 426 153 532 285 532 c 0
EndSplineSet
EndChar

StartChar: uni010C
Encoding: 268 268 199
Width: 547
Flags: W
LayerCount: 2
Fore
SplineSet
463 880 m 1
 484 855 l 1
 357 757 l 1
 330 757 l 1
 202 855 l 1
 223 880 l 1
 344 801 l 1
 463 880 l 1
344 694 m 0
 422 694 468 671 515 633 c 1
 489 601 l 1
 443 637 405 653 347 653 c 0
 222 653 120 564 120 342 c 0
 120 131 219 32 344 32 c 0
 416 32 456 57 497 90 c 1
 523 58 l 1
 480 19 424 -11 342 -11 c 0
 186 -11 70 112 70 342 c 0
 70 577 193 694 344 694 c 0
EndSplineSet
EndChar

StartChar: uni010D
Encoding: 269 269 200
Width: 466
Flags: W
LayerCount: 2
Fore
SplineSet
404 763 m 1
 425 739 l 1
 298 635 l 1
 271 635 l 1
 143 739 l 1
 164 763 l 1
 285 679 l 1
 404 763 l 1
285 532 m 0
 342 532 385 517 428 481 c 1
 404 450 l 1
 371 477 336 492 287 492 c 0
 187 492 116 414 116 258 c 0
 116 104 186 30 286 30 c 0
 336 30 373 47 408 76 c 1
 432 45 l 1
 393 10 344 -11 286 -11 c 0
 154 -11 67 88 67 258 c 0
 67 426 153 532 285 532 c 0
EndSplineSet
EndChar

StartChar: uni010E
Encoding: 270 270 201
Width: 628
Flags: W
LayerCount: 2
Fore
SplineSet
418 880 m 1
 439 855 l 1
 312 757 l 1
 285 757 l 1
 157 855 l 1
 178 880 l 1
 299 801 l 1
 418 880 l 1
248 684 m 2
 401 684 558 629 558 348 c 0
 558 63 393 0 255 0 c 2
 115 0 l 1
 115 684 l 1
 248 684 l 2
251 643 m 2
 162 643 l 1
 162 41 l 1
 258 41 l 2
 380 41 508 96 508 348 c 0
 508 605 375 643 251 643 c 2
EndSplineSet
EndChar

StartChar: uni010F
Encoding: 271 271 202
Width: 577
Flags: W
LayerCount: 2
Fore
SplineSet
420 459 m 1
 420 741 l 1
 466 735 l 1
 466 0 l 1
 426 0 l 1
 421 82 l 1
 392 32 342 -11 261 -11 c 0
 142 -11 67 92 67 259 c 0
 67 420 143 532 271 532 c 0
 347 532 391 496 420 459 c 1
550 740 m 1
 596 735 l 1
 561 578 l 1
 532 582 l 1
 550 740 l 1
267 29 m 0
 341 29 384 67 420 133 c 1
 420 410 l 1
 389 456 345 493 277 493 c 0
 181 493 114 409 115 259 c 0
 116 111 174 29 267 29 c 0
EndSplineSet
EndChar

StartChar: uni0110
Encoding: 272 272 203
Width: 630
Flags: W
LayerCount: 2
Fore
SplineSet
250 684 m 2
 404 684 560 629 560 348 c 0
 560 63 396 0 258 0 c 2
 117 0 l 1
 117 332 l 1
 24 332 l 1
 24 372 l 1
 117 372 l 1
 117 684 l 1
 250 684 l 2
260 41 m 2
 382 41 510 96 510 348 c 0
 510 605 377 643 253 643 c 2
 165 643 l 1
 165 372 l 1
 346 372 l 1
 346 332 l 1
 165 332 l 1
 165 41 l 1
 260 41 l 2
EndSplineSet
EndChar

StartChar: uni0111
Encoding: 273 273 204
Width: 586
Flags: W
LayerCount: 2
Fore
SplineSet
466 658 m 1
 547 658 l 1
 547 620 l 1
 466 620 l 1
 466 0 l 1
 426 0 l 1
 421 82 l 1
 392 32 342 -11 261 -11 c 0
 142 -11 67 92 67 259 c 0
 67 420 143 532 271 532 c 0
 347 532 391 496 420 459 c 1
 420 620 l 1
 258 620 l 1
 258 658 l 1
 420 658 l 1
 420 741 l 1
 466 735 l 1
 466 658 l 1
267 29 m 0
 341 29 384 67 420 133 c 1
 420 410 l 1
 389 456 345 493 277 493 c 0
 181 493 114 409 115 259 c 0
 116 111 174 29 267 29 c 0
EndSplineSet
EndChar

StartChar: uni0112
Encoding: 274 274 205
Width: 504
Flags: W
LayerCount: 2
Fore
SplineSet
403 805 m 1
 174 805 l 1
 174 844 l 1
 403 844 l 1
 403 805 l 1
454 684 m 1
 448 643 l 1
 162 643 l 1
 162 377 l 1
 409 377 l 1
 409 336 l 1
 162 336 l 1
 162 41 l 1
 460 41 l 1
 460 0 l 1
 115 0 l 1
 115 684 l 1
 454 684 l 1
EndSplineSet
EndChar

StartChar: uni0113
Encoding: 275 275 206
Width: 531
Flags: W
LayerCount: 2
Fore
SplineSet
390 679 m 1
 161 679 l 1
 161 718 l 1
 390 718 l 1
 390 679 l 1
471 282 m 0
 471 266 470 251 469 241 c 1
 115 241 l 1
 122 93 192 30 286 30 c 0
 345 30 383 48 428 83 c 1
 451 53 l 1
 403 13 353 -11 284 -11 c 0
 150 -11 67 89 67 257 c 0
 67 425 147 532 272 532 c 0
 405 532 471 433 471 282 c 0
426 278 m 1
 426 297 l 2
 426 414 378 493 274 493 c 0
 189 493 120 428 115 278 c 1
 426 278 l 1
EndSplineSet
EndChar

StartChar: uni0116
Encoding: 278 278 207
Width: 504
Flags: W
LayerCount: 2
Fore
SplineSet
288 870 m 0
 310 870 324 854 324 835 c 0
 324 816 310 800 288 800 c 0
 266 800 252 816 252 835 c 0
 252 854 266 870 288 870 c 0
454 684 m 1
 448 643 l 1
 162 643 l 1
 162 377 l 1
 409 377 l 1
 409 336 l 1
 162 336 l 1
 162 41 l 1
 460 41 l 1
 460 0 l 1
 115 0 l 1
 115 684 l 1
 454 684 l 1
EndSplineSet
EndChar

StartChar: uni0117
Encoding: 279 279 208
Width: 531
Flags: W
LayerCount: 2
Fore
SplineSet
275 744 m 0
 297 744 311 728 311 709 c 0
 311 690 297 674 275 674 c 0
 253 674 239 690 239 709 c 0
 239 728 253 744 275 744 c 0
471 282 m 0
 471 266 470 251 469 241 c 1
 115 241 l 1
 122 93 192 30 286 30 c 0
 345 30 383 48 428 83 c 1
 451 53 l 1
 403 13 353 -11 284 -11 c 0
 150 -11 67 89 67 257 c 0
 67 425 147 532 272 532 c 0
 405 532 471 433 471 282 c 0
426 278 m 1
 426 297 l 2
 426 414 378 493 274 493 c 0
 189 493 120 428 115 278 c 1
 426 278 l 1
EndSplineSet
EndChar

StartChar: uni0118
Encoding: 280 280 209
Width: 504
Flags: W
LayerCount: 2
Fore
SplineSet
162 41 m 1
 460 41 l 1
 460 0 l 1
 432 0 l 1
 348 -38 310 -68 310 -119 c 0
 310 -151 330 -172 375 -172 c 0
 394 -172 411 -170 432 -166 c 1
 428 -206 l 1
 408 -210 392 -213 371 -213 c 0
 300 -213 265 -174 265 -124 c 0
 265 -72 300 -34 369 0 c 1
 115 0 l 1
 115 684 l 1
 454 684 l 1
 448 643 l 1
 162 643 l 1
 162 377 l 1
 409 377 l 1
 409 336 l 1
 162 336 l 1
 162 41 l 1
EndSplineSet
EndChar

StartChar: uni0119
Encoding: 281 281 210
Width: 531
Flags: W
LayerCount: 2
Fore
SplineSet
471 282 m 0
 471 266 470 251 469 241 c 1
 115 241 l 1
 122 93 192 30 286 30 c 0
 345 30 383 48 428 83 c 1
 451 53 l 1
 424 30 395 12 363 2 c 1
 285 -35 249 -65 249 -114 c 0
 249 -146 271 -167 316 -167 c 0
 335 -167 350 -165 372 -161 c 1
 367 -201 l 1
 347 -205 331 -208 311 -208 c 0
 239 -208 204 -169 204 -119 c 0
 204 -74 231 -39 285 -11 c 1
 284 -11 l 2
 150 -11 67 89 67 257 c 0
 67 425 147 532 272 532 c 0
 405 532 471 433 471 282 c 0
426 278 m 1
 426 297 l 2
 426 414 378 493 274 493 c 0
 189 493 120 428 115 278 c 1
 426 278 l 1
EndSplineSet
EndChar

StartChar: uni011A
Encoding: 282 282 211
Width: 504
Flags: W
LayerCount: 2
Fore
SplineSet
408 880 m 1
 429 855 l 1
 302 757 l 1
 275 757 l 1
 147 855 l 1
 168 880 l 1
 289 801 l 1
 408 880 l 1
454 684 m 1
 448 643 l 1
 162 643 l 1
 162 377 l 1
 409 377 l 1
 409 336 l 1
 162 336 l 1
 162 41 l 1
 460 41 l 1
 460 0 l 1
 115 0 l 1
 115 684 l 1
 454 684 l 1
EndSplineSet
EndChar

StartChar: uni011B
Encoding: 283 283 212
Width: 531
Flags: W
LayerCount: 2
Fore
SplineSet
289 635 m 1
 262 635 l 1
 134 739 l 1
 155 763 l 1
 276 679 l 1
 395 763 l 1
 416 739 l 1
 289 635 l 1
471 282 m 0
 471 266 470 251 469 241 c 1
 115 241 l 1
 122 93 192 30 286 30 c 0
 345 30 383 48 428 83 c 1
 451 53 l 1
 403 13 353 -11 284 -11 c 0
 150 -11 67 89 67 257 c 0
 67 425 147 532 272 532 c 0
 405 532 471 433 471 282 c 0
426 278 m 1
 426 297 l 2
 426 414 378 493 274 493 c 0
 189 493 121 429 115 278 c 1
 426 278 l 1
EndSplineSet
EndChar

StartChar: uni011E
Encoding: 286 286 213
Width: 614
Flags: W
LayerCount: 2
Fore
SplineSet
350 767 m 0
 284 767 236 808 227 859 c 1
 259 867 l 1
 272 831 303 806 350 806 c 0
 397 806 428 831 441 867 c 1
 473 859 l 1
 464 808 415 767 350 767 c 0
351 694 m 0
 428 694 478 673 533 629 c 1
 504 598 l 1
 456 636 412 653 351 653 c 0
 238 653 120 568 120 345 c 0
 120 131 211 31 351 31 c 0
 410 31 455 44 499 68 c 1
 499 324 l 1
 361 324 l 1
 355 365 l 1
 546 365 l 1
 546 44 l 1
 487 9 420 -11 351 -11 c 0
 183 -11 70 108 70 345 c 0
 70 582 209 694 351 694 c 0
EndSplineSet
EndChar

StartChar: uni011F
Encoding: 287 287 214
Width: 501
Flags: W
LayerCount: 2
Fore
SplineSet
249 656 m 0
 183 656 135 697 126 759 c 1
 158 766 l 1
 171 720 202 696 249 696 c 0
 296 696 327 720 340 766 c 1
 372 759 l 1
 363 697 314 656 249 656 c 0
471 562 m 1
 486 516 l 1
 453 506 409 502 344 501 c 1
 397 476 432 431 432 355 c 0
 432 254 362 185 247 185 c 0
 222 185 198 189 178 196 c 1
 151 181 134 158 134 132 c 0
 134 99 156 74 222 74 c 2
 308 74 l 2
 410 74 471 21 471 -55 c 0
 471 -147 400 -203 251 -203 c 0
 98 -203 36 -159 36 -56 c 1
 80 -56 l 1
 81 -134 122 -163 251 -163 c 0
 375 -163 424 -123 424 -58 c 0
 424 0 378 33 301 33 c 2
 216 33 l 2
 132 33 89 73 89 123 c 0
 89 158 111 188 146 210 c 1
 87 241 59 287 59 358 c 0
 59 462 132 532 246 532 c 0
 390 531 424 543 471 562 c 1
247 495 m 0
 151 495 106 438 106 358 c 0
 106 269 163 221 246 221 c 0
 335 221 385 270 385 356 c 0
 385 440 340 495 247 495 c 0
EndSplineSet
EndChar

StartChar: uni0122
Encoding: 290 290 215
Width: 614
Flags: W
LayerCount: 2
Fore
SplineSet
351 694 m 0
 428 694 478 673 533 629 c 1
 504 598 l 1
 456 636 412 653 351 653 c 0
 238 653 120 568 120 345 c 0
 120 131 211 31 351 31 c 0
 410 31 455 44 499 68 c 1
 499 324 l 1
 361 324 l 1
 355 365 l 1
 546 365 l 1
 546 44 l 1
 487 9 420 -11 351 -11 c 0
 183 -11 70 108 70 345 c 0
 70 582 209 694 351 694 c 0
337 -87 m 0
 362 -87 377 -104 377 -125 c 0
 377 -141 372 -153 356 -187 c 2
 316 -273 l 1
 287 -273 l 1
 320 -159 l 1
 306 -152 299 -142 299 -125 c 0
 299 -104 315 -87 337 -87 c 0
EndSplineSet
EndChar

StartChar: uni0123
Encoding: 291 291 216
Width: 501
Flags: W
LayerCount: 2
Fore
SplineSet
244 590 m 0
 220 590 205 607 205 628 c 0
 205 644 210 656 226 690 c 2
 265 776 l 1
 295 776 l 1
 262 662 l 1
 275 655 283 645 283 628 c 0
 283 607 267 590 244 590 c 0
471 562 m 1
 486 516 l 1
 453 506 409 502 344 501 c 1
 397 476 432 431 432 355 c 0
 432 254 362 185 247 185 c 0
 222 185 198 189 178 196 c 1
 151 181 134 158 134 132 c 0
 134 99 156 74 222 74 c 2
 308 74 l 2
 410 74 471 21 471 -55 c 0
 471 -147 400 -203 251 -203 c 0
 98 -203 36 -159 36 -56 c 1
 80 -56 l 1
 81 -134 122 -163 251 -163 c 0
 375 -163 424 -123 424 -58 c 0
 424 0 378 33 301 33 c 2
 216 33 l 2
 132 33 89 73 89 123 c 0
 89 158 111 188 146 210 c 1
 87 241 59 287 59 358 c 0
 59 462 132 532 246 532 c 0
 390 531 424 543 471 562 c 1
247 495 m 0
 151 495 106 438 106 358 c 0
 106 269 163 221 246 221 c 0
 335 221 385 270 385 356 c 0
 385 440 340 495 247 495 c 0
EndSplineSet
EndChar

StartChar: uni012A
Encoding: 298 298 217
Width: 277
Flags: W
LayerCount: 2
Fore
SplineSet
252 805 m 1
 23 805 l 1
 23 844 l 1
 252 844 l 1
 252 805 l 1
162 684 m 1
 162 0 l 1
 115 0 l 1
 115 684 l 1
 162 684 l 1
EndSplineSet
EndChar

StartChar: uni012B
Encoding: 299 299 218
Width: 264
Flags: W
LayerCount: 2
Fore
SplineSet
246 679 m 1
 17 679 l 1
 17 718 l 1
 246 718 l 1
 246 679 l 1
155 522 m 1
 155 0 l 1
 109 0 l 1
 109 522 l 1
 155 522 l 1
EndSplineSet
EndChar

StartChar: uni012E
Encoding: 302 302 219
Width: 277
Flags: W
LayerCount: 2
Fore
SplineSet
41 -119 m 0
 41 -151 61 -172 106 -172 c 0
 125 -172 142 -170 163 -166 c 1
 159 -206 l 1
 139 -210 123 -213 102 -213 c 0
 31 -213 -4 -174 -4 -124 c 0
 -4 -68 37 -28 115 7 c 1
 115 684 l 1
 162 684 l 1
 162 2 l 1
 163 0 l 1
 79 -38 41 -68 41 -119 c 0
EndSplineSet
EndChar

StartChar: uni012F
Encoding: 303 303 220
Width: 264
Flags: W
LayerCount: 2
Fore
SplineSet
132 744 m 0
 154 744 168 728 168 709 c 0
 168 690 154 674 132 674 c 0
 110 674 96 690 96 709 c 0
 96 728 110 744 132 744 c 0
109 8 m 1
 109 522 l 1
 155 522 l 1
 155 0 l 1
 71 -38 33 -68 33 -119 c 0
 33 -151 53 -172 98 -172 c 0
 117 -172 134 -170 155 -166 c 1
 151 -206 l 1
 131 -210 115 -213 94 -213 c 0
 23 -213 -12 -174 -12 -124 c 0
 -12 -68 29 -27 109 8 c 1
EndSplineSet
EndChar

StartChar: uni0130
Encoding: 304 304 221
Width: 277
Flags: W
LayerCount: 2
Fore
SplineSet
138 870 m 0
 160 870 174 854 174 835 c 0
 174 816 160 800 138 800 c 0
 116 800 102 816 102 835 c 0
 102 854 116 870 138 870 c 0
162 684 m 1
 162 0 l 1
 115 0 l 1
 115 684 l 1
 162 684 l 1
EndSplineSet
EndChar

StartChar: uni0131
Encoding: 305 305 222
Width: 264
Flags: W
LayerCount: 2
Fore
SplineSet
155 522 m 1
 155 0 l 1
 109 0 l 1
 109 522 l 1
 155 522 l 1
EndSplineSet
EndChar

StartChar: uni0136
Encoding: 310 310 223
Width: 533
Flags: W
LayerCount: 2
Fore
SplineSet
162 684 m 1
 162 0 l 1
 115 0 l 1
 115 684 l 1
 162 684 l 1
516 684 m 1
 224 369 l 1
 533 0 l 1
 474 0 l 1
 166 367 l 1
 461 684 l 1
 516 684 l 1
302 -87 m 0
 327 -87 342 -104 342 -125 c 0
 342 -141 337 -153 321 -187 c 2
 281 -273 l 1
 252 -273 l 1
 285 -159 l 1
 271 -152 264 -142 264 -125 c 0
 264 -104 280 -87 302 -87 c 0
EndSplineSet
EndChar

StartChar: uni0137
Encoding: 311 311 224
Width: 479
Flags: W
LayerCount: 2
Fore
SplineSet
155 741 m 1
 155 0 l 1
 109 0 l 1
 109 735 l 1
 155 741 l 1
445 522 m 1
 216 287 l 1
 468 0 l 1
 412 0 l 1
 161 285 l 1
 390 522 l 1
 445 522 l 1
264 -87 m 0
 289 -87 304 -104 304 -125 c 0
 304 -141 299 -153 283 -187 c 2
 243 -273 l 1
 214 -273 l 1
 247 -159 l 1
 233 -152 226 -142 226 -125 c 0
 226 -104 242 -87 264 -87 c 0
EndSplineSet
EndChar

StartChar: uni0139
Encoding: 313 313 225
Width: 470
Flags: W
LayerCount: 2
Fore
SplineSet
220 880 m 1
 241 836 l 1
 49 759 l 1
 36 788 l 1
 220 880 l 1
162 684 m 1
 162 44 l 1
 450 44 l 1
 443 0 l 1
 115 0 l 1
 115 684 l 1
 162 684 l 1
EndSplineSet
EndChar

StartChar: uni013A
Encoding: 314 314 226
Width: 289
Flags: W
LayerCount: 2
Fore
SplineSet
208 931 m 1
 229 887 l 1
 37 810 l 1
 24 839 l 1
 208 931 l 1
190 -11 m 0
 139 -11 104 19 104 82 c 2
 104 735 l 1
 150 741 l 1
 150 84 l 2
 150 48 165 30 195 30 c 0
 208 30 221 33 232 37 c 1
 245 2 l 1
 230 -5 210 -11 190 -11 c 0
EndSplineSet
EndChar

StartChar: uni013B
Encoding: 315 315 227
Width: 470
Flags: W
LayerCount: 2
Fore
SplineSet
162 684 m 1
 162 44 l 1
 450 44 l 1
 443 0 l 1
 115 0 l 1
 115 684 l 1
 162 684 l 1
280 -87 m 0
 305 -87 320 -104 320 -125 c 0
 320 -141 315 -153 299 -187 c 2
 259 -273 l 1
 230 -273 l 1
 263 -159 l 1
 249 -152 242 -142 242 -125 c 0
 242 -104 258 -87 280 -87 c 0
EndSplineSet
EndChar

StartChar: uni013C
Encoding: 316 316 228
Width: 289
Flags: W
LayerCount: 2
Fore
SplineSet
190 -11 m 0
 139 -11 104 19 104 82 c 2
 104 735 l 1
 150 741 l 1
 150 84 l 2
 150 48 165 30 195 30 c 0
 208 30 221 33 232 37 c 1
 245 2 l 1
 230 -5 210 -11 190 -11 c 0
177 -87 m 0
 202 -87 217 -104 217 -125 c 0
 217 -141 212 -153 196 -187 c 2
 156 -273 l 1
 127 -273 l 1
 160 -159 l 1
 146 -152 139 -142 139 -125 c 0
 139 -104 155 -87 177 -87 c 0
EndSplineSet
EndChar

StartChar: uni013D
Encoding: 317 317 229
Width: 470
Flags: W
LayerCount: 2
Fore
SplineSet
258 527 m 1
 294 683 l 1
 248 689 l 1
 229 531 l 1
 258 527 l 1
162 684 m 1
 162 44 l 1
 450 44 l 1
 443 0 l 1
 115 0 l 1
 115 684 l 1
 162 684 l 1
EndSplineSet
EndChar

StartChar: uni013E
Encoding: 318 318 230
Width: 289
Flags: W
LayerCount: 2
Fore
SplineSet
190 -11 m 0
 139 -11 104 19 104 82 c 2
 104 735 l 1
 150 741 l 1
 150 84 l 2
 150 48 165 30 195 30 c 0
 208 30 221 33 232 37 c 1
 245 2 l 1
 230 -5 210 -11 190 -11 c 0
244 578 m 1
 279 734 l 1
 233 740 l 1
 214 582 l 1
 244 578 l 1
EndSplineSet
EndChar

StartChar: uni0141
Encoding: 321 321 231
Width: 478
Flags: W
LayerCount: 2
Fore
SplineSet
171 44 m 1
 458 44 l 1
 451 0 l 1
 123 0 l 1
 123 290 l 1
 56 248 l 1
 37 280 l 1
 123 333 l 1
 123 684 l 1
 171 684 l 1
 171 363 l 1
 359 481 l 1
 379 449 l 1
 171 320 l 1
 171 44 l 1
EndSplineSet
EndChar

StartChar: uni0142
Encoding: 322 322 232
Width: 295
Flags: W
LayerCount: 2
Fore
SplineSet
201 30 m 0
 215 30 228 33 239 37 c 1
 252 2 l 1
 237 -5 217 -11 197 -11 c 0
 146 -11 111 19 111 82 c 2
 111 329 l 1
 52 293 l 1
 33 324 l 1
 111 372 l 1
 111 735 l 1
 157 741 l 1
 157 400 l 1
 258 462 l 1
 276 431 l 1
 157 358 l 1
 157 84 l 2
 157 48 171 30 201 30 c 0
EndSplineSet
EndChar

StartChar: uni0143
Encoding: 323 323 233
Width: 669
Flags: W
LayerCount: 2
Fore
SplineSet
424 880 m 1
 445 836 l 1
 253 759 l 1
 240 788 l 1
 424 880 l 1
554 684 m 1
 554 0 l 1
 493 0 l 1
 154 631 l 1
 157 587 160 528 160 407 c 2
 160 0 l 1
 115 0 l 1
 115 684 l 1
 176 684 l 1
 515 53 l 1
 513 86 509 163 509 253 c 2
 509 684 l 1
 554 684 l 1
EndSplineSet
EndChar

StartChar: uni0144
Encoding: 324 324 234
Width: 581
Flags: W
LayerCount: 2
Fore
SplineSet
391 732 m 1
 201 648 l 1
 186 676 l 1
 370 776 l 1
 391 732 l 1
334 532 m 0
 429 532 477 474 477 372 c 2
 477 0 l 1
 431 0 l 1
 431 366 l 2
 431 455 396 494 328 494 c 0
 252 494 200 447 155 381 c 1
 155 0 l 1
 109 0 l 1
 109 522 l 1
 149 522 l 1
 153 429 l 1
 197 490 257 532 334 532 c 0
EndSplineSet
EndChar

StartChar: uni0145
Encoding: 325 325 235
Width: 669
Flags: W
LayerCount: 2
Fore
SplineSet
554 684 m 1
 554 0 l 1
 493 0 l 1
 154 631 l 1
 157 587 160 528 160 407 c 2
 160 0 l 1
 115 0 l 1
 115 684 l 1
 176 684 l 1
 515 53 l 1
 513 86 509 163 509 253 c 2
 509 684 l 1
 554 684 l 1
333 -87 m 0
 358 -87 373 -104 373 -125 c 0
 373 -141 368 -153 352 -187 c 2
 312 -273 l 1
 283 -273 l 1
 316 -159 l 1
 302 -152 295 -142 295 -125 c 0
 295 -104 311 -87 333 -87 c 0
EndSplineSet
EndChar

StartChar: uni0146
Encoding: 326 326 236
Width: 581
Flags: W
LayerCount: 2
Fore
SplineSet
334 532 m 0
 429 532 477 474 477 372 c 2
 477 0 l 1
 431 0 l 1
 431 366 l 2
 431 455 396 494 328 494 c 0
 252 494 200 447 155 381 c 1
 155 0 l 1
 109 0 l 1
 109 522 l 1
 149 522 l 1
 153 429 l 1
 197 490 257 532 334 532 c 0
289 -87 m 0
 314 -87 329 -104 329 -125 c 0
 329 -141 324 -153 308 -187 c 2
 268 -273 l 1
 239 -273 l 1
 272 -159 l 1
 258 -152 251 -142 251 -125 c 0
 251 -104 267 -87 289 -87 c 0
EndSplineSet
EndChar

StartChar: uni0147
Encoding: 327 327 237
Width: 669
Flags: W
LayerCount: 2
Fore
SplineSet
462 880 m 1
 483 855 l 1
 356 757 l 1
 329 757 l 1
 201 855 l 1
 222 880 l 1
 343 801 l 1
 462 880 l 1
554 684 m 1
 554 0 l 1
 493 0 l 1
 154 631 l 1
 157 587 160 528 160 407 c 2
 160 0 l 1
 115 0 l 1
 115 684 l 1
 176 684 l 1
 515 53 l 1
 513 86 509 163 509 253 c 2
 509 684 l 1
 554 684 l 1
EndSplineSet
EndChar

StartChar: uni0148
Encoding: 328 328 238
Width: 581
Flags: W
LayerCount: 2
Fore
SplineSet
310 635 m 1
 283 635 l 1
 155 739 l 1
 176 763 l 1
 297 679 l 1
 416 763 l 1
 437 739 l 1
 310 635 l 1
334 532 m 0
 429 532 477 474 477 372 c 2
 477 0 l 1
 431 0 l 1
 431 366 l 2
 431 455 396 494 328 494 c 0
 252 494 200 447 155 381 c 1
 155 0 l 1
 109 0 l 1
 109 522 l 1
 149 522 l 1
 153 429 l 1
 197 490 257 532 334 532 c 0
EndSplineSet
EndChar

StartChar: uni014C
Encoding: 332 332 239
Width: 691
Flags: W
LayerCount: 2
Fore
SplineSet
460 805 m 1
 231 805 l 1
 231 844 l 1
 460 844 l 1
 460 805 l 1
345 694 m 0
 509 694 621 572 621 341 c 0
 621 117 513 -11 345 -11 c 0
 182 -11 70 113 70 340 c 0
 70 566 183 694 345 694 c 0
345 653 m 0
 211 653 120 551 120 340 c 0
 120 133 212 31 345 31 c 0
 485 31 571 133 571 341 c 0
 571 552 482 653 345 653 c 0
EndSplineSet
EndChar

StartChar: uni014D
Encoding: 333 333 240
Width: 567
Flags: W
LayerCount: 2
Fore
SplineSet
398 679 m 1
 169 679 l 1
 169 718 l 1
 398 718 l 1
 398 679 l 1
284 532 m 0
 419 532 500 435 500 263 c 0
 500 92 417 -11 283 -11 c 0
 148 -11 67 92 67 260 c 0
 67 430 151 532 284 532 c 0
284 492 m 0
 181 492 115 414 115 260 c 0
 115 110 178 29 283 29 c 0
 387 29 452 109 452 263 c 0
 452 414 390 492 284 492 c 0
EndSplineSet
EndChar

StartChar: uni0150
Encoding: 336 336 241
Width: 691
Flags: W
LayerCount: 2
Fore
SplineSet
363 901 m 1
 399 876 l 1
 286 731 l 1
 261 747 l 1
 363 901 l 1
490 892 m 1
 526 865 l 1
 404 726 l 1
 381 743 l 1
 490 892 l 1
345 694 m 0
 509 694 621 572 621 341 c 0
 621 117 513 -11 345 -11 c 0
 182 -11 70 113 70 340 c 0
 70 566 183 694 345 694 c 0
345 653 m 0
 211 653 120 551 120 340 c 0
 120 133 212 31 345 31 c 0
 485 31 571 133 571 341 c 0
 571 552 482 653 345 653 c 0
EndSplineSet
EndChar

StartChar: uni0151
Encoding: 337 337 242
Width: 567
Flags: W
LayerCount: 2
Fore
SplineSet
307 778 m 1
 343 753 l 1
 230 598 l 1
 205 614 l 1
 307 778 l 1
434 769 m 1
 470 741 l 1
 348 593 l 1
 325 610 l 1
 434 769 l 1
284 532 m 0
 419 532 500 435 500 263 c 0
 500 92 417 -11 283 -11 c 0
 148 -11 67 92 67 260 c 0
 67 430 151 532 284 532 c 0
284 492 m 0
 181 492 115 414 115 260 c 0
 115 110 178 29 283 29 c 0
 387 29 452 109 452 263 c 0
 452 414 390 492 284 492 c 0
EndSplineSet
EndChar

StartChar: uni0152
Encoding: 338 338 243
Width: 861
Flags: W
LayerCount: 2
Fore
SplineSet
817 41 m 1
 817 0 l 1
 403 0 l 1
 381 -7 358 -11 334 -11 c 0
 182 -11 70 113 70 340 c 0
 70 566 183 694 334 694 c 0
 359 694 382 691 404 684 c 1
 811 684 l 1
 805 643 l 1
 480 643 l 1
 552 593 595 502 600 377 c 1
 766 377 l 1
 766 336 l 1
 601 336 l 1
 599 193 554 93 478 41 c 1
 817 41 l 1
120 340 m 0
 120 133 212 31 335 31 c 0
 465 31 551 133 551 348 c 0
 551 552 462 653 335 653 c 0
 211 653 120 551 120 340 c 0
EndSplineSet
EndChar

StartChar: uni0153
Encoding: 339 339 244
Width: 916
Flags: W
LayerCount: 2
Fore
SplineSet
857 282 m 0
 857 266 856 251 855 241 c 1
 500 241 l 1
 507 93 577 30 671 30 c 0
 730 30 768 48 813 83 c 1
 836 53 l 1
 789 13 738 -11 669 -11 c 0
 575 -11 508 42 475 130 c 1
 442 43 376 -11 283 -11 c 0
 148 -11 67 92 67 260 c 0
 67 430 151 532 284 532 c 0
 379 532 444 480 477 393 c 1
 509 478 572 532 659 532 c 0
 790 532 857 433 857 282 c 0
811 278 m 1
 811 297 l 2
 811 414 763 493 661 493 c 0
 575 493 506 429 500 278 c 1
 811 278 l 1
283 29 m 0
 387 29 452 109 452 263 c 0
 452 414 390 492 284 492 c 0
 181 492 115 414 115 260 c 0
 115 110 178 29 283 29 c 0
EndSplineSet
EndChar

StartChar: uni0154
Encoding: 340 340 245
Width: 584
Flags: W
LayerCount: 2
Fore
SplineSet
391 836 m 1
 199 759 l 1
 186 788 l 1
 370 880 l 1
 391 836 l 1
491 0 m 1
 310 313 l 1
 162 313 l 1
 162 0 l 1
 115 0 l 1
 115 684 l 1
 276 684 l 2
 438 684 513 619 513 501 c 0
 513 397 455 344 359 321 c 1
 548 0 l 1
 491 0 l 1
162 353 m 1
 283 353 l 2
 397 353 463 398 463 501 c 0
 463 594 411 643 273 643 c 2
 162 643 l 1
 162 353 l 1
EndSplineSet
EndChar

StartChar: uni0155
Encoding: 341 341 246
Width: 368
Flags: W
LayerCount: 2
Fore
SplineSet
325 732 m 1
 135 648 l 1
 120 676 l 1
 304 776 l 1
 325 732 l 1
302 532 m 0
 325 532 342 530 354 526 c 1
 346 483 l 1
 332 487 317 489 300 489 c 0
 225 489 184 435 155 326 c 1
 155 0 l 1
 109 0 l 1
 109 522 l 1
 149 522 l 1
 152 401 l 1
 180 489 227 532 302 532 c 0
EndSplineSet
EndChar

StartChar: uni0156
Encoding: 342 342 247
Width: 584
Flags: W
LayerCount: 2
Fore
SplineSet
359 321 m 1
 548 0 l 1
 491 0 l 1
 310 313 l 1
 162 313 l 1
 162 0 l 1
 115 0 l 1
 115 684 l 1
 276 684 l 2
 438 684 513 619 513 501 c 0
 513 397 455 344 359 321 c 1
162 353 m 1
 283 353 l 2
 397 353 463 398 463 501 c 0
 463 594 411 643 273 643 c 2
 162 643 l 1
 162 353 l 1
304 -87 m 0
 329 -87 344 -104 344 -125 c 0
 344 -141 339 -153 323 -187 c 2
 283 -273 l 1
 254 -273 l 1
 287 -159 l 1
 273 -152 266 -142 266 -125 c 0
 266 -104 282 -87 304 -87 c 0
EndSplineSet
EndChar

StartChar: uni0157
Encoding: 343 343 248
Width: 368
Flags: W
LayerCount: 2
Fore
SplineSet
302 532 m 0
 325 532 342 530 354 526 c 1
 346 483 l 1
 332 487 317 489 300 489 c 0
 225 489 184 435 155 326 c 1
 155 0 l 1
 109 0 l 1
 109 522 l 1
 149 522 l 1
 152 401 l 1
 180 489 227 532 302 532 c 0
131 -87 m 0
 156 -87 171 -104 171 -125 c 0
 171 -141 166 -153 150 -187 c 2
 110 -273 l 1
 81 -273 l 1
 114 -159 l 1
 100 -152 93 -142 93 -125 c 0
 93 -104 109 -87 131 -87 c 0
EndSplineSet
EndChar

StartChar: uni0158
Encoding: 344 344 249
Width: 584
Flags: W
LayerCount: 2
Fore
SplineSet
302 757 m 1
 275 757 l 1
 147 855 l 1
 168 880 l 1
 289 801 l 1
 408 880 l 1
 429 855 l 1
 302 757 l 1
491 0 m 1
 310 313 l 1
 162 313 l 1
 162 0 l 1
 115 0 l 1
 115 684 l 1
 276 684 l 2
 438 684 513 619 513 501 c 0
 513 397 455 344 359 321 c 1
 548 0 l 1
 491 0 l 1
162 353 m 1
 283 353 l 2
 397 353 463 398 463 501 c 0
 463 594 411 643 273 643 c 2
 162 643 l 1
 162 353 l 1
EndSplineSet
EndChar

StartChar: uni0159
Encoding: 345 345 250
Width: 368
Flags: W
LayerCount: 2
Fore
SplineSet
244 635 m 1
 217 635 l 1
 89 739 l 1
 110 763 l 1
 231 679 l 1
 350 763 l 1
 371 739 l 1
 244 635 l 1
152 401 m 1
 180 489 227 532 302 532 c 0
 325 532 342 530 354 526 c 1
 346 483 l 1
 332 487 317 489 300 489 c 0
 225 489 184 435 155 326 c 1
 155 0 l 1
 109 0 l 1
 109 522 l 1
 149 522 l 1
 152 401 l 1
EndSplineSet
EndChar

StartChar: uni015A
Encoding: 346 346 251
Width: 537
Flags: W
LayerCount: 2
Fore
SplineSet
351 880 m 1
 372 836 l 1
 180 759 l 1
 167 788 l 1
 351 880 l 1
266 694 m 0
 353 694 405 666 457 620 c 1
 429 589 l 1
 378 634 332 653 267 653 c 0
 178 653 119 604 119 531 c 0
 119 456 160 423 282 386 c 0
 410 347 478 302 478 185 c 0
 478 69 390 -11 258 -11 c 0
 166 -11 99 22 44 74 c 1
 72 105 l 1
 122 60 175 31 257 31 c 0
 358 31 430 88 430 184 c 0
 430 272 387 308 263 346 c 0
 125 388 71 435 71 530 c 0
 71 624 149 694 266 694 c 0
EndSplineSet
EndChar

StartChar: uni015B
Encoding: 347 347 252
Width: 455
Flags: W
LayerCount: 2
Fore
SplineSet
308 776 m 1
 329 732 l 1
 139 648 l 1
 124 676 l 1
 308 776 l 1
229 532 m 0
 293 532 343 513 392 475 c 1
 368 444 l 1
 323 477 285 493 231 493 c 0
 158 493 108 457 108 398 c 0
 108 344 143 320 239 294 c 0
 355 263 405 227 405 138 c 0
 405 46 327 -11 223 -11 c 0
 139 -11 85 18 40 56 c 1
 66 86 l 1
 112 50 155 29 223 29 c 0
 301 29 357 68 357 137 c 0
 357 204 327 228 216 258 c 0
 105 287 60 326 60 398 c 0
 60 477 133 532 229 532 c 0
EndSplineSet
EndChar

StartChar: uni015E
Encoding: 350 350 253
Width: 537
Flags: W
LayerCount: 2
Fore
SplineSet
478 185 m 0
 478 74 397 -4 274 -11 c 1
 274 -67 l 1
 338 -72 366 -99 366 -140 c 0
 366 -193 320 -222 267 -222 c 0
 234 -222 209 -213 191 -202 c 1
 207 -172 l 1
 222 -180 240 -187 266 -187 c 0
 297 -187 323 -172 323 -140 c 0
 323 -110 297 -95 234 -95 c 1
 241 -11 l 1
 158 -7 96 25 44 74 c 1
 72 105 l 1
 122 60 175 31 257 31 c 0
 358 31 430 88 430 184 c 0
 430 272 387 308 263 346 c 0
 125 388 71 435 71 530 c 0
 71 624 149 694 266 694 c 0
 353 694 405 666 457 620 c 1
 429 589 l 1
 378 634 332 653 267 653 c 0
 178 653 119 604 119 531 c 0
 119 456 160 423 282 386 c 0
 410 347 478 302 478 185 c 0
EndSplineSet
EndChar

StartChar: uni015F
Encoding: 351 351 254
Width: 455
Flags: W
LayerCount: 2
Fore
SplineSet
405 138 m 0
 405 51 335 -5 239 -11 c 1
 239 -67 l 1
 303 -72 331 -99 331 -140 c 0
 331 -193 285 -222 232 -222 c 0
 199 -222 174 -213 156 -202 c 1
 172 -172 l 1
 187 -180 205 -187 231 -187 c 0
 262 -187 288 -172 288 -140 c 0
 288 -110 262 -95 199 -95 c 1
 206 -11 l 1
 132 -7 82 21 40 56 c 1
 66 86 l 1
 112 50 155 29 223 29 c 0
 301 29 357 68 357 137 c 0
 357 204 327 228 216 258 c 0
 105 287 60 326 60 398 c 0
 60 477 133 532 229 532 c 0
 293 532 343 513 392 475 c 1
 368 444 l 1
 323 477 285 493 231 493 c 0
 158 493 108 457 108 398 c 0
 108 344 143 320 239 294 c 0
 355 263 405 227 405 138 c 0
EndSplineSet
EndChar

StartChar: uni0160
Encoding: 352 352 255
Width: 537
Flags: W
LayerCount: 2
Fore
SplineSet
390 880 m 1
 411 855 l 1
 284 757 l 1
 257 757 l 1
 129 855 l 1
 150 880 l 1
 271 801 l 1
 390 880 l 1
266 694 m 0
 353 694 405 666 457 620 c 1
 429 589 l 1
 378 634 332 653 267 653 c 0
 178 653 119 604 119 531 c 0
 119 456 160 423 282 386 c 0
 410 347 478 302 478 185 c 0
 478 69 390 -11 258 -11 c 0
 166 -11 99 22 44 74 c 1
 72 105 l 1
 122 60 175 31 257 31 c 0
 358 31 430 88 430 184 c 0
 430 272 387 308 263 346 c 0
 125 388 71 435 71 530 c 0
 71 624 149 694 266 694 c 0
EndSplineSet
EndChar

StartChar: uni0161
Encoding: 353 353 256
Width: 455
Flags: W
LayerCount: 2
Fore
SplineSet
353 763 m 1
 374 739 l 1
 247 635 l 1
 220 635 l 1
 92 739 l 1
 113 763 l 1
 234 679 l 1
 353 763 l 1
229 532 m 0
 293 532 343 513 392 475 c 1
 368 444 l 1
 323 477 285 493 231 493 c 0
 158 493 108 457 108 398 c 0
 108 344 143 320 239 294 c 0
 355 263 405 227 405 138 c 0
 405 46 327 -11 223 -11 c 0
 139 -11 85 18 40 56 c 1
 66 86 l 1
 112 50 155 29 223 29 c 0
 301 29 357 68 357 137 c 0
 357 204 327 228 216 258 c 0
 105 287 60 326 60 398 c 0
 60 477 133 532 229 532 c 0
EndSplineSet
EndChar

StartChar: uni0162
Encoding: 354 354 257
Width: 487
Flags: W
LayerCount: 2
Fore
SplineSet
471 641 m 1
 267 641 l 1
 267 16 l 1
 268 16 l 1
 268 -67 l 1
 331 -72 360 -99 360 -140 c 0
 360 -193 314 -222 260 -222 c 0
 227 -222 203 -213 185 -202 c 1
 201 -172 l 1
 216 -180 234 -187 259 -187 c 0
 291 -187 317 -172 317 -140 c 0
 317 -110 291 -95 228 -95 c 1
 236 0 l 1
 220 0 l 1
 220 641 l 1
 15 641 l 1
 15 684 l 1
 477 684 l 1
 471 641 l 1
EndSplineSet
EndChar

StartChar: uni0163
Encoding: 355 355 258
Width: 338
Flags: W
LayerCount: 2
Fore
SplineSet
237 -67 m 1
 301 -72 329 -99 329 -140 c 0
 329 -193 283 -222 230 -222 c 0
 197 -222 172 -213 154 -202 c 1
 170 -172 l 1
 185 -180 203 -187 229 -187 c 0
 260 -187 286 -172 286 -140 c 0
 286 -110 260 -95 197 -95 c 1
 204 -9 l 1
 144 1 108 45 108 123 c 2
 108 483 l 1
 21 483 l 1
 21 522 l 1
 108 522 l 1
 108 649 l 1
 154 654 l 1
 154 522 l 1
 292 522 l 1
 286 483 l 1
 154 483 l 1
 154 126 l 2
 154 62 180 30 235 30 c 0
 266 30 293 39 319 54 c 1
 338 21 l 1
 309 2 276 -10 237 -11 c 1
 237 -67 l 1
EndSplineSet
EndChar

StartChar: uni0164
Encoding: 356 356 259
Width: 487
Flags: W
LayerCount: 2
Fore
SplineSet
364 880 m 1
 385 855 l 1
 258 757 l 1
 231 757 l 1
 103 855 l 1
 124 880 l 1
 245 801 l 1
 364 880 l 1
477 684 m 1
 471 641 l 1
 267 641 l 1
 267 0 l 1
 220 0 l 1
 220 641 l 1
 15 641 l 1
 15 684 l 1
 477 684 l 1
EndSplineSet
EndChar

StartChar: uni0165
Encoding: 357 357 260
Width: 338
Flags: W
LayerCount: 2
Fore
SplineSet
269 738 m 1
 234 582 l 1
 204 586 l 1
 223 744 l 1
 269 738 l 1
319 54 m 1
 338 21 l 1
 307 1 272 -11 230 -11 c 0
 155 -11 108 34 108 123 c 2
 108 483 l 1
 21 483 l 1
 21 522 l 1
 108 522 l 1
 108 649 l 1
 154 654 l 1
 154 522 l 1
 292 522 l 1
 286 483 l 1
 154 483 l 1
 154 126 l 2
 154 62 180 30 235 30 c 0
 266 30 293 39 319 54 c 1
EndSplineSet
EndChar

StartChar: uni016A
Encoding: 362 362 261
Width: 648
Flags: W
LayerCount: 2
Fore
SplineSet
439 805 m 1
 210 805 l 1
 210 844 l 1
 439 844 l 1
 439 805 l 1
543 684 m 1
 543 211 l 2
 543 82 473 -11 324 -11 c 0
 174 -11 105 82 105 211 c 2
 105 684 l 1
 152 684 l 1
 152 215 l 2
 152 103 204 32 324 32 c 0
 445 32 495 105 495 215 c 2
 495 684 l 1
 543 684 l 1
EndSplineSet
EndChar

StartChar: uni016B
Encoding: 363 363 262
Width: 576
Flags: W
LayerCount: 2
Fore
SplineSet
400 679 m 1
 171 679 l 1
 171 718 l 1
 400 718 l 1
 400 679 l 1
467 522 m 1
 467 0 l 1
 428 0 l 1
 425 97 l 1
 390 35 335 -11 252 -11 c 0
 158 -11 104 46 104 149 c 2
 104 522 l 1
 150 522 l 1
 150 153 l 2
 150 66 189 29 261 29 c 0
 334 29 383 76 421 141 c 1
 421 522 l 1
 467 522 l 1
EndSplineSet
EndChar

StartChar: uni016E
Encoding: 366 366 263
Width: 648
Flags: W
LayerCount: 2
Fore
SplineSet
324 941 m 0
 379 941 417 905 417 852 c 0
 417 798 379 762 324 762 c 0
 269 762 231 798 231 852 c 0
 231 905 269 941 324 941 c 0
324 911 m 0
 288 911 268 889 268 852 c 0
 268 814 288 793 324 793 c 0
 360 793 380 814 380 852 c 0
 380 889 360 911 324 911 c 0
543 684 m 1
 543 211 l 2
 543 82 473 -11 324 -11 c 0
 174 -11 105 82 105 211 c 2
 105 684 l 1
 152 684 l 1
 152 215 l 2
 152 103 204 32 324 32 c 0
 445 32 495 105 495 215 c 2
 495 684 l 1
 543 684 l 1
EndSplineSet
EndChar

StartChar: uni016F
Encoding: 367 367 264
Width: 576
Flags: W
LayerCount: 2
Fore
SplineSet
286 815 m 0
 341 815 379 779 379 726 c 0
 379 672 341 636 286 636 c 0
 231 636 193 672 193 726 c 0
 193 779 231 815 286 815 c 0
286 785 m 0
 250 785 230 763 230 726 c 0
 230 688 250 667 286 667 c 0
 322 667 342 688 342 726 c 0
 342 763 322 785 286 785 c 0
467 522 m 1
 467 0 l 1
 428 0 l 1
 425 97 l 1
 390 35 335 -11 252 -11 c 0
 158 -11 104 46 104 149 c 2
 104 522 l 1
 150 522 l 1
 150 153 l 2
 150 66 189 29 261 29 c 0
 334 29 383 76 421 141 c 1
 421 522 l 1
 467 522 l 1
EndSplineSet
EndChar

StartChar: uni0170
Encoding: 368 368 265
Width: 648
Flags: W
LayerCount: 2
Fore
SplineSet
342 901 m 1
 378 876 l 1
 265 731 l 1
 240 747 l 1
 342 901 l 1
469 892 m 1
 505 865 l 1
 383 726 l 1
 360 743 l 1
 469 892 l 1
543 684 m 1
 543 211 l 2
 543 82 473 -11 324 -11 c 0
 174 -11 105 82 105 211 c 2
 105 684 l 1
 152 684 l 1
 152 215 l 2
 152 103 204 32 324 32 c 0
 445 32 495 105 495 215 c 2
 495 684 l 1
 543 684 l 1
EndSplineSet
EndChar

StartChar: uni0171
Encoding: 369 369 266
Width: 576
Flags: W
LayerCount: 2
Fore
SplineSet
309 778 m 1
 345 753 l 1
 232 598 l 1
 207 614 l 1
 309 778 l 1
436 769 m 1
 472 741 l 1
 350 593 l 1
 327 610 l 1
 436 769 l 1
467 522 m 1
 467 0 l 1
 428 0 l 1
 425 97 l 1
 390 35 335 -11 252 -11 c 0
 158 -11 104 46 104 149 c 2
 104 522 l 1
 150 522 l 1
 150 153 l 2
 150 66 189 29 261 29 c 0
 334 29 383 76 421 141 c 1
 421 522 l 1
 467 522 l 1
EndSplineSet
EndChar

StartChar: uni0172
Encoding: 370 370 267
Width: 648
Flags: W
LayerCount: 2
Fore
SplineSet
495 684 m 1
 543 684 l 1
 543 211 l 2
 543 106 497 25 400 -2 c 1
 318 -39 281 -69 281 -119 c 0
 281 -151 303 -172 348 -172 c 0
 367 -172 382 -170 404 -166 c 1
 399 -206 l 1
 379 -210 363 -213 343 -213 c 0
 271 -213 236 -174 236 -124 c 0
 236 -76 267 -40 327 -11 c 1
 324 -11 l 2
 174 -11 105 82 105 211 c 2
 105 684 l 1
 152 684 l 1
 152 215 l 2
 152 103 204 32 324 32 c 0
 445 32 495 105 495 215 c 2
 495 684 l 1
EndSplineSet
EndChar

StartChar: uni0173
Encoding: 371 371 268
Width: 576
Flags: W
LayerCount: 2
Fore
SplineSet
346 -119 m 0
 346 -151 366 -172 411 -172 c 0
 430 -172 447 -170 468 -166 c 1
 464 -206 l 1
 444 -210 428 -213 407 -213 c 0
 336 -213 301 -174 301 -124 c 0
 301 -66 344 -26 428 11 c 1
 425 97 l 1
 390 35 335 -11 252 -11 c 0
 158 -11 104 46 104 149 c 2
 104 522 l 1
 150 522 l 1
 150 153 l 2
 150 66 189 29 261 29 c 0
 334 29 383 76 421 141 c 1
 421 522 l 1
 467 522 l 1
 467 2 l 1
 468 0 l 1
 384 -38 346 -68 346 -119 c 0
EndSplineSet
EndChar

StartChar: uni0178
Encoding: 376 376 269
Width: 513
Flags: W
LayerCount: 2
Fore
SplineSet
165 858 m 0
 185 858 199 844 199 825 c 0
 199 806 185 792 165 792 c 0
 145 792 131 806 131 825 c 0
 131 844 145 858 165 858 c 0
347 858 m 0
 366 858 380 844 380 825 c 0
 380 806 366 792 347 792 c 0
 327 792 313 806 313 825 c 0
 313 844 327 858 347 858 c 0
497 684 m 1
 281 269 l 1
 281 0 l 1
 234 0 l 1
 234 268 l 1
 16 684 l 1
 69 684 l 1
 259 312 l 1
 445 684 l 1
 497 684 l 1
EndSplineSet
EndChar

StartChar: uni0179
Encoding: 377 377 270
Width: 514
Flags: W
LayerCount: 2
Fore
SplineSet
341 880 m 1
 362 836 l 1
 170 759 l 1
 157 788 l 1
 341 880 l 1
465 684 m 1
 465 644 l 1
 92 43 l 1
 456 43 l 1
 450 0 l 1
 37 0 l 1
 37 40 l 1
 412 642 l 1
 75 642 l 1
 75 684 l 1
 465 684 l 1
EndSplineSet
EndChar

StartChar: uni017A
Encoding: 378 378 271
Width: 412
Flags: W
LayerCount: 2
Fore
SplineSet
289 776 m 1
 310 732 l 1
 120 648 l 1
 105 676 l 1
 289 776 l 1
382 522 m 1
 382 485 l 1
 84 41 l 1
 379 41 l 1
 374 0 l 1
 29 0 l 1
 29 36 l 1
 328 481 l 1
 53 481 l 1
 53 522 l 1
 382 522 l 1
EndSplineSet
EndChar

StartChar: uni017B
Encoding: 379 379 272
Width: 514
Flags: W
LayerCount: 2
Fore
SplineSet
260 870 m 0
 282 870 296 854 296 835 c 0
 296 816 282 800 260 800 c 0
 238 800 224 816 224 835 c 0
 224 854 238 870 260 870 c 0
465 684 m 1
 465 644 l 1
 92 43 l 1
 456 43 l 1
 450 0 l 1
 37 0 l 1
 37 40 l 1
 412 642 l 1
 75 642 l 1
 75 684 l 1
 465 684 l 1
EndSplineSet
EndChar

StartChar: uni017C
Encoding: 380 380 273
Width: 412
Flags: W
LayerCount: 2
Fore
SplineSet
215 744 m 0
 237 744 251 728 251 709 c 0
 251 690 237 674 215 674 c 0
 193 674 179 690 179 709 c 0
 179 728 193 744 215 744 c 0
382 522 m 1
 382 485 l 1
 84 41 l 1
 379 41 l 1
 374 0 l 1
 29 0 l 1
 29 36 l 1
 328 481 l 1
 53 481 l 1
 53 522 l 1
 382 522 l 1
EndSplineSet
EndChar

StartChar: uni017D
Encoding: 381 381 274
Width: 514
Flags: W
LayerCount: 2
Fore
SplineSet
380 880 m 1
 401 855 l 1
 274 757 l 1
 247 757 l 1
 119 855 l 1
 140 880 l 1
 261 801 l 1
 380 880 l 1
465 684 m 1
 465 644 l 1
 92 43 l 1
 456 43 l 1
 450 0 l 1
 37 0 l 1
 37 40 l 1
 412 642 l 1
 75 642 l 1
 75 684 l 1
 465 684 l 1
EndSplineSet
EndChar

StartChar: uni017E
Encoding: 382 382 275
Width: 412
Flags: W
LayerCount: 2
Fore
SplineSet
335 763 m 1
 356 739 l 1
 229 635 l 1
 202 635 l 1
 74 739 l 1
 95 763 l 1
 216 679 l 1
 335 763 l 1
382 522 m 1
 382 485 l 1
 84 41 l 1
 379 41 l 1
 374 0 l 1
 29 0 l 1
 29 36 l 1
 328 481 l 1
 53 481 l 1
 53 522 l 1
 382 522 l 1
EndSplineSet
EndChar

StartChar: uni0192
Encoding: 402 402 276
Width: 317
Flags: W
LayerCount: 2
Fore
SplineSet
256 701 m 0
 196 701 161 675 161 610 c 2
 161 522 l 1
 303 522 l 1
 296 483 l 1
 161 483 l 1
 161 14 l 2
 161 -122 119 -158 31 -200 c 1
 17 -167 l 1
 86 -132 115 -103 115 13 c 2
 115 483 l 1
 28 483 l 1
 28 522 l 1
 115 522 l 1
 115 612 l 2
 115 693 169 741 253 741 c 0
 297 741 337 731 374 713 c 1
 357 678 l 1
 323 693 291 701 256 701 c 0
EndSplineSet
EndChar

StartChar: uni0218
Encoding: 536 536 277
Width: 537
Flags: W
LayerCount: 2
Fore
SplineSet
266 694 m 0
 353 694 405 666 457 620 c 1
 429 589 l 1
 378 634 332 653 267 653 c 0
 178 653 119 604 119 531 c 0
 119 456 160 423 282 386 c 0
 410 347 478 302 478 185 c 0
 478 69 390 -11 258 -11 c 0
 166 -11 99 22 44 74 c 1
 72 105 l 1
 122 60 175 31 257 31 c 0
 358 31 430 88 430 184 c 0
 430 272 387 308 263 346 c 0
 125 388 71 435 71 530 c 0
 71 624 149 694 266 694 c 0
261 -87 m 0
 286 -87 301 -104 301 -125 c 0
 301 -141 296 -153 280 -187 c 2
 240 -273 l 1
 211 -273 l 1
 244 -159 l 1
 230 -152 223 -142 223 -125 c 0
 223 -104 239 -87 261 -87 c 0
EndSplineSet
EndChar

StartChar: uni0219
Encoding: 537 537 278
Width: 455
Flags: W
LayerCount: 2
Fore
SplineSet
229 532 m 0
 293 532 343 513 392 475 c 1
 368 444 l 1
 323 477 285 493 231 493 c 0
 158 493 108 457 108 398 c 0
 108 344 143 320 239 294 c 0
 355 263 405 227 405 138 c 0
 405 46 327 -11 223 -11 c 0
 139 -11 85 18 40 56 c 1
 66 86 l 1
 112 50 155 29 223 29 c 0
 301 29 357 68 357 137 c 0
 357 204 327 228 216 258 c 0
 105 287 60 326 60 398 c 0
 60 477 133 532 229 532 c 0
227 -87 m 0
 252 -87 267 -104 267 -125 c 0
 267 -141 262 -153 246 -187 c 2
 206 -273 l 1
 177 -273 l 1
 210 -159 l 1
 196 -152 189 -142 189 -125 c 0
 189 -104 205 -87 227 -87 c 0
EndSplineSet
EndChar

StartChar: uni021A
Encoding: 538 538 279
Width: 487
Flags: W
LayerCount: 2
Fore
SplineSet
477 684 m 1
 471 641 l 1
 267 641 l 1
 267 0 l 1
 220 0 l 1
 220 641 l 1
 15 641 l 1
 15 684 l 1
 477 684 l 1
242 -87 m 0
 267 -87 282 -104 282 -125 c 0
 282 -141 277 -153 261 -187 c 2
 221 -273 l 1
 192 -273 l 1
 225 -159 l 1
 211 -152 204 -142 204 -125 c 0
 204 -104 220 -87 242 -87 c 0
EndSplineSet
EndChar

StartChar: uni021B
Encoding: 539 539 280
Width: 338
Flags: W
LayerCount: 2
Fore
SplineSet
338 21 m 1
 307 1 272 -11 230 -11 c 0
 155 -11 108 34 108 123 c 2
 108 483 l 1
 21 483 l 1
 21 522 l 1
 108 522 l 1
 108 649 l 1
 154 654 l 1
 154 522 l 1
 292 522 l 1
 286 483 l 1
 154 483 l 1
 154 126 l 2
 154 62 180 30 235 30 c 0
 266 30 293 39 319 54 c 1
 338 21 l 1
225 -87 m 0
 250 -87 265 -104 265 -125 c 0
 265 -141 260 -153 244 -187 c 2
 204 -273 l 1
 175 -273 l 1
 208 -159 l 1
 194 -152 187 -142 187 -125 c 0
 187 -104 203 -87 225 -87 c 0
EndSplineSet
EndChar

StartChar: uni0237
Encoding: 567 567 281
Width: 265
Flags: W
LayerCount: 2
Fore
SplineSet
156 522 m 1
 156 14 l 2
 156 -122 114 -158 25 -200 c 1
 12 -167 l 1
 81 -132 110 -103 110 13 c 2
 110 522 l 1
 156 522 l 1
EndSplineSet
EndChar

StartChar: uni0300
Encoding: 768 768 282
Width: 0
Flags: W
LayerCount: 2
Fore
SplineSet
-214 776 m 1
 -30 676 l 1
 -45 648 l 1
 -235 732 l 1
 -214 776 l 1
EndSplineSet
EndChar

StartChar: uni0301
Encoding: 769 769 283
Width: 0
Flags: W
LayerCount: 2
Fore
SplineSet
-51 776 m 1
 -30 732 l 1
 -220 648 l 1
 -235 676 l 1
 -51 776 l 1
EndSplineSet
EndChar

StartChar: uni0302
Encoding: 770 770 284
Width: 0
Flags: W
LayerCount: 2
Fore
SplineSet
-291 647 m 1
 -312 672 l 1
 -185 775 l 1
 -158 775 l 1
 -30 672 l 1
 -51 647 l 1
 -171 731 l 1
 -291 647 l 1
EndSplineSet
EndChar

StartChar: uni0303
Encoding: 771 771 285
Width: 0
Flags: W
LayerCount: 2
Fore
SplineSet
-116 670 m 0
 -143 670 -167 682 -186 695 c 0
 -203 707 -217 714 -233 714 c 0
 -256 714 -271 703 -290 677 c 1
 -319 692 l 1
 -297 728 -269 752 -233 752 c 0
 -210 752 -189 742 -168 728 c 0
 -150 717 -134 708 -116 708 c 0
 -95 708 -80 720 -59 751 c 1
 -30 736 l 1
 -53 689 -82 670 -116 670 c 0
EndSplineSet
EndChar

StartChar: uni0304
Encoding: 772 772 286
Width: 0
Flags: W
LayerCount: 2
Fore
SplineSet
-30 679 m 1
 -259 679 l 1
 -259 718 l 1
 -30 718 l 1
 -30 679 l 1
EndSplineSet
EndChar

StartChar: uni0305
Encoding: 773 773 287
Width: 0
Flags: W
LayerCount: 2
Fore
SplineSet
-30 679 m 1
 -431 679 l 1
 -431 712 l 1
 -30 712 l 1
 -30 679 l 1
EndSplineSet
EndChar

StartChar: uni0306
Encoding: 774 774 288
Width: 0
Flags: W
LayerCount: 2
Fore
SplineSet
-153 656 m 0
 -219 656 -267 697 -276 759 c 1
 -244 766 l 1
 -231 720 -200 696 -153 696 c 0
 -106 696 -75 720 -62 766 c 1
 -30 759 l 1
 -39 697 -88 656 -153 656 c 0
EndSplineSet
EndChar

StartChar: uni0307
Encoding: 775 775 289
Width: 0
Flags: W
LayerCount: 2
Fore
SplineSet
-66 744 m 0
 -44 744 -30 728 -30 709 c 0
 -30 690 -44 674 -66 674 c 0
 -88 674 -102 690 -102 709 c 0
 -102 728 -88 744 -66 744 c 0
EndSplineSet
EndChar

StartChar: uni0308
Encoding: 776 776 290
Width: 0
Flags: W
LayerCount: 2
Fore
SplineSet
-245 732 m 0
 -225 732 -211 718 -211 699 c 0
 -211 680 -225 666 -245 666 c 0
 -265 666 -279 680 -279 699 c 0
 -279 718 -265 732 -245 732 c 0
-63 732 m 0
 -44 732 -30 718 -30 699 c 0
 -30 680 -44 666 -63 666 c 0
 -83 666 -97 680 -97 699 c 0
 -97 718 -83 732 -63 732 c 0
EndSplineSet
EndChar

StartChar: uni0309
Encoding: 777 777 291
Width: 0
Flags: W
LayerCount: 2
Fore
SplineSet
-142 618 m 1
 -142 698 l 1
 -102 700 -73 710 -73 746 c 0
 -73 773 -91 788 -121 788 c 0
 -145 788 -161 783 -179 774 c 1
 -193 803 l 1
 -171 816 -148 824 -116 824 c 0
 -62 824 -29 794 -29 748 c 0
 -29 704 -55 680 -102 674 c 1
 -102 618 l 1
 -142 618 l 1
EndSplineSet
EndChar

StartChar: uni030A
Encoding: 778 778 292
Width: 0
Flags: W
LayerCount: 2
Fore
SplineSet
-123 815 m 0
 -68 815 -30 779 -30 726 c 0
 -30 672 -68 636 -123 636 c 0
 -178 636 -216 672 -216 726 c 0
 -216 779 -178 815 -123 815 c 0
-123 785 m 0
 -159 785 -179 763 -179 726 c 0
 -179 688 -159 667 -123 667 c 0
 -87 667 -67 688 -67 726 c 0
 -67 763 -87 785 -123 785 c 0
EndSplineSet
EndChar

StartChar: uni030B
Encoding: 779 779 293
Width: 0
Flags: W
LayerCount: 2
Fore
SplineSet
-193 778 m 1
 -157 753 l 1
 -270 598 l 1
 -295 614 l 1
 -193 778 l 1
-66 769 m 1
 -30 741 l 1
 -152 593 l 1
 -175 610 l 1
 -66 769 l 1
EndSplineSet
EndChar

StartChar: uni030C
Encoding: 780 780 294
Width: 0
Flags: W
LayerCount: 2
Fore
SplineSet
-51 763 m 1
 -30 739 l 1
 -157 635 l 1
 -184 635 l 1
 -312 739 l 1
 -291 763 l 1
 -170 679 l 1
 -51 763 l 1
EndSplineSet
EndChar

StartChar: uni030D
Encoding: 781 781 295
Width: 0
Flags: W
LayerCount: 2
Fore
SplineSet
-76 636 m 1
 -76 846 l 1
 -30 846 l 1
 -30 636 l 1
 -76 636 l 1
EndSplineSet
EndChar

StartChar: uni030F
Encoding: 783 783 296
Width: 0
Flags: W
LayerCount: 2
Fore
SplineSet
-220 804 m 1
 -144 660 l 1
 -175 645 l 1
 -263 781 l 1
 -220 804 l 1
-98 803 m 1
 -30 664 l 1
 -61 649 l 1
 -141 781 l 1
 -98 803 l 1
EndSplineSet
EndChar

StartChar: uni0311
Encoding: 785 785 297
Width: 0
Flags: W
LayerCount: 2
Fore
SplineSet
-153 736 m 0
 -88 736 -39 695 -30 634 c 1
 -62 627 l 1
 -75 672 -106 697 -153 697 c 0
 -200 697 -231 672 -244 627 c 1
 -276 634 l 1
 -267 695 -219 736 -153 736 c 0
EndSplineSet
EndChar

StartChar: uni0312
Encoding: 786 786 298
Width: 0
Flags: W
LayerCount: 2
Fore
SplineSet
-81 590 m 0
 -105 590 -120 607 -120 628 c 0
 -120 644 -115 656 -99 690 c 2
 -60 776 l 1
 -30 776 l 1
 -63 662 l 1
 -50 655 -42 645 -42 628 c 0
 -42 607 -58 590 -81 590 c 0
EndSplineSet
EndChar

StartChar: uni0313
Encoding: 787 787 299
Width: 0
Flags: W
LayerCount: 2
Fore
SplineSet
-70 776 m 0
 -45 776 -30 759 -30 739 c 0
 -30 722 -35 711 -51 676 c 2
 -91 590 l 1
 -120 590 l 1
 -87 704 l 1
 -101 711 -108 722 -108 739 c 0
 -108 759 -92 776 -70 776 c 0
EndSplineSet
EndChar

StartChar: uni0316
Encoding: 790 790 300
Width: 0
Flags: W
LayerCount: 2
Fore
SplineSet
-213 -58 m 1
 -30 -150 l 1
 -43 -178 l 1
 -235 -102 l 1
 -213 -58 l 1
EndSplineSet
EndChar

StartChar: uni0317
Encoding: 791 791 301
Width: 0
Flags: W
LayerCount: 2
Fore
SplineSet
-51 -58 m 1
 -30 -102 l 1
 -222 -178 l 1
 -235 -150 l 1
 -51 -58 l 1
EndSplineSet
EndChar

StartChar: uni0318
Encoding: 792 792 302
Width: 0
Flags: W
LayerCount: 2
Fore
SplineSet
-68 -71 m 1
 -30 -71 l 1
 -30 -337 l 1
 -68 -337 l 1
 -68 -222 l 1
 -201 -222 l 1
 -201 -187 l 1
 -68 -187 l 1
 -68 -71 l 1
EndSplineSet
EndChar

StartChar: uni0319
Encoding: 793 793 303
Width: 0
Flags: W
LayerCount: 2
Fore
SplineSet
-162 -71 m 1
 -162 -187 l 1
 -30 -187 l 1
 -30 -222 l 1
 -162 -222 l 1
 -162 -337 l 1
 -201 -337 l 1
 -201 -71 l 1
 -162 -71 l 1
EndSplineSet
EndChar

StartChar: uni031A
Encoding: 794 794 304
Width: 0
Flags: W
LayerCount: 2
Fore
SplineSet
-190 757 m 1
 -30 757 l 1
 -30 592 l 1
 -69 592 l 1
 -69 721 l 1
 -190 721 l 1
 -190 757 l 1
EndSplineSet
EndChar

StartChar: uni031B
Encoding: 795 795 305
Width: 0
Flags: W
LayerCount: 2
Fore
SplineSet
-125 433 m 1
 -134 463 l 1
 -88 468 -70 486 -70 522 c 0
 -70 553 -76 574 -84 594 c 1
 -48 605 l 1
 -38 587 -30 560 -30 524 c 0
 -30 466 -63 437 -125 433 c 1
EndSplineSet
EndChar

StartChar: uni031C
Encoding: 796 796 306
Width: 0
Flags: W
LayerCount: 2
Fore
SplineSet
-30 -246 m 1
 -30 -215 l 1
 -66 -215 -86 -193 -86 -156 c 0
 -86 -119 -66 -97 -30 -97 c 1
 -30 -66 l 1
 -85 -66 -123 -103 -123 -156 c 0
 -123 -209 -85 -246 -30 -246 c 1
EndSplineSet
EndChar

StartChar: uni031D
Encoding: 797 797 307
Width: 0
Flags: W
LayerCount: 2
Fore
SplineSet
-30 -252 m 1
 -30 -288 l 1
 -306 -288 l 1
 -306 -252 l 1
 -188 -252 l 1
 -188 -107 l 1
 -149 -107 l 1
 -149 -252 l 1
 -30 -252 l 1
EndSplineSet
EndChar

StartChar: uni031E
Encoding: 798 798 308
Width: 0
Flags: W
LayerCount: 2
Fore
SplineSet
-30 -143 m 1
 -149 -143 l 1
 -149 -288 l 1
 -188 -288 l 1
 -188 -143 l 1
 -306 -143 l 1
 -306 -107 l 1
 -30 -107 l 1
 -30 -143 l 1
EndSplineSet
EndChar

StartChar: uni031F
Encoding: 799 799 309
Width: 0
Flags: W
LayerCount: 2
Fore
SplineSet
-127 -86 m 1
 -127 -179 l 1
 -30 -179 l 1
 -30 -214 l 1
 -127 -214 l 1
 -127 -307 l 1
 -166 -307 l 1
 -166 -214 l 1
 -263 -214 l 1
 -263 -179 l 1
 -166 -179 l 1
 -166 -86 l 1
 -127 -86 l 1
EndSplineSet
EndChar

StartChar: uni0320
Encoding: 800 800 310
Width: 0
Flags: W
LayerCount: 2
Fore
SplineSet
-263 -214 m 1
 -263 -179 l 1
 -30 -179 l 1
 -30 -214 l 1
 -263 -214 l 1
EndSplineSet
EndChar

StartChar: uni0321
Encoding: 801 801 311
Width: 0
Flags: W
LayerCount: 2
Fore
SplineSet
-146 -203 m 0
 -190 -203 -222 -186 -243 -170 c 1
 -223 -140 l 1
 -203 -153 -182 -163 -147 -163 c 0
 -107 -163 -76 -142 -76 -77 c 2
 -76 1 l 1
 -30 1 l 1
 -30 -76 l 2
 -30 -161 -78 -203 -146 -203 c 0
EndSplineSet
EndChar

StartChar: uni0323
Encoding: 803 803 312
Width: 0
Flags: W
LayerCount: 2
Fore
SplineSet
-66 -160 m 0
 -89 -160 -102 -144 -102 -125 c 0
 -102 -106 -89 -90 -66 -90 c 0
 -44 -90 -30 -106 -30 -125 c 0
 -30 -144 -44 -160 -66 -160 c 0
EndSplineSet
EndChar

StartChar: uni0324
Encoding: 804 804 313
Width: 0
Flags: W
LayerCount: 2
Fore
SplineSet
-245 -91 m 0
 -225 -91 -211 -106 -211 -125 c 0
 -211 -143 -225 -158 -245 -158 c 0
 -265 -158 -279 -143 -279 -125 c 0
 -279 -106 -265 -91 -245 -91 c 0
-63 -91 m 0
 -44 -91 -30 -106 -30 -125 c 0
 -30 -143 -44 -158 -63 -158 c 0
 -83 -158 -97 -143 -97 -125 c 0
 -97 -106 -83 -91 -63 -91 c 0
EndSplineSet
EndChar

StartChar: uni0325
Encoding: 805 805 314
Width: 0
Flags: W
LayerCount: 2
Fore
SplineSet
-123 -66 m 0
 -68 -66 -30 -103 -30 -156 c 0
 -30 -209 -68 -246 -123 -246 c 0
 -178 -246 -216 -209 -216 -156 c 0
 -216 -103 -178 -66 -123 -66 c 0
-123 -97 m 0
 -159 -97 -179 -119 -179 -156 c 0
 -179 -193 -159 -215 -123 -215 c 0
 -87 -215 -67 -193 -67 -156 c 0
 -67 -119 -87 -97 -123 -97 c 0
EndSplineSet
EndChar

StartChar: uni0326
Encoding: 806 806 315
Width: 0
Flags: W
LayerCount: 2
Fore
SplineSet
-70 -87 m 0
 -45 -87 -30 -104 -30 -125 c 0
 -30 -141 -35 -153 -51 -187 c 2
 -91 -273 l 1
 -120 -273 l 1
 -87 -159 l 1
 -101 -152 -108 -142 -108 -125 c 0
 -108 -104 -92 -87 -70 -87 c 0
EndSplineSet
EndChar

StartChar: uni0327
Encoding: 807 807 316
Width: 0
Flags: W
LayerCount: 2
Fore
SplineSet
-122 16 m 1
 -122 -67 l 1
 -58 -72 -30 -99 -30 -140 c 0
 -30 -193 -76 -222 -129 -222 c 0
 -162 -222 -187 -213 -205 -202 c 1
 -189 -172 l 1
 -174 -180 -156 -187 -130 -187 c 0
 -99 -187 -73 -172 -73 -140 c 0
 -73 -110 -99 -95 -162 -95 c 1
 -153 16 l 1
 -122 16 l 1
EndSplineSet
EndChar

StartChar: uni0328
Encoding: 808 808 317
Width: 0
Flags: W
LayerCount: 2
Fore
SplineSet
-44 22 m 1
 -32 0 l 1
 -116 -38 -154 -68 -154 -119 c 0
 -154 -151 -134 -172 -89 -172 c 0
 -70 -172 -53 -170 -32 -166 c 1
 -36 -206 l 1
 -56 -210 -72 -213 -93 -213 c 0
 -164 -213 -199 -174 -199 -124 c 0
 -199 -60 -146 -17 -44 22 c 1
EndSplineSet
EndChar

StartChar: uni0329
Encoding: 809 809 318
Width: 0
Flags: W
LayerCount: 2
Fore
SplineSet
-79 -287 m 1
 -79 -76 l 1
 -33 -76 l 1
 -33 -287 l 1
 -79 -287 l 1
EndSplineSet
EndChar

StartChar: uni032A
Encoding: 810 810 319
Width: 0
Flags: W
LayerCount: 2
Fore
SplineSet
-289 -225 m 1
 -289 -99 l 1
 -30 -99 l 1
 -30 -225 l 1
 -68 -225 l 1
 -68 -135 l 1
 -250 -135 l 1
 -250 -225 l 1
 -289 -225 l 1
EndSplineSet
EndChar

StartChar: uni032B
Encoding: 811 811 320
Width: 0
Flags: W
LayerCount: 2
Fore
SplineSet
-56 -65 m 1
 -30 -67 l 1
 -36 -131 -68 -172 -112 -172 c 0
 -147 -172 -175 -144 -188 -97 c 1
 -200 -144 -228 -172 -264 -172 c 0
 -307 -172 -339 -131 -345 -67 c 1
 -320 -65 l 1
 -314 -104 -295 -128 -264 -128 c 0
 -233 -128 -213 -104 -207 -65 c 1
 -168 -65 l 1
 -162 -104 -143 -128 -112 -128 c 0
 -81 -128 -62 -104 -56 -65 c 1
EndSplineSet
EndChar

StartChar: uni032C
Encoding: 812 812 321
Width: 0
Flags: W
LayerCount: 2
Fore
SplineSet
-51 -74 m 1
 -30 -99 l 1
 -157 -197 l 1
 -184 -197 l 1
 -312 -99 l 1
 -291 -74 l 1
 -170 -153 l 1
 -51 -74 l 1
EndSplineSet
EndChar

StartChar: uni032D
Encoding: 813 813 322
Width: 0
Flags: W
LayerCount: 2
Fore
SplineSet
-291 -199 m 1
 -312 -174 l 1
 -185 -70 l 1
 -158 -70 l 1
 -30 -174 l 1
 -51 -199 l 1
 -171 -114 l 1
 -291 -199 l 1
EndSplineSet
EndChar

StartChar: uni032F
Encoding: 815 815 323
Width: 0
Flags: W
LayerCount: 2
Fore
SplineSet
-153 -59 m 0
 -88 -59 -39 -100 -30 -161 c 1
 -62 -169 l 1
 -75 -123 -106 -98 -153 -98 c 0
 -200 -98 -231 -123 -244 -169 c 1
 -276 -161 l 1
 -267 -100 -219 -59 -153 -59 c 0
EndSplineSet
EndChar

StartChar: uni0330
Encoding: 816 816 324
Width: 0
Flags: W
LayerCount: 2
Fore
SplineSet
-116 -162 m 0
 -143 -162 -167 -150 -186 -137 c 0
 -203 -125 -217 -118 -233 -118 c 0
 -256 -118 -271 -130 -290 -156 c 1
 -319 -141 l 1
 -297 -104 -269 -80 -233 -80 c 0
 -210 -80 -189 -91 -168 -104 c 0
 -150 -116 -134 -124 -116 -124 c 0
 -95 -124 -80 -113 -59 -81 c 1
 -30 -97 l 1
 -53 -143 -82 -162 -116 -162 c 0
EndSplineSet
EndChar

StartChar: uni0331
Encoding: 817 817 325
Width: 0
Flags: W
LayerCount: 2
Fore
SplineSet
-30 -154 m 1
 -259 -154 l 1
 -259 -114 l 1
 -30 -114 l 1
 -30 -154 l 1
EndSplineSet
EndChar

StartChar: uni0332
Encoding: 818 818 326
Width: 0
Flags: W
LayerCount: 2
Fore
SplineSet
-30 -154 m 1
 -374 -154 l 1
 -374 -114 l 1
 -30 -114 l 1
 -30 -154 l 1
EndSplineSet
EndChar

StartChar: uni0334
Encoding: 820 820 327
Width: 0
Flags: W
LayerCount: 2
Fore
SplineSet
-128 269 m 0
 -188 269 -236 325 -282 325 c 0
 -316 325 -332 306 -352 281 c 1
 -381 297 l 1
 -357 335 -330 366 -280 366 c 0
 -217 366 -173 310 -126 310 c 0
 -94 310 -79 327 -59 352 c 1
 -30 336 l 1
 -54 299 -80 269 -128 269 c 0
EndSplineSet
EndChar

StartChar: uni0335
Encoding: 821 821 328
Width: 0
Flags: W
LayerCount: 2
Fore
SplineSet
-327 293 m 1
 -327 333 l 1
 -69 333 l 1
 -69 293 l 1
 -327 293 l 1
EndSplineSet
EndChar

StartChar: uni0336
Encoding: 822 822 329
Width: 0
Flags: W
LayerCount: 2
Fore
SplineSet
-726 293 m 1
 -726 333 l 1
 -30 333 l 1
 -30 293 l 1
 -726 293 l 1
EndSplineSet
EndChar

StartChar: uni0339
Encoding: 825 825 330
Width: 0
Flags: W
LayerCount: 2
Fore
SplineSet
-123 -245 m 1
 -68 -245 -30 -209 -30 -156 c 0
 -30 -103 -68 -66 -123 -66 c 1
 -123 -97 l 1
 -87 -97 -67 -118 -67 -156 c 0
 -67 -193 -87 -215 -123 -215 c 1
 -123 -245 l 1
EndSplineSet
EndChar

StartChar: uni033A
Encoding: 826 826 331
Width: 0
Flags: W
LayerCount: 2
Fore
SplineSet
-289 -98 m 1
 -250 -98 l 1
 -250 -188 l 1
 -68 -188 l 1
 -68 -98 l 1
 -30 -98 l 1
 -30 -224 l 1
 -289 -224 l 1
 -289 -98 l 1
EndSplineSet
EndChar

StartChar: uni033B
Encoding: 827 827 332
Width: 0
Flags: W
LayerCount: 2
Fore
SplineSet
-282 -224 m 1
 -282 -78 l 1
 -30 -78 l 1
 -30 -224 l 1
 -282 -224 l 1
-245 -190 m 1
 -67 -190 l 1
 -67 -112 l 1
 -245 -112 l 1
 -245 -190 l 1
EndSplineSet
EndChar

StartChar: uni033C
Encoding: 828 828 333
Width: 0
Flags: W
LayerCount: 2
Fore
SplineSet
-112 -69 m 0
 -68 -69 -36 -110 -30 -174 c 1
 -56 -176 l 1
 -62 -137 -81 -112 -112 -112 c 0
 -143 -112 -162 -137 -168 -176 c 1
 -207 -176 l 1
 -213 -137 -233 -112 -264 -112 c 0
 -295 -112 -314 -137 -320 -176 c 1
 -345 -174 l 1
 -339 -110 -307 -69 -264 -69 c 0
 -228 -69 -200 -97 -188 -144 c 1
 -175 -97 -147 -69 -112 -69 c 0
EndSplineSet
EndChar

StartChar: uni033D
Encoding: 829 829 334
Width: 0
Flags: W
LayerCount: 2
Fore
SplineSet
-147 726 m 1
 -45 600 l 1
 -92 600 l 1
 -172 706 l 1
 -251 600 l 1
 -297 600 l 1
 -196 725 l 1
 -285 836 l 1
 -238 836 l 1
 -171 746 l 1
 -103 836 l 1
 -58 836 l 1
 -147 726 l 1
EndSplineSet
EndChar

StartChar: uni0342
Encoding: 834 834 335
Width: 0
Flags: W
LayerCount: 2
Fore
SplineSet
-116 670 m 0
 -143 670 -167 682 -186 695 c 0
 -203 707 -217 714 -233 714 c 0
 -256 714 -271 703 -290 677 c 1
 -319 692 l 1
 -297 728 -269 752 -233 752 c 0
 -210 752 -189 742 -168 728 c 0
 -150 717 -134 708 -116 708 c 0
 -95 708 -80 720 -59 751 c 1
 -30 736 l 1
 -53 689 -82 670 -116 670 c 0
EndSplineSet
EndChar

StartChar: uni0345
Encoding: 837 837 336
Width: 0
Flags: W
LayerCount: 2
Fore
SplineSet
-107 -167 m 0
 -160 -167 -188 -132 -188 -86 c 2
 -188 -46 l 1
 -145 -46 l 1
 -145 -85 l 2
 -145 -115 -131 -130 -104 -130 c 0
 -81 -130 -68 -124 -51 -113 c 1
 -30 -139 l 1
 -51 -155 -74 -167 -107 -167 c 0
EndSplineSet
EndChar

StartChar: uni035C
Encoding: 860 860 337
Width: 0
Flags: W
LayerCount: 2
Fore
SplineSet
326 -69 m 1
 251 -130 150 -202 -1 -202 c 0
 -152 -202 -253 -130 -328 -69 c 1
 -309 -43 l 1
 -237 -92 -142 -155 -1 -155 c 0
 140 -155 235 -92 306 -43 c 1
 326 -69 l 1
EndSplineSet
EndChar

StartChar: uni0361
Encoding: 865 865 338
Width: 0
Flags: W
LayerCount: 2
Fore
SplineSet
328 651 m 1
 308 625 l 1
 237 674 142 737 1 737 c 0
 -140 737 -235 674 -307 625 c 1
 -326 651 l 1
 -251 712 -150 784 1 784 c 0
 152 784 253 712 328 651 c 1
EndSplineSet
EndChar

StartChar: uni037E
Encoding: 894 894 339
Width: 195
Flags: W
LayerCount: 2
Fore
SplineSet
97 468 m 0
 122 468 138 450 138 427 c 0
 138 406 122 388 97 388 c 0
 74 388 57 406 57 427 c 0
 57 450 74 468 97 468 c 0
97 69 m 0
 122 69 138 51 138 29 c 0
 138 14 131 -3 124 -20 c 2
 72 -146 l 1
 38 -146 l 1
 78 -5 l 1
 65 1 57 14 57 29 c 0
 57 51 74 69 97 69 c 0
EndSplineSet
EndChar

StartChar: uni0384
Encoding: 900 900 340
Width: 113
Flags: W
LayerCount: 2
Fore
SplineSet
31 759 m 1
 83 755 l 1
 63 600 l 1
 31 600 l 1
 31 759 l 1
EndSplineSet
EndChar

StartChar: uni0385
Encoding: 901 901 341
Width: 309
Flags: W
LayerCount: 2
Fore
SplineSet
141 849 m 1
 186 847 l 1
 169 713 l 1
 141 713 l 1
 141 849 l 1
64 702 m 0
 84 702 98 688 98 669 c 0
 98 650 84 636 64 636 c 0
 44 636 30 650 30 669 c 0
 30 688 44 702 64 702 c 0
246 702 m 0
 265 702 279 688 279 669 c 0
 279 650 265 636 246 636 c 0
 226 636 212 650 212 669 c 0
 212 688 226 702 246 702 c 0
EndSplineSet
EndChar

StartChar: uni0386
Encoding: 902 902 342
Width: 568
Flags: W
LayerCount: 2
Fore
SplineSet
99 687 m 1
 153 684 l 1
 133 522 l 1
 99 522 l 1
 99 687 l 1
498 0 m 1
 435 192 l 1
 137 192 l 1
 74 0 l 1
 26 0 l 1
 258 684 l 1
 317 684 l 1
 548 0 l 1
 498 0 l 1
151 234 m 1
 421 234 l 1
 287 645 l 1
 151 234 l 1
EndSplineSet
EndChar

StartChar: uni0387
Encoding: 903 903 343
Width: 195
Flags: W
LayerCount: 2
Fore
SplineSet
97 361 m 0
 122 361 138 344 138 321 c 0
 138 299 122 282 97 282 c 0
 74 282 57 299 57 321 c 0
 57 344 74 361 97 361 c 0
EndSplineSet
EndChar

StartChar: uni0388
Encoding: 904 904 344
Width: 542
Flags: W
LayerCount: 2
Fore
SplineSet
52 687 m 1
 105 684 l 1
 86 522 l 1
 52 522 l 1
 52 687 l 1
492 684 m 1
 486 643 l 1
 201 643 l 1
 201 377 l 1
 448 377 l 1
 448 336 l 1
 201 336 l 1
 201 41 l 1
 499 41 l 1
 499 0 l 1
 153 0 l 1
 153 684 l 1
 492 684 l 1
EndSplineSet
EndChar

StartChar: uni0389
Encoding: 905 905 345
Width: 705
Flags: W
LayerCount: 2
Fore
SplineSet
52 687 m 1
 105 684 l 1
 86 522 l 1
 52 522 l 1
 52 687 l 1
543 0 m 1
 543 339 l 1
 201 339 l 1
 201 0 l 1
 153 0 l 1
 153 684 l 1
 201 684 l 1
 201 381 l 1
 543 381 l 1
 543 684 l 1
 590 684 l 1
 590 0 l 1
 543 0 l 1
EndSplineSet
EndChar

StartChar: uni038A
Encoding: 906 906 346
Width: 316
Flags: W
LayerCount: 2
Fore
SplineSet
52 687 m 1
 105 684 l 1
 86 522 l 1
 52 522 l 1
 52 687 l 1
201 684 m 1
 201 0 l 1
 153 0 l 1
 153 684 l 1
 201 684 l 1
EndSplineSet
EndChar

StartChar: uni038C
Encoding: 908 908 347
Width: 714
Flags: W
LayerCount: 2
Fore
SplineSet
368 694 m 0
 532 694 644 572 644 341 c 0
 644 117 536 -11 368 -11 c 0
 205 -11 93 113 93 340 c 0
 93 566 206 694 368 694 c 0
49 687 m 1
 103 684 l 1
 83 522 l 1
 49 522 l 1
 49 687 l 1
368 653 m 0
 234 653 143 551 143 340 c 0
 143 133 235 31 368 31 c 0
 508 31 594 133 594 341 c 0
 594 552 505 653 368 653 c 0
EndSplineSet
EndChar

StartChar: uni038E
Encoding: 910 910 348
Width: 629
Flags: W
LayerCount: 2
Fore
SplineSet
47 687 m 1
 101 684 l 1
 81 522 l 1
 47 522 l 1
 47 687 l 1
613 684 m 1
 398 269 l 1
 398 0 l 1
 350 0 l 1
 350 268 l 1
 132 684 l 1
 185 684 l 1
 375 312 l 1
 561 684 l 1
 613 684 l 1
EndSplineSet
EndChar

StartChar: uni038F
Encoding: 911 911 349
Width: 708
Flags: W
LayerCount: 2
Fore
SplineSet
363 694 m 0
 528 694 638 572 638 344 c 0
 638 178 586 91 491 43 c 1
 616 43 l 1
 616 0 l 1
 424 0 l 1
 424 42 l 1
 532 82 588 174 588 344 c 0
 588 552 499 653 363 653 c 0
 229 653 137 551 137 343 c 0
 137 174 196 87 302 42 c 1
 302 0 l 1
 109 0 l 1
 109 43 l 1
 234 43 l 1
 134 95 87 182 87 343 c 0
 87 566 200 694 363 694 c 0
49 687 m 1
 103 684 l 1
 83 522 l 1
 49 522 l 1
 49 687 l 1
EndSplineSet
EndChar

StartChar: uni0390
Encoding: 912 912 350
Width: 263
Flags: W
LayerCount: 2
Fore
SplineSet
113 849 m 1
 158 847 l 1
 141 713 l 1
 113 713 l 1
 113 849 l 1
36 702 m 0
 56 702 70 688 70 669 c 0
 70 650 56 636 36 636 c 0
 16 636 2 650 2 669 c 0
 2 688 16 702 36 702 c 0
218 702 m 0
 237 702 251 688 251 669 c 0
 251 650 237 636 218 636 c 0
 198 636 184 650 184 669 c 0
 184 688 198 702 218 702 c 0
150 522 m 1
 150 118 l 2
 150 63 164 44 197 30 c 1
 183 -7 l 1
 125 12 104 44 104 115 c 2
 104 522 l 1
 150 522 l 1
EndSplineSet
EndChar

StartChar: uni0391
Encoding: 913 913 351
Width: 562
Flags: W
LayerCount: 2
Fore
SplineSet
491 0 m 1
 429 192 l 1
 131 192 l 1
 68 0 l 1
 20 0 l 1
 251 684 l 1
 311 684 l 1
 542 0 l 1
 491 0 l 1
145 234 m 1
 415 234 l 1
 281 645 l 1
 145 234 l 1
EndSplineSet
EndChar

StartChar: uni0392
Encoding: 914 914 352
Width: 594
Flags: W
LayerCount: 2
Fore
SplineSet
380 363 m 1
 464 355 538 306 538 188 c 0
 538 63 448 0 300 0 c 2
 115 0 l 1
 115 684 l 1
 264 684 l 2
 416 684 505 628 505 514 c 0
 505 424 453 376 380 363 c 1
269 643 m 2
 162 643 l 1
 162 380 l 1
 312 380 l 2
 398 380 456 428 456 511 c 0
 456 605 388 643 269 643 c 2
301 41 m 2
 416 41 488 85 488 188 c 0
 488 294 415 340 318 340 c 2
 162 340 l 1
 162 41 l 1
 301 41 l 2
EndSplineSet
EndChar

StartChar: uni0393
Encoding: 915 915 353
Width: 508
Flags: W
LayerCount: 2
Fore
SplineSet
498 684 m 1
 491 640 l 1
 162 640 l 1
 162 0 l 1
 115 0 l 1
 115 684 l 1
 498 684 l 1
EndSplineSet
EndChar

StartChar: uni0394
Encoding: 916 916 354
Width: 572
Flags: W
LayerCount: 2
Fore
SplineSet
316 684 m 1
 552 0 l 1
 20 0 l 1
 256 684 l 1
 316 684 l 1
286 645 m 1
 81 41 l 1
 489 41 l 1
 286 645 l 1
EndSplineSet
EndChar

StartChar: uni0395
Encoding: 917 917 355
Width: 504
Flags: W
LayerCount: 2
Fore
SplineSet
454 684 m 1
 448 643 l 1
 162 643 l 1
 162 377 l 1
 409 377 l 1
 409 336 l 1
 162 336 l 1
 162 41 l 1
 460 41 l 1
 460 0 l 1
 115 0 l 1
 115 684 l 1
 454 684 l 1
EndSplineSet
EndChar

StartChar: uni0396
Encoding: 918 918 356
Width: 514
Flags: W
LayerCount: 2
Fore
SplineSet
465 684 m 1
 465 644 l 1
 92 43 l 1
 456 43 l 1
 450 0 l 1
 37 0 l 1
 37 40 l 1
 412 642 l 1
 75 642 l 1
 75 684 l 1
 465 684 l 1
EndSplineSet
EndChar

StartChar: uni0397
Encoding: 919 919 357
Width: 667
Flags: W
LayerCount: 2
Fore
SplineSet
504 0 m 1
 504 339 l 1
 162 339 l 1
 162 0 l 1
 115 0 l 1
 115 684 l 1
 162 684 l 1
 162 381 l 1
 504 381 l 1
 504 684 l 1
 552 684 l 1
 552 0 l 1
 504 0 l 1
EndSplineSet
EndChar

StartChar: uni0398
Encoding: 920 920 358
Width: 691
Flags: W
LayerCount: 2
Fore
SplineSet
345 694 m 0
 509 694 621 572 621 341 c 0
 621 117 513 -11 345 -11 c 0
 182 -11 70 113 70 340 c 0
 70 566 183 694 345 694 c 0
345 653 m 0
 211 653 120 551 120 340 c 0
 120 133 212 31 345 31 c 0
 485 31 571 133 571 341 c 0
 571 552 482 653 345 653 c 0
478 371 m 1
 478 331 l 1
 213 331 l 1
 213 371 l 1
 478 371 l 1
EndSplineSet
EndChar

StartChar: uni0399
Encoding: 921 921 359
Width: 277
Flags: W
LayerCount: 2
Fore
SplineSet
162 684 m 1
 162 0 l 1
 115 0 l 1
 115 684 l 1
 162 684 l 1
EndSplineSet
EndChar

StartChar: uni039A
Encoding: 922 922 360
Width: 533
Flags: W
LayerCount: 2
Fore
SplineSet
162 684 m 1
 162 0 l 1
 115 0 l 1
 115 684 l 1
 162 684 l 1
516 684 m 1
 224 369 l 1
 533 0 l 1
 474 0 l 1
 166 367 l 1
 461 684 l 1
 516 684 l 1
EndSplineSet
EndChar

StartChar: uni039B
Encoding: 923 923 361
Width: 562
Flags: W
LayerCount: 2
Fore
SplineSet
311 684 m 1
 542 0 l 1
 491 0 l 1
 281 645 l 1
 68 0 l 1
 20 0 l 1
 251 684 l 1
 311 684 l 1
EndSplineSet
EndChar

StartChar: uni039C
Encoding: 924 924 362
Width: 768
Flags: W
LayerCount: 2
Fore
SplineSet
627 684 m 1
 696 0 l 1
 650 0 l 1
 616 334 l 2
 604 445 592 574 587 638 c 1
 407 82 l 1
 361 82 l 1
 175 638 l 1
 172 574 159 445 149 339 c 2
 117 0 l 1
 72 0 l 1
 139 684 l 1
 206 684 l 1
 385 139 l 1
 559 684 l 1
 627 684 l 1
EndSplineSet
EndChar

StartChar: uni039D
Encoding: 925 925 363
Width: 669
Flags: W
LayerCount: 2
Fore
SplineSet
554 684 m 1
 554 0 l 1
 493 0 l 1
 154 631 l 1
 157 587 160 528 160 407 c 2
 160 0 l 1
 115 0 l 1
 115 684 l 1
 176 684 l 1
 515 53 l 1
 513 86 509 163 509 253 c 2
 509 684 l 1
 554 684 l 1
EndSplineSet
EndChar

StartChar: uni039E
Encoding: 926 926 364
Width: 492
Flags: W
LayerCount: 2
Fore
SplineSet
430 684 m 1
 424 640 l 1
 52 640 l 1
 52 684 l 1
 430 684 l 1
381 379 m 1
 381 334 l 1
 110 334 l 1
 110 379 l 1
 381 379 l 1
440 45 m 1
 440 0 l 1
 52 0 l 1
 52 45 l 1
 440 45 l 1
EndSplineSet
EndChar

StartChar: uni039F
Encoding: 927 927 365
Width: 691
Flags: W
LayerCount: 2
Fore
SplineSet
345 694 m 0
 509 694 621 572 621 341 c 0
 621 117 513 -11 345 -11 c 0
 182 -11 70 113 70 340 c 0
 70 566 183 694 345 694 c 0
345 653 m 0
 211 653 120 551 120 340 c 0
 120 133 212 31 345 31 c 0
 485 31 571 133 571 341 c 0
 571 552 482 653 345 653 c 0
EndSplineSet
EndChar

StartChar: uni03A0
Encoding: 928 928 366
Width: 662
Flags: W
LayerCount: 2
Fore
SplineSet
547 684 m 1
 547 0 l 1
 499 0 l 1
 499 641 l 1
 162 641 l 1
 162 0 l 1
 115 0 l 1
 115 684 l 1
 547 684 l 1
EndSplineSet
EndChar

StartChar: uni03A1
Encoding: 929 929 367
Width: 566
Flags: W
LayerCount: 2
Fore
SplineSet
268 684 m 2
 425 684 517 622 517 481 c 0
 517 329 412 272 265 272 c 2
 162 272 l 1
 162 0 l 1
 115 0 l 1
 115 684 l 1
 268 684 l 2
266 312 m 2
 384 312 467 351 467 480 c 0
 467 601 395 643 268 643 c 2
 162 643 l 1
 162 312 l 1
 266 312 l 2
EndSplineSet
EndChar

StartChar: uni03A3
Encoding: 931 931 368
Width: 490
Flags: W
LayerCount: 2
Fore
SplineSet
443 684 m 1
 443 642 l 1
 109 642 l 1
 328 352 l 1
 328 327 l 1
 109 42 l 1
 443 42 l 1
 443 0 l 1
 47 0 l 1
 47 32 l 1
 281 339 l 1
 47 652 l 1
 47 684 l 1
 443 684 l 1
EndSplineSet
EndChar

StartChar: uni03A4
Encoding: 932 932 369
Width: 487
Flags: W
LayerCount: 2
Fore
SplineSet
477 684 m 1
 471 641 l 1
 267 641 l 1
 267 0 l 1
 220 0 l 1
 220 641 l 1
 15 641 l 1
 15 684 l 1
 477 684 l 1
EndSplineSet
EndChar

StartChar: uni03A5
Encoding: 933 933 370
Width: 513
Flags: W
LayerCount: 2
Fore
SplineSet
497 684 m 1
 281 269 l 1
 281 0 l 1
 234 0 l 1
 234 268 l 1
 16 684 l 1
 69 684 l 1
 259 312 l 1
 445 684 l 1
 497 684 l 1
EndSplineSet
EndChar

StartChar: uni03A6
Encoding: 934 934 371
Width: 784
Flags: W
LayerCount: 2
Fore
SplineSet
742 343 m 0
 742 170 630 80 415 71 c 1
 415 0 l 1
 369 0 l 1
 369 71 l 1
 151 77 42 180 42 342 c 0
 42 514 154 604 369 613 c 1
 369 684 l 1
 415 684 l 1
 415 613 l 1
 633 607 742 504 742 343 c 0
414 110 m 1
 599 120 693 188 693 343 c 0
 693 486 598 569 414 574 c 1
 414 110 l 1
91 342 m 0
 91 198 186 115 370 110 c 1
 370 574 l 1
 185 564 91 496 91 342 c 0
EndSplineSet
EndChar

StartChar: uni03A7
Encoding: 935 935 372
Width: 505
Flags: W
LayerCount: 2
Fore
SplineSet
278 371 m 1
 493 0 l 1
 439 0 l 1
 249 338 l 1
 64 0 l 1
 12 0 l 1
 222 368 l 1
 33 684 l 1
 87 684 l 1
 250 400 l 1
 411 684 l 1
 463 684 l 1
 278 371 l 1
EndSplineSet
EndChar

StartChar: uni03A8
Encoding: 936 936 373
Width: 662
Flags: W
LayerCount: 2
Fore
SplineSet
572 684 m 1
 620 684 l 1
 620 427 l 2
 620 286 527 210 355 203 c 1
 355 0 l 1
 307 0 l 1
 307 203 l 1
 134 211 42 286 42 426 c 2
 42 684 l 1
 90 684 l 1
 90 430 l 2
 90 311 163 250 308 244 c 1
 308 684 l 1
 354 684 l 1
 354 244 l 1
 499 251 572 311 572 430 c 2
 572 684 l 1
EndSplineSet
EndChar

StartChar: uni03A9
Encoding: 937 937 374
Width: 691
Flags: W
LayerCount: 2
Fore
SplineSet
345 694 m 0
 510 694 621 572 621 344 c 0
 621 178 569 91 473 43 c 1
 599 43 l 1
 599 0 l 1
 406 0 l 1
 406 42 l 1
 514 82 571 174 571 344 c 0
 571 552 482 653 345 653 c 0
 211 653 120 551 120 343 c 0
 120 174 178 87 284 42 c 1
 284 0 l 1
 92 0 l 1
 92 43 l 1
 216 43 l 1
 117 95 70 182 70 343 c 0
 70 566 183 694 345 694 c 0
EndSplineSet
EndChar

StartChar: uni03AA
Encoding: 938 938 375
Width: 277
Flags: W
LayerCount: 2
Fore
SplineSet
47 858 m 0
 67 858 81 844 81 825 c 0
 81 806 67 792 47 792 c 0
 27 792 13 806 13 825 c 0
 13 844 27 858 47 858 c 0
229 858 m 0
 248 858 262 844 262 825 c 0
 262 806 248 792 229 792 c 0
 209 792 195 806 195 825 c 0
 195 844 209 858 229 858 c 0
162 684 m 1
 162 0 l 1
 115 0 l 1
 115 684 l 1
 162 684 l 1
EndSplineSet
EndChar

StartChar: uni03AB
Encoding: 939 939 376
Width: 513
Flags: W
LayerCount: 2
Fore
SplineSet
165 858 m 0
 185 858 199 844 199 825 c 0
 199 806 185 792 165 792 c 0
 145 792 131 806 131 825 c 0
 131 844 145 858 165 858 c 0
347 858 m 0
 366 858 380 844 380 825 c 0
 380 806 366 792 347 792 c 0
 327 792 313 806 313 825 c 0
 313 844 327 858 347 858 c 0
497 684 m 1
 281 269 l 1
 281 0 l 1
 234 0 l 1
 234 268 l 1
 16 684 l 1
 69 684 l 1
 259 312 l 1
 445 684 l 1
 497 684 l 1
EndSplineSet
EndChar

StartChar: uni03AC
Encoding: 940 940 377
Width: 597
Flags: W
LayerCount: 2
Fore
SplineSet
263 759 m 1
 315 755 l 1
 295 600 l 1
 263 600 l 1
 263 759 l 1
258 532 m 0
 349 532 403 487 432 329 c 1
 480 522 l 1
 526 522 l 1
 458 266 l 1
 497 83 l 2
 503 51 518 40 538 33 c 1
 521 -6 l 1
 491 1 464 19 454 67 c 2
 428 192 l 1
 399 54 340 -11 248 -11 c 0
 134 -11 67 79 67 262 c 0
 67 421 138 532 258 532 c 0
260 493 m 0
 177 493 115 412 115 262 c 0
 115 100 167 29 250 29 c 0
 319 29 381 78 416 268 c 1
 381 445 338 493 260 493 c 0
EndSplineSet
EndChar

StartChar: uni03AD
Encoding: 941 941 378
Width: 450
Flags: W
LayerCount: 2
Fore
SplineSet
234 759 m 1
 286 755 l 1
 266 600 l 1
 234 600 l 1
 234 759 l 1
252 532 m 0
 324 532 371 512 409 486 c 1
 385 456 l 1
 349 479 311 493 256 493 c 0
 174 493 128 455 128 393 c 0
 128 335 178 292 258 292 c 2
 317 292 l 1
 311 254 l 1
 255 254 l 2
 157 254 108 218 108 141 c 0
 108 70 165 29 250 29 c 0
 319 29 357 49 400 83 c 1
 424 52 l 1
 380 15 326 -11 248 -11 c 0
 139 -11 60 44 60 140 c 0
 60 227 116 267 191 276 c 1
 119 292 81 332 81 395 c 0
 81 481 152 532 252 532 c 0
EndSplineSet
EndChar

StartChar: uni03AE
Encoding: 942 942 379
Width: 585
Flags: W
LayerCount: 2
Fore
SplineSet
318 755 m 1
 298 600 l 1
 266 600 l 1
 266 759 l 1
 318 755 l 1
338 532 m 0
 432 532 481 474 481 371 c 2
 481 -203 l 1
 435 -195 l 1
 435 366 l 2
 435 455 400 494 331 494 c 0
 255 494 204 447 159 381 c 1
 159 0 l 1
 113 0 l 1
 113 355 l 2
 113 433 102 482 90 523 c 1
 132 529 l 1
 143 500 151 465 155 425 c 1
 198 489 258 532 338 532 c 0
EndSplineSet
EndChar

StartChar: uni03AF
Encoding: 943 943 380
Width: 263
Flags: W
LayerCount: 2
Fore
SplineSet
110 759 m 1
 162 755 l 1
 142 600 l 1
 110 600 l 1
 110 759 l 1
150 522 m 1
 150 118 l 2
 150 63 164 44 197 30 c 1
 183 -7 l 1
 125 12 104 44 104 115 c 2
 104 522 l 1
 150 522 l 1
EndSplineSet
EndChar

StartChar: uni03B0
Encoding: 944 944 381
Width: 560
Flags: W
LayerCount: 2
Fore
SplineSet
264 849 m 1
 309 847 l 1
 292 713 l 1
 264 713 l 1
 264 849 l 1
187 702 m 0
 207 702 221 688 221 669 c 0
 221 650 207 636 187 636 c 0
 167 636 153 650 153 669 c 0
 153 688 167 702 187 702 c 0
369 702 m 0
 388 702 402 688 402 669 c 0
 402 650 388 636 369 636 c 0
 349 636 335 650 335 669 c 0
 335 688 349 702 369 702 c 0
449 522 m 1
 463 443 475 357 475 262 c 0
 475 71 378 -11 269 -11 c 0
 177 -11 104 46 104 158 c 2
 104 522 l 1
 150 522 l 1
 150 161 l 2
 150 68 201 29 270 29 c 0
 347 29 428 84 428 264 c 0
 428 351 417 440 402 522 c 1
 449 522 l 1
EndSplineSet
EndChar

StartChar: uni03B1
Encoding: 945 945 382
Width: 597
Flags: W
LayerCount: 2
Fore
SplineSet
258 532 m 0
 349 532 403 487 432 329 c 1
 480 522 l 1
 526 522 l 1
 458 266 l 1
 497 83 l 2
 503 51 518 40 538 33 c 1
 521 -6 l 1
 491 1 464 19 454 67 c 2
 428 192 l 1
 399 54 340 -11 248 -11 c 0
 134 -11 67 79 67 262 c 0
 67 421 138 532 258 532 c 0
260 493 m 0
 177 493 115 412 115 262 c 0
 115 100 167 29 250 29 c 0
 319 29 381 78 416 268 c 1
 381 445 338 493 260 493 c 0
EndSplineSet
EndChar

StartChar: uni03B2
Encoding: 946 946 383
Width: 583
Flags: W
LayerCount: 2
Fore
SplineSet
320 400 m 1
 434 397 530 335 530 199 c 0
 529 67 434 -11 325 -11 c 0
 257 -11 202 11 156 60 c 1
 156 -195 l 1
 109 -203 l 1
 109 541 l 2
 109 669 186 741 300 741 c 0
 402 741 480 678 481 569 c 0
 481 466 419 411 320 400 c 1
323 29 m 0
 412 29 483 94 482 200 c 0
 482 317 401 379 268 379 c 2
 222 379 l 1
 228 417 l 1
 272 417 l 2
 338 417 436 446 435 568 c 0
 435 660 378 702 300 702 c 0
 214 702 156 651 156 540 c 2
 156 105 l 1
 204 51 251 29 323 29 c 0
EndSplineSet
EndChar

StartChar: uni03B3
Encoding: 947 947 384
Width: 455
Flags: W
LayerCount: 2
Fore
SplineSet
54 528 m 1
 105 461 168 331 228 62 c 1
 389 529 l 1
 437 518 l 1
 252 18 l 2
 223 -59 219 -115 239 -197 c 1
 201 -203 l 1
 173 -128 172 -73 203 11 c 1
 129 292 72 434 10 513 c 1
 54 528 l 1
EndSplineSet
EndChar

StartChar: uni03B4
Encoding: 948 948 385
Width: 563
Flags: W
LayerCount: 2
Fore
SplineSet
305 491 m 0
 436 441 497 375 497 237 c 0
 497 83 420 -11 282 -11 c 0
 151 -11 67 78 67 237 c 0
 67 359 131 438 229 480 c 1
 153 514 121 553 121 614 c 0
 121 684 183 741 283 741 c 0
 350 741 396 724 442 694 c 1
 417 663 l 1
 374 690 340 702 288 702 c 0
 211 702 168 664 168 613 c 0
 168 560 194 534 305 491 c 0
282 29 m 0
 391 29 448 99 448 237 c 0
 448 359 404 412 265 466 c 1
 181 428 115 358 115 237 c 0
 115 102 178 29 282 29 c 0
EndSplineSet
EndChar

StartChar: uni03B5
Encoding: 949 949 386
Width: 450
Flags: W
LayerCount: 2
Fore
SplineSet
252 532 m 0
 324 532 371 512 409 486 c 1
 385 456 l 1
 349 479 311 493 256 493 c 0
 174 493 128 455 128 393 c 0
 128 335 178 292 258 292 c 2
 317 292 l 1
 311 254 l 1
 255 254 l 2
 157 254 108 218 108 141 c 0
 108 70 165 29 250 29 c 0
 319 29 357 49 400 83 c 1
 424 52 l 1
 380 15 326 -11 248 -11 c 0
 139 -11 60 44 60 140 c 0
 60 227 116 267 191 276 c 1
 119 292 81 332 81 395 c 0
 81 481 152 532 252 532 c 0
EndSplineSet
EndChar

StartChar: uni03B6
Encoding: 950 950 387
Width: 369
Flags: W
LayerCount: 2
Fore
SplineSet
385 735 m 1
 392 700 l 1
 214 549 96 408 96 251 c 0
 96 149 129 113 233 73 c 0
 334 34 380 5 380 -58 c 0
 380 -120 338 -163 249 -203 c 1
 229 -170 l 1
 289 -144 331 -113 331 -60 c 0
 331 -20 309 0 204 40 c 0
 101 79 47 125 47 251 c 0
 47 414 178 573 342 700 c 1
 313 697 270 695 218 695 c 2
 43 695 l 1
 49 735 l 1
 385 735 l 1
EndSplineSet
EndChar

StartChar: uni03B7
Encoding: 951 951 388
Width: 585
Flags: W
LayerCount: 2
Fore
SplineSet
338 532 m 0
 432 532 481 474 481 371 c 2
 481 -203 l 1
 435 -195 l 1
 435 366 l 2
 435 455 400 494 331 494 c 0
 255 494 204 447 159 381 c 1
 159 0 l 1
 113 0 l 1
 113 355 l 2
 113 433 102 482 90 523 c 1
 132 529 l 1
 143 500 151 465 155 425 c 1
 198 489 258 532 338 532 c 0
EndSplineSet
EndChar

StartChar: uni03B8
Encoding: 952 952 389
Width: 558
Flags: W
LayerCount: 2
Fore
SplineSet
281 741 m 0
 425 741 492 609 492 370 c 0
 492 122 426 -11 277 -11 c 0
 133 -11 67 119 67 368 c 0
 67 612 140 741 281 741 c 0
281 701 m 0
 169 701 118 601 114 388 c 1
 444 388 l 1
 441 600 391 701 281 701 c 0
277 30 m 0
 391 30 441 132 444 350 c 1
 114 350 l 1
 116 134 169 30 277 30 c 0
EndSplineSet
EndChar

StartChar: uni03B9
Encoding: 953 953 390
Width: 263
Flags: W
LayerCount: 2
Fore
SplineSet
150 522 m 1
 150 118 l 2
 150 63 164 44 197 30 c 1
 183 -7 l 1
 125 12 104 44 104 115 c 2
 104 522 l 1
 150 522 l 1
EndSplineSet
EndChar

StartChar: uni03BA
Encoding: 954 954 391
Width: 492
Flags: W
LayerCount: 2
Fore
SplineSet
454 512 m 1
 221 274 l 1
 422 68 l 2
 444 45 459 33 481 26 c 1
 467 -9 l 1
 434 -5 417 12 389 42 c 2
 166 272 l 1
 418 532 l 1
 454 512 l 1
133 529 m 1
 146 490 159 450 159 346 c 2
 159 0 l 1
 113 0 l 1
 113 355 l 2
 113 433 102 482 90 523 c 1
 133 529 l 1
EndSplineSet
EndChar

StartChar: uni03BB
Encoding: 955 955 392
Width: 467
Flags: W
LayerCount: 2
Fore
SplineSet
86 742 m 1
 211 715 250 652 280 507 c 0
 348 176 407 97 471 9 c 1
 428 -8 l 1
 364 83 304 167 243 481 c 1
 79 -8 l 1
 35 3 l 1
 214 522 l 1
 234 522 l 1
 211 629 180 684 79 706 c 1
 86 742 l 1
EndSplineSet
EndChar

StartChar: uni03BC
Encoding: 956 956 393
Width: 584
Flags: W
LayerCount: 2
Fore
SplineSet
494 -3 m 1
 451 -8 l 1
 435 32 429 58 425 107 c 1
 389 44 339 -11 260 -11 c 0
 200 -11 166 15 147 57 c 1
 153 13 155 -22 155 -74 c 2
 155 -195 l 1
 109 -200 l 1
 109 522 l 1
 155 522 l 1
 155 148 l 2
 155 61 205 31 260 31 c 0
 327 31 380 76 419 155 c 1
 419 522 l 1
 465 522 l 1
 465 176 l 2
 465 98 477 46 494 -3 c 1
EndSplineSet
EndChar

StartChar: uni03BD
Encoding: 957 957 394
Width: 455
Flags: W
LayerCount: 2
Fore
SplineSet
54 528 m 1
 107 460 163 318 224 39 c 1
 392 528 l 1
 437 518 l 1
 249 0 l 1
 195 0 l 1
 127 287 72 434 10 513 c 1
 54 528 l 1
EndSplineSet
EndChar

StartChar: uni03BE
Encoding: 958 958 395
Width: 418
Flags: W
LayerCount: 2
Fore
SplineSet
269 741 m 0
 337 741 381 723 425 693 c 1
 401 661 l 1
 361 688 328 702 273 702 c 0
 182 702 144 648 144 583 c 0
 144 505 196 462 281 462 c 2
 338 462 l 1
 332 422 l 1
 274 422 l 2
 162 422 106 351 106 260 c 0
 106 160 147 125 264 81 c 0
 372 39 414 9 414 -56 c 0
 414 -120 371 -163 282 -203 c 1
 263 -170 l 1
 322 -144 364 -113 364 -59 c 0
 364 -16 342 6 240 46 c 0
 129 90 57 126 57 261 c 0
 57 378 135 435 215 444 c 1
 142 461 97 504 97 585 c 0
 97 676 163 741 269 741 c 0
EndSplineSet
EndChar

StartChar: uni03BF
Encoding: 959 959 396
Width: 567
Flags: W
LayerCount: 2
Fore
SplineSet
284 532 m 0
 419 532 500 435 500 263 c 0
 500 92 417 -11 283 -11 c 0
 148 -11 67 92 67 260 c 0
 67 430 151 532 284 532 c 0
284 492 m 0
 181 492 115 414 115 260 c 0
 115 110 178 29 283 29 c 0
 387 29 452 109 452 263 c 0
 452 414 390 492 284 492 c 0
EndSplineSet
EndChar

StartChar: uni03C0
Encoding: 960 960 397
Width: 583
Flags: W
LayerCount: 2
Fore
SplineSet
535 481 m 1
 451 481 l 1
 451 118 l 2
 451 63 465 44 499 30 c 1
 484 -7 l 1
 425 12 405 44 405 115 c 2
 405 481 l 1
 179 481 l 1
 179 0 l 1
 133 0 l 1
 133 481 l 1
 116 481 l 2
 79 481 65 479 38 471 c 1
 28 509 l 1
 55 520 77 522 113 522 c 2
 535 522 l 1
 535 481 l 1
EndSplineSet
EndChar

StartChar: uni03C1
Encoding: 961 961 398
Width: 565
Flags: W
LayerCount: 2
Fore
SplineSet
295 532 m 0
 425 532 494 430 494 264 c 0
 494 90 419 -11 298 -11 c 0
 232 -11 178 22 145 71 c 1
 145 -195 l 1
 99 -203 l 1
 99 290 l 2
 99 435 162 532 295 532 c 0
292 30 m 0
 387 30 444 107 444 264 c 0
 444 415 393 493 295 493 c 0
 192 493 145 414 145 283 c 2
 145 123 l 1
 177 64 228 30 292 30 c 0
EndSplineSet
EndChar

StartChar: uni03C2
Encoding: 962 962 399
Width: 455
Flags: W
LayerCount: 2
Fore
SplineSet
285 532 m 0
 342 532 385 517 428 481 c 1
 404 450 l 1
 370 477 336 492 287 492 c 0
 187 492 115 414 115 268 c 0
 115 151 162 109 271 69 c 0
 362 35 406 9 406 -56 c 0
 406 -120 364 -163 275 -203 c 1
 256 -171 l 1
 314 -144 357 -113 357 -59 c 0
 357 -16 335 -1 242 33 c 0
 130 74 67 131 67 268 c 0
 67 430 153 532 285 532 c 0
EndSplineSet
EndChar

StartChar: uni03C3
Encoding: 963 963 400
Width: 573
Flags: W
LayerCount: 2
Fore
SplineSet
524 522 m 1
 524 484 l 1
 392 492 l 1
 455 456 500 378 500 263 c 0
 500 92 417 -11 283 -11 c 0
 148 -11 67 92 67 260 c 0
 67 421 144 529 318 529 c 0
 385 529 460 526 524 522 c 1
452 263 m 0
 452 382 406 457 343 494 c 1
 338 494 l 2
 175 495 115 412 115 260 c 0
 115 110 178 29 283 29 c 0
 387 29 452 109 452 263 c 0
EndSplineSet
EndChar

StartChar: uni03C4
Encoding: 964 964 401
Width: 443
Flags: W
LayerCount: 2
Fore
SplineSet
432 481 m 1
 238 481 l 1
 238 118 l 2
 238 63 252 44 286 30 c 1
 272 -7 l 1
 213 12 192 44 192 115 c 2
 192 481 l 1
 92 481 l 2
 53 481 40 479 12 471 c 1
 2 509 l 1
 30 520 51 522 87 522 c 2
 432 522 l 1
 432 481 l 1
EndSplineSet
EndChar

StartChar: uni03C5
Encoding: 965 965 402
Width: 560
Flags: W
LayerCount: 2
Fore
SplineSet
449 522 m 1
 463 443 475 357 475 262 c 0
 475 71 378 -11 269 -11 c 0
 177 -11 104 46 104 158 c 2
 104 522 l 1
 150 522 l 1
 150 161 l 2
 150 68 201 29 270 29 c 0
 347 29 428 84 428 264 c 0
 428 351 417 440 402 522 c 1
 449 522 l 1
EndSplineSet
EndChar

StartChar: uni03C6
Encoding: 966 966 403
Width: 715
Flags: W
LayerCount: 2
Fore
SplineSet
643 265 m 0
 643 81 569 -2 376 -11 c 1
 376 -195 l 1
 331 -203 l 1
 331 -10 l 1
 159 -1 80 76 80 244 c 0
 80 357 109 448 137 522 c 1
 183 522 l 1
 158 455 127 361 127 246 c 0
 127 88 199 38 331 28 c 1
 331 350 l 2
 331 476 388 532 479 532 c 0
 579 532 643 464 643 265 c 0
376 27 m 1
 533 35 596 94 596 265 c 0
 596 436 555 494 479 494 c 0
 420 494 376 466 376 344 c 2
 376 27 l 1
EndSplineSet
EndChar

StartChar: uni03C7
Encoding: 967 967 404
Width: 435
Flags: W
LayerCount: 2
Fore
SplineSet
241 183 m 1
 422 -191 l 1
 377 -201 l 1
 217 143 l 1
 55 -200 l 1
 9 -194 l 1
 194 184 l 1
 110 374 66 445 6 513 c 1
 51 530 l 1
 106 466 147 398 218 221 c 1
 353 527 l 1
 401 522 l 1
 241 183 l 1
EndSplineSet
EndChar

StartChar: uni03C8
Encoding: 968 968 405
Width: 741
Flags: W
LayerCount: 2
Fore
SplineSet
657 268 m 0
 657 71 560 -2 393 -11 c 1
 393 -195 l 1
 348 -203 l 1
 348 -11 l 1
 181 -7 95 63 95 201 c 2
 96 522 l 1
 142 522 l 1
 141 202 l 2
 141 86 207 33 348 29 c 1
 348 522 l 1
 393 522 l 1
 393 29 l 1
 538 35 610 101 610 269 c 0
 610 356 601 429 584 522 c 1
 631 522 l 1
 647 433 657 362 657 268 c 0
EndSplineSet
EndChar

StartChar: uni03C9
Encoding: 969 969 406
Width: 772
Flags: W
LayerCount: 2
Fore
SplineSet
637 522 m 1
 661 462 692 362 692 236 c 0
 692 45 606 -11 520 -11 c 0
 448 -11 396 26 386 111 c 1
 371 26 321 -11 249 -11 c 0
 151 -11 80 61 80 238 c 0
 80 362 110 453 137 522 c 1
 184 522 l 1
 148 430 127 339 127 236 c 0
 127 78 185 29 252 29 c 0
 312 29 363 64 363 179 c 2
 363 352 l 1
 409 359 l 1
 409 178 l 2
 409 64 459 29 516 29 c 0
 579 29 645 67 645 235 c 0
 645 339 623 430 590 522 c 1
 637 522 l 1
EndSplineSet
EndChar

StartChar: uni03CA
Encoding: 970 970 407
Width: 263
Flags: W
LayerCount: 2
Fore
SplineSet
36 732 m 0
 56 732 70 718 70 699 c 0
 70 680 56 666 36 666 c 0
 16 666 2 680 2 699 c 0
 2 718 16 732 36 732 c 0
218 732 m 0
 237 732 251 718 251 699 c 0
 251 680 237 666 218 666 c 0
 198 666 184 680 184 699 c 0
 184 718 198 732 218 732 c 0
150 522 m 1
 150 118 l 2
 150 63 164 44 197 30 c 1
 183 -7 l 1
 125 12 104 44 104 115 c 2
 104 522 l 1
 150 522 l 1
EndSplineSet
EndChar

StartChar: uni03CB
Encoding: 971 971 408
Width: 560
Flags: W
LayerCount: 2
Fore
SplineSet
187 732 m 0
 207 732 221 718 221 699 c 0
 221 680 207 666 187 666 c 0
 167 666 153 680 153 699 c 0
 153 718 167 732 187 732 c 0
369 732 m 0
 388 732 402 718 402 699 c 0
 402 680 388 666 369 666 c 0
 349 666 335 680 335 699 c 0
 335 718 349 732 369 732 c 0
449 522 m 1
 463 443 475 357 475 262 c 0
 475 71 378 -11 269 -11 c 0
 177 -11 104 46 104 158 c 2
 104 522 l 1
 150 522 l 1
 150 161 l 2
 150 68 201 29 270 29 c 0
 347 29 428 84 428 264 c 0
 428 351 417 440 402 522 c 1
 449 522 l 1
EndSplineSet
EndChar

StartChar: uni03CC
Encoding: 972 972 409
Width: 567
Flags: W
LayerCount: 2
Fore
SplineSet
267 759 m 1
 319 755 l 1
 299 600 l 1
 267 600 l 1
 267 759 l 1
284 532 m 0
 419 532 500 435 500 263 c 0
 500 92 417 -11 283 -11 c 0
 148 -11 67 92 67 260 c 0
 67 430 151 532 284 532 c 0
284 492 m 0
 181 492 115 414 115 260 c 0
 115 110 178 29 283 29 c 0
 387 29 452 109 452 263 c 0
 452 414 390 492 284 492 c 0
EndSplineSet
EndChar

StartChar: uni03CD
Encoding: 973 973 410
Width: 560
Flags: W
LayerCount: 2
Fore
SplineSet
262 759 m 1
 314 755 l 1
 294 600 l 1
 262 600 l 1
 262 759 l 1
449 522 m 1
 463 443 475 357 475 262 c 0
 475 71 378 -11 269 -11 c 0
 177 -11 104 46 104 158 c 2
 104 522 l 1
 150 522 l 1
 150 161 l 2
 150 68 201 29 270 29 c 0
 347 29 428 84 428 264 c 0
 428 351 417 440 402 522 c 1
 449 522 l 1
EndSplineSet
EndChar

StartChar: uni03CE
Encoding: 974 974 411
Width: 772
Flags: W
LayerCount: 2
Fore
SplineSet
372 759 m 1
 424 755 l 1
 404 600 l 1
 372 600 l 1
 372 759 l 1
637 522 m 1
 661 462 692 362 692 236 c 0
 692 45 606 -11 520 -11 c 0
 448 -11 396 26 386 111 c 1
 371 26 321 -11 249 -11 c 0
 151 -11 80 61 80 238 c 0
 80 362 110 453 137 522 c 1
 184 522 l 1
 148 430 127 339 127 236 c 0
 127 78 185 29 252 29 c 0
 312 29 363 64 363 179 c 2
 363 352 l 1
 409 359 l 1
 409 178 l 2
 409 64 459 29 516 29 c 0
 579 29 645 67 645 235 c 0
 645 339 623 430 590 522 c 1
 637 522 l 1
EndSplineSet
EndChar

StartChar: uni03D0
Encoding: 976 976 412
Width: 569
Flags: W
LayerCount: 2
Fore
SplineSet
321 427 m 0
 449 427 508 344 508 223 c 0
 508 89 424 -11 293 -11 c 0
 137 -11 67 112 67 350 c 0
 67 614 204 741 337 741 c 0
 424 741 470 684 470 620 c 0
 470 530 420 472 276 421 c 1
 293 425 308 427 321 427 c 0
334 702 m 0
 239 702 127 621 118 382 c 1
 169 402 l 2
 392 490 422 540 422 618 c 0
 422 666 392 702 334 702 c 0
294 29 m 0
 395 29 459 105 459 221 c 0
 459 325 409 396 307 396 c 0
 255 396 219 383 168 363 c 2
 117 342 l 1
 117 134 167 29 294 29 c 0
EndSplineSet
EndChar

StartChar: uni03D1
Encoding: 977 977 413
Width: 530
Flags: W
LayerCount: 2
Fore
SplineSet
507 452 m 1
 507 412 l 1
 465 412 l 1
 465 401 l 2
 465 122 388 -11 235 -11 c 0
 142 -11 74 46 74 158 c 2
 74 342 l 1
 120 342 l 1
 120 161 l 2
 120 68 170 29 236 29 c 0
 356 30 416 141 416 401 c 2
 416 412 l 1
 268 412 l 2
 117 412 55 477 55 576 c 0
 55 666 123 741 232 741 c 0
 378 741 452 628 463 452 c 1
 507 452 l 1
268 452 m 2
 414 452 l 1
 405 610 346 701 233 701 c 0
 149 701 102 647 102 576 c 0
 102 496 151 451 268 452 c 2
EndSplineSet
EndChar

StartChar: uni03D2
Encoding: 978 978 414
Width: 535
Flags: W
LayerCount: 2
Fore
SplineSet
234 0 m 1
 234 268 l 1
 16 684 l 1
 69 684 l 1
 259 310 l 1
 395 607 l 2
 423 667 453 694 505 694 c 0
 544 694 570 677 594 657 c 1
 572 629 l 1
 553 645 536 656 507 656 c 0
 475 656 458 642 434 591 c 2
 281 269 l 1
 281 0 l 1
 234 0 l 1
EndSplineSet
EndChar

StartChar: uni03D5
Encoding: 981 981 415
Width: 622
Flags: W
LayerCount: 2
Fore
SplineSet
569 263 m 0
 569 105 485 12 334 6 c 1
 334 -195 l 1
 288 -203 l 1
 288 6 l 1
 136 12 53 107 53 262 c 0
 53 413 138 510 288 516 c 1
 288 735 l 1
 334 741 l 1
 334 516 l 1
 486 510 569 415 569 263 c 0
102 262 m 0
 102 125 170 50 290 45 c 1
 290 478 l 1
 168 471 102 395 102 262 c 0
333 44 m 1
 454 50 520 124 520 263 c 0
 520 396 454 471 333 477 c 1
 333 44 l 1
EndSplineSet
EndChar

StartChar: uni03D6
Encoding: 982 982 416
Width: 729
Flags: W
LayerCount: 2
Fore
SplineSet
675 522 m 1
 675 482 l 1
 573 482 l 1
 614 421 651 333 651 216 c 0
 651 45 570 -11 493 -11 c 0
 427 -11 375 26 365 111 c 1
 350 26 300 -11 234 -11 c 0
 145 -11 79 61 79 218 c 0
 79 335 115 417 159 481 c 1
 139 481 l 2
 103 481 89 480 62 472 c 1
 52 509 l 1
 79 520 97 522 151 522 c 2
 675 522 l 1
604 215 m 0
 604 321 573 403 525 482 c 1
 205 481 l 1
 156 402 126 321 126 216 c 0
 126 78 179 29 236 29 c 0
 291 29 342 64 342 179 c 2
 342 315 l 1
 387 321 l 1
 387 178 l 2
 387 64 437 29 489 29 c 0
 543 29 604 67 604 215 c 0
EndSplineSet
EndChar

StartChar: uni03D7
Encoding: 983 983 417
Width: 590
Flags: W
LayerCount: 2
Fore
SplineSet
477 117 m 2
 477 62 491 42 524 30 c 1
 524 -76 l 2
 524 -161 478 -203 407 -203 c 0
 363 -203 332 -186 311 -170 c 1
 331 -140 l 1
 352 -153 373 -163 406 -163 c 0
 447 -163 478 -142 478 -77 c 2
 478 11 l 1
 444 31 431 62 431 118 c 0
 431 234 437 422 438 470 c 1
 164 -9 l 1
 114 6 l 1
 114 404 l 2
 114 459 100 478 66 492 c 1
 81 529 l 1
 139 510 160 475 160 403 c 0
 160 287 154 100 153 51 c 1
 427 531 l 1
 477 516 l 1
 477 117 l 2
EndSplineSet
EndChar

StartChar: uni03F0
Encoding: 1008 1008 418
Width: 591
Flags: W
LayerCount: 2
Fore
SplineSet
477 117 m 2
 477 62 491 43 525 30 c 1
 510 -8 l 1
 452 11 431 46 431 118 c 0
 431 234 437 422 438 470 c 1
 164 -9 l 1
 114 6 l 1
 114 404 l 2
 114 459 100 478 66 492 c 1
 81 529 l 1
 139 510 160 475 160 403 c 0
 160 287 154 100 153 51 c 1
 427 531 l 1
 477 516 l 1
 477 117 l 2
EndSplineSet
EndChar

StartChar: uni03F1
Encoding: 1009 1009 419
Width: 565
Flags: W
LayerCount: 2
Fore
SplineSet
288 -109 m 0
 382 -124 414 -147 431 -188 c 1
 388 -203 l 1
 369 -172 349 -160 263 -146 c 0
 147 -127 99 -87 99 14 c 2
 99 290 l 2
 99 435 162 532 295 532 c 0
 425 532 494 430 494 283 c 0
 494 125 419 23 298 23 c 0
 232 23 178 56 145 106 c 1
 145 14 l 2
 145 -67 180 -92 288 -109 c 0
295 493 m 0
 192 493 145 414 145 283 c 2
 145 158 l 1
 177 98 228 63 292 63 c 0
 387 63 444 142 444 283 c 0
 444 415 393 493 295 493 c 0
EndSplineSet
EndChar

StartChar: uni03F2
Encoding: 1010 1010 420
Width: 504
Flags: W
LayerCount: 2
Fore
SplineSet
305 532 m 0
 372 532 415 517 466 481 c 1
 442 450 l 1
 401 477 365 492 307 492 c 0
 197 492 116 414 116 258 c 0
 116 104 196 30 306 30 c 0
 366 30 403 47 448 75 c 1
 471 45 l 1
 423 10 374 -11 306 -11 c 0
 164 -11 67 88 67 258 c 0
 67 426 163 532 305 532 c 0
EndSplineSet
EndChar

StartChar: uni03F4
Encoding: 1012 1012 421
Width: 691
Flags: W
LayerCount: 2
Fore
SplineSet
345 694 m 0
 509 694 621 572 621 340 c 0
 621 117 513 -11 345 -11 c 0
 182 -11 70 113 70 339 c 0
 70 566 183 694 345 694 c 0
345 653 m 0
 217 653 128 561 120 369 c 1
 571 369 l 1
 563 561 476 653 345 653 c 0
345 31 m 0
 483 31 569 130 572 330 c 1
 119 330 l 1
 122 130 214 31 345 31 c 0
EndSplineSet
EndChar

StartChar: uni03F5
Encoding: 1013 1013 422
Width: 475
Flags: W
LayerCount: 2
Fore
SplineSet
411 75 m 1
 434 42 l 1
 393 10 344 -11 285 -11 c 0
 154 -11 67 88 67 261 c 0
 67 429 156 532 287 532 c 0
 342 532 386 517 433 481 c 1
 408 450 l 1
 369 479 334 493 288 493 c 0
 193 493 123 423 115 288 c 1
 366 288 l 1
 366 250 l 1
 114 250 l 1
 117 101 189 30 285 30 c 0
 335 30 370 45 411 75 c 1
EndSplineSet
EndChar

StartChar: uni03F6
Encoding: 1014 1014 423
Width: 472
Flags: W
LayerCount: 2
Fore
SplineSet
217 532 m 0
 331 532 405 456 405 265 c 0
 405 93 334 -11 204 -11 c 0
 130 -11 83 14 41 47 c 1
 65 78 l 1
 101 50 139 30 200 30 c 0
 300 30 355 104 358 251 c 1
 117 251 l 1
 117 289 l 1
 358 289 l 1
 351 440 296 493 217 493 c 0
 161 493 123 476 82 448 c 1
 59 478 l 1
 104 512 153 532 217 532 c 0
EndSplineSet
EndChar

StartChar: uni0400
Encoding: 1024 1024 424
Width: 504
Flags: W
LayerCount: 2
Fore
SplineSet
205 880 m 1
 388 788 l 1
 375 759 l 1
 183 836 l 1
 205 880 l 1
454 684 m 1
 448 643 l 1
 162 643 l 1
 162 377 l 1
 409 377 l 1
 409 336 l 1
 162 336 l 1
 162 41 l 1
 460 41 l 1
 460 0 l 1
 115 0 l 1
 115 684 l 1
 454 684 l 1
EndSplineSet
EndChar

StartChar: uni0401
Encoding: 1025 1025 425
Width: 504
Flags: W
LayerCount: 2
Fore
SplineSet
197 858 m 0
 217 858 231 844 231 825 c 0
 231 806 217 792 197 792 c 0
 177 792 163 806 163 825 c 0
 163 844 177 858 197 858 c 0
379 858 m 0
 398 858 412 844 412 825 c 0
 412 806 398 792 379 792 c 0
 359 792 345 806 345 825 c 0
 345 844 359 858 379 858 c 0
454 684 m 1
 448 643 l 1
 162 643 l 1
 162 377 l 1
 409 377 l 1
 409 336 l 1
 162 336 l 1
 162 41 l 1
 460 41 l 1
 460 0 l 1
 115 0 l 1
 115 684 l 1
 454 684 l 1
EndSplineSet
EndChar

StartChar: uni0402
Encoding: 1026 1026 426
Width: 695
Flags: W
LayerCount: 2
Fore
SplineSet
455 431 m 0
 581 431 645 358 645 241 c 2
 645 90 l 2
 645 -24 609 -66 498 -113 c 1
 484 -78 l 1
 575 -36 597 0 597 93 c 2
 597 239 l 2
 597 330 554 389 449 389 c 0
 373 389 318 357 267 295 c 1
 267 0 l 1
 220 0 l 1
 220 641 l 1
 15 641 l 1
 15 684 l 1
 477 684 l 1
 471 641 l 1
 267 641 l 1
 267 347 l 1
 315 399 372 431 455 431 c 0
EndSplineSet
EndChar

StartChar: uni0403
Encoding: 1027 1027 427
Width: 508
Flags: W
LayerCount: 2
Fore
SplineSet
428 836 m 1
 236 759 l 1
 223 788 l 1
 407 880 l 1
 428 836 l 1
498 684 m 1
 491 640 l 1
 162 640 l 1
 162 0 l 1
 115 0 l 1
 115 684 l 1
 498 684 l 1
EndSplineSet
EndChar

StartChar: uni0404
Encoding: 1028 1028 428
Width: 547
Flags: W
LayerCount: 2
Fore
SplineSet
497 90 m 1
 523 58 l 1
 481 19 424 -11 342 -11 c 0
 186 -11 70 112 70 344 c 0
 70 577 193 694 344 694 c 0
 422 694 468 671 515 633 c 1
 489 601 l 1
 443 637 405 653 347 653 c 0
 228 653 129 572 121 376 c 1
 398 376 l 1
 398 335 l 1
 120 335 l 1
 122 129 220 32 344 32 c 0
 416 32 456 57 497 90 c 1
EndSplineSet
EndChar

StartChar: uni0405
Encoding: 1029 1029 429
Width: 537
Flags: W
LayerCount: 2
Fore
SplineSet
266 694 m 0
 353 694 405 666 457 620 c 1
 429 589 l 1
 378 634 332 653 267 653 c 0
 178 653 119 604 119 531 c 0
 119 456 160 423 282 386 c 0
 410 347 478 302 478 185 c 0
 478 69 390 -11 258 -11 c 0
 166 -11 99 22 44 74 c 1
 72 105 l 1
 122 60 175 31 257 31 c 0
 358 31 430 88 430 184 c 0
 430 272 387 308 263 346 c 0
 125 388 71 435 71 530 c 0
 71 624 149 694 266 694 c 0
EndSplineSet
EndChar

StartChar: uni0406
Encoding: 1030 1030 430
Width: 277
Flags: W
LayerCount: 2
Fore
SplineSet
162 684 m 1
 162 0 l 1
 115 0 l 1
 115 684 l 1
 162 684 l 1
EndSplineSet
EndChar

StartChar: uni0407
Encoding: 1031 1031 431
Width: 277
Flags: W
LayerCount: 2
Fore
SplineSet
47 858 m 0
 67 858 81 844 81 825 c 0
 81 806 67 792 47 792 c 0
 27 792 13 806 13 825 c 0
 13 844 27 858 47 858 c 0
229 858 m 0
 248 858 262 844 262 825 c 0
 262 806 248 792 229 792 c 0
 209 792 195 806 195 825 c 0
 195 844 209 858 229 858 c 0
162 684 m 1
 162 0 l 1
 115 0 l 1
 115 684 l 1
 162 684 l 1
EndSplineSet
EndChar

StartChar: uni0408
Encoding: 1032 1032 432
Width: 286
Flags: W
LayerCount: 2
Fore
SplineSet
177 684 m 1
 177 90 l 2
 177 -24 141 -66 29 -113 c 1
 16 -78 l 1
 107 -36 129 0 129 93 c 2
 129 684 l 1
 177 684 l 1
EndSplineSet
EndChar

StartChar: uni0409
Encoding: 1033 1033 433
Width: 886
Flags: W
LayerCount: 2
Fore
SplineSet
607 412 m 2
 756 412 847 347 847 213 c 0
 847 63 747 0 607 0 c 2
 454 0 l 1
 454 642 l 1
 219 642 l 1
 176 294 l 2
 149 73 139 24 47 -8 c 1
 34 31 l 1
 99 55 103 95 128 294 c 2
 177 684 l 1
 502 684 l 1
 502 412 l 1
 607 412 l 2
613 41 m 2
 722 41 797 88 797 213 c 0
 797 324 727 372 610 372 c 2
 502 372 l 1
 502 41 l 1
 613 41 l 2
EndSplineSet
EndChar

StartChar: uni040A
Encoding: 1034 1034 434
Width: 928
Flags: W
LayerCount: 2
Fore
SplineSet
661 392 m 2
 798 392 889 331 889 202 c 0
 889 61 789 0 658 0 c 2
 496 0 l 1
 496 352 l 1
 162 352 l 1
 162 0 l 1
 115 0 l 1
 115 684 l 1
 162 684 l 1
 162 392 l 1
 496 392 l 1
 496 684 l 1
 544 684 l 1
 544 392 l 1
 661 392 l 2
666 41 m 2
 766 41 839 87 839 203 c 0
 839 307 767 352 663 352 c 2
 544 352 l 1
 544 41 l 1
 666 41 l 2
EndSplineSet
EndChar

StartChar: uni040B
Encoding: 1035 1035 435
Width: 695
Flags: W
LayerCount: 2
Fore
SplineSet
454 431 m 0
 580 431 645 358 645 241 c 2
 645 0 l 1
 597 0 l 1
 597 239 l 2
 597 330 554 389 449 389 c 0
 373 389 318 357 267 295 c 1
 267 0 l 1
 220 0 l 1
 220 641 l 1
 15 641 l 1
 15 684 l 1
 477 684 l 1
 471 641 l 1
 267 641 l 1
 267 347 l 1
 315 399 372 431 454 431 c 0
EndSplineSet
EndChar

StartChar: uni040C
Encoding: 1036 1036 436
Width: 551
Flags: W
LayerCount: 2
Fore
SplineSet
386 880 m 1
 407 836 l 1
 215 759 l 1
 202 788 l 1
 386 880 l 1
521 684 m 1
 316 362 l 1
 537 0 l 1
 482 0 l 1
 276 340 l 1
 162 340 l 1
 162 0 l 1
 115 0 l 1
 115 684 l 1
 162 684 l 1
 162 381 l 1
 277 381 l 1
 470 684 l 1
 521 684 l 1
EndSplineSet
EndChar

StartChar: uni040D
Encoding: 1037 1037 437
Width: 669
Flags: W
LayerCount: 2
Fore
SplineSet
252 880 m 1
 435 788 l 1
 422 759 l 1
 230 836 l 1
 252 880 l 1
554 684 m 1
 554 0 l 1
 507 0 l 1
 507 375 l 2
 507 476 509 566 513 630 c 1
 174 0 l 1
 115 0 l 1
 115 684 l 1
 162 684 l 1
 162 308 l 2
 162 211 159 112 156 53 c 1
 496 684 l 1
 554 684 l 1
EndSplineSet
EndChar

StartChar: uni040E
Encoding: 1038 1038 438
Width: 511
Flags: W
LayerCount: 2
Fore
SplineSet
263 767 m 0
 197 767 149 800 140 851 c 1
 172 858 l 1
 185 823 216 806 263 806 c 0
 310 806 341 823 354 858 c 1
 386 851 l 1
 377 800 328 767 263 767 c 0
505 684 m 1
 302 191 l 2
 244 50 216 17 107 -11 c 1
 97 26 l 1
 183 49 208 71 257 193 c 1
 243 193 l 1
 11 684 l 1
 62 684 l 1
 273 226 l 1
 456 684 l 1
 505 684 l 1
EndSplineSet
EndChar

StartChar: uni040F
Encoding: 1039 1039 439
Width: 657
Flags: W
LayerCount: 2
Fore
SplineSet
542 684 m 1
 542 0 l 1
 351 0 l 1
 351 -143 l 1
 315 -143 l 1
 303 0 l 1
 115 0 l 1
 115 684 l 1
 162 684 l 1
 162 42 l 1
 494 42 l 1
 494 684 l 1
 542 684 l 1
EndSplineSet
EndChar

StartChar: uni0410
Encoding: 1040 1040 440
Width: 562
Flags: W
LayerCount: 2
Fore
SplineSet
491 0 m 1
 429 192 l 1
 131 192 l 1
 68 0 l 1
 20 0 l 1
 251 684 l 1
 311 684 l 1
 542 0 l 1
 491 0 l 1
145 234 m 1
 415 234 l 1
 281 645 l 1
 145 234 l 1
EndSplineSet
EndChar

StartChar: uni0411
Encoding: 1041 1041 441
Width: 566
Flags: W
LayerCount: 2
Fore
SplineSet
279 414 m 2
 427 414 517 348 517 213 c 0
 517 63 418 0 278 0 c 2
 115 0 l 1
 115 684 l 1
 451 684 l 1
 444 642 l 1
 162 642 l 1
 162 414 l 1
 279 414 l 2
286 41 m 2
 394 41 467 88 467 214 c 0
 467 325 398 373 281 373 c 2
 162 373 l 1
 162 41 l 1
 286 41 l 2
EndSplineSet
EndChar

StartChar: uni0412
Encoding: 1042 1042 442
Width: 594
Flags: W
LayerCount: 2
Fore
SplineSet
380 363 m 1
 464 355 538 306 538 188 c 0
 538 63 448 0 300 0 c 2
 115 0 l 1
 115 684 l 1
 264 684 l 2
 416 684 505 628 505 514 c 0
 505 424 453 376 380 363 c 1
269 643 m 2
 162 643 l 1
 162 380 l 1
 312 380 l 2
 398 380 456 428 456 511 c 0
 456 605 388 643 269 643 c 2
301 41 m 2
 416 41 488 85 488 188 c 0
 488 294 415 340 318 340 c 2
 162 340 l 1
 162 41 l 1
 301 41 l 2
EndSplineSet
EndChar

StartChar: uni0413
Encoding: 1043 1043 443
Width: 508
Flags: W
LayerCount: 2
Fore
SplineSet
498 684 m 1
 491 640 l 1
 162 640 l 1
 162 0 l 1
 115 0 l 1
 115 684 l 1
 498 684 l 1
EndSplineSet
EndChar

StartChar: uni0414
Encoding: 1044 1044 444
Width: 597
Flags: W
LayerCount: 2
Fore
SplineSet
482 42 m 1
 531 42 l 1
 531 -143 l 1
 496 -143 l 1
 484 0 l 1
 41 0 l 1
 29 -143 l 1
 -6 -143 l 1
 -6 42 l 1
 37 42 l 1
 81 86 106 142 140 410 c 2
 174 684 l 1
 482 684 l 1
 482 42 l 1
435 42 m 1
 435 642 l 1
 215 642 l 1
 187 410 l 2
 156 154 130 87 81 42 c 1
 435 42 l 1
EndSplineSet
EndChar

StartChar: uni0415
Encoding: 1045 1045 445
Width: 504
Flags: W
LayerCount: 2
Fore
SplineSet
454 684 m 1
 448 643 l 1
 162 643 l 1
 162 377 l 1
 409 377 l 1
 409 336 l 1
 162 336 l 1
 162 41 l 1
 460 41 l 1
 460 0 l 1
 115 0 l 1
 115 684 l 1
 454 684 l 1
EndSplineSet
EndChar

StartChar: uni0416
Encoding: 1046 1046 446
Width: 756
Flags: W
LayerCount: 2
Fore
SplineSet
728 684 m 1
 538 362 l 1
 744 0 l 1
 690 0 l 1
 499 340 l 1
 401 340 l 1
 401 0 l 1
 355 0 l 1
 355 340 l 1
 257 340 l 1
 65 0 l 1
 12 0 l 1
 218 362 l 1
 28 684 l 1
 81 684 l 1
 258 381 l 1
 355 381 l 1
 355 684 l 1
 401 684 l 1
 401 381 l 1
 499 381 l 1
 678 684 l 1
 728 684 l 1
EndSplineSet
EndChar

StartChar: uni0417
Encoding: 1047 1047 447
Width: 520
Flags: W
LayerCount: 2
Fore
SplineSet
236 -11 m 0
 154 -11 83 20 25 82 c 1
 55 110 l 1
 102 62 159 32 235 32 c 0
 341 32 413 91 413 196 c 0
 413 292 351 349 236 347 c 2
 175 347 l 1
 181 388 l 1
 233 388 l 2
 328 388 393 436 393 524 c 0
 393 599 343 653 249 653 c 0
 180 653 125 625 74 581 c 1
 47 611 l 1
 107 665 170 694 251 694 c 0
 373 694 442 623 442 525 c 0
 442 436 387 387 311 370 c 1
 394 361 463 306 463 197 c 0
 463 68 368 -11 236 -11 c 0
EndSplineSet
EndChar

StartChar: uni0418
Encoding: 1048 1048 448
Width: 669
Flags: W
LayerCount: 2
Fore
SplineSet
554 684 m 1
 554 0 l 1
 507 0 l 1
 507 375 l 2
 507 476 509 566 513 630 c 1
 174 0 l 1
 115 0 l 1
 115 684 l 1
 162 684 l 1
 162 308 l 2
 162 211 159 112 156 53 c 1
 496 684 l 1
 554 684 l 1
EndSplineSet
EndChar

StartChar: uni0419
Encoding: 1049 1049 449
Width: 669
Flags: W
LayerCount: 2
Fore
SplineSet
335 767 m 0
 269 767 221 800 212 851 c 1
 244 858 l 1
 257 823 288 806 335 806 c 0
 382 806 413 823 426 858 c 1
 458 851 l 1
 449 800 400 767 335 767 c 0
554 684 m 1
 554 0 l 1
 507 0 l 1
 507 375 l 2
 507 476 509 566 513 630 c 1
 174 0 l 1
 115 0 l 1
 115 684 l 1
 162 684 l 1
 162 308 l 2
 162 211 159 112 156 53 c 1
 496 684 l 1
 554 684 l 1
EndSplineSet
EndChar

StartChar: uni041A
Encoding: 1050 1050 450
Width: 551
Flags: W
LayerCount: 2
Fore
SplineSet
521 684 m 1
 316 362 l 1
 537 0 l 1
 482 0 l 1
 276 340 l 1
 162 340 l 1
 162 0 l 1
 115 0 l 1
 115 684 l 1
 162 684 l 1
 162 381 l 1
 277 381 l 1
 470 684 l 1
 521 684 l 1
EndSplineSet
EndChar

StartChar: uni041B
Encoding: 1051 1051 451
Width: 643
Flags: W
LayerCount: 2
Fore
SplineSet
177 684 m 1
 528 684 l 1
 528 0 l 1
 480 0 l 1
 480 642 l 1
 219 642 l 1
 176 294 l 2
 149 73 139 24 47 -8 c 1
 34 31 l 1
 99 55 103 95 128 294 c 2
 177 684 l 1
EndSplineSet
EndChar

StartChar: uni041C
Encoding: 1052 1052 452
Width: 768
Flags: W
LayerCount: 2
Fore
SplineSet
627 684 m 1
 696 0 l 1
 650 0 l 1
 616 334 l 2
 604 445 592 574 587 638 c 1
 407 82 l 1
 361 82 l 1
 175 638 l 1
 172 574 159 445 149 339 c 2
 117 0 l 1
 72 0 l 1
 139 684 l 1
 206 684 l 1
 385 139 l 1
 559 684 l 1
 627 684 l 1
EndSplineSet
EndChar

StartChar: uni041D
Encoding: 1053 1053 453
Width: 667
Flags: W
LayerCount: 2
Fore
SplineSet
504 0 m 1
 504 339 l 1
 162 339 l 1
 162 0 l 1
 115 0 l 1
 115 684 l 1
 162 684 l 1
 162 381 l 1
 504 381 l 1
 504 684 l 1
 552 684 l 1
 552 0 l 1
 504 0 l 1
EndSplineSet
EndChar

StartChar: uni041E
Encoding: 1054 1054 454
Width: 691
Flags: W
LayerCount: 2
Fore
SplineSet
345 694 m 0
 509 694 621 572 621 341 c 0
 621 117 513 -11 345 -11 c 0
 182 -11 70 113 70 340 c 0
 70 566 183 694 345 694 c 0
345 653 m 0
 211 653 120 551 120 340 c 0
 120 133 212 31 345 31 c 0
 485 31 571 133 571 341 c 0
 571 552 482 653 345 653 c 0
EndSplineSet
EndChar

StartChar: uni041F
Encoding: 1055 1055 455
Width: 662
Flags: W
LayerCount: 2
Fore
SplineSet
547 684 m 1
 547 0 l 1
 499 0 l 1
 499 641 l 1
 162 641 l 1
 162 0 l 1
 115 0 l 1
 115 684 l 1
 547 684 l 1
EndSplineSet
EndChar

StartChar: uni0420
Encoding: 1056 1056 456
Width: 566
Flags: W
LayerCount: 2
Fore
SplineSet
268 684 m 2
 425 684 517 622 517 481 c 0
 517 329 412 272 265 272 c 2
 162 272 l 1
 162 0 l 1
 115 0 l 1
 115 684 l 1
 268 684 l 2
266 312 m 2
 384 312 467 351 467 480 c 0
 467 601 395 643 268 643 c 2
 162 643 l 1
 162 312 l 1
 266 312 l 2
EndSplineSet
EndChar

StartChar: uni0421
Encoding: 1057 1057 457
Width: 547
Flags: W
LayerCount: 2
Fore
SplineSet
344 694 m 0
 422 694 468 671 515 633 c 1
 489 601 l 1
 443 637 405 653 347 653 c 0
 222 653 120 564 120 342 c 0
 120 131 219 32 344 32 c 0
 416 32 456 57 497 90 c 1
 523 58 l 1
 480 19 424 -11 342 -11 c 0
 186 -11 70 112 70 342 c 0
 70 577 193 694 344 694 c 0
EndSplineSet
EndChar

StartChar: uni0422
Encoding: 1058 1058 458
Width: 487
Flags: W
LayerCount: 2
Fore
SplineSet
477 684 m 1
 471 641 l 1
 267 641 l 1
 267 0 l 1
 220 0 l 1
 220 641 l 1
 15 641 l 1
 15 684 l 1
 477 684 l 1
EndSplineSet
EndChar

StartChar: uni0423
Encoding: 1059 1059 459
Width: 511
Flags: W
LayerCount: 2
Fore
SplineSet
505 684 m 1
 302 191 l 2
 244 50 216 17 107 -11 c 1
 97 26 l 1
 183 49 208 71 257 193 c 1
 243 193 l 1
 11 684 l 1
 62 684 l 1
 273 226 l 1
 456 684 l 1
 505 684 l 1
EndSplineSet
EndChar

StartChar: uni0424
Encoding: 1060 1060 460
Width: 794
Flags: W
LayerCount: 2
Fore
SplineSet
747 349 m 0
 747 151 632 54 420 46 c 1
 420 -23 l 1
 374 -23 l 1
 374 46 l 1
 156 53 47 158 47 347 c 0
 47 546 162 643 374 650 c 1
 374 717 l 1
 420 717 l 1
 420 650 l 1
 638 644 747 538 747 349 c 0
419 85 m 1
 602 95 698 168 698 349 c 0
 698 522 603 606 419 611 c 1
 419 85 l 1
96 347 m 0
 96 175 191 91 375 86 c 1
 375 611 l 1
 192 602 96 529 96 347 c 0
EndSplineSet
EndChar

StartChar: uni0425
Encoding: 1061 1061 461
Width: 505
Flags: W
LayerCount: 2
Fore
SplineSet
278 371 m 1
 493 0 l 1
 439 0 l 1
 249 338 l 1
 64 0 l 1
 12 0 l 1
 222 368 l 1
 33 684 l 1
 87 684 l 1
 250 400 l 1
 411 684 l 1
 463 684 l 1
 278 371 l 1
EndSplineSet
EndChar

StartChar: uni0426
Encoding: 1062 1062 462
Width: 657
Flags: W
LayerCount: 2
Fore
SplineSet
542 42 m 1
 609 42 l 1
 609 -143 l 1
 574 -143 l 1
 562 0 l 1
 115 0 l 1
 115 684 l 1
 162 684 l 1
 162 42 l 1
 494 42 l 1
 494 684 l 1
 542 684 l 1
 542 42 l 1
EndSplineSet
EndChar

StartChar: uni0427
Encoding: 1063 1063 463
Width: 588
Flags: W
LayerCount: 2
Fore
SplineSet
425 684 m 1
 473 684 l 1
 473 0 l 1
 425 0 l 1
 425 301 l 1
 375 255 319 225 240 225 c 0
 125 225 47 297 47 417 c 2
 47 684 l 1
 95 684 l 1
 95 421 l 2
 95 321 153 268 249 268 c 0
 323 268 386 301 425 348 c 1
 425 684 l 1
EndSplineSet
EndChar

StartChar: uni0428
Encoding: 1064 1064 464
Width: 906
Flags: W
LayerCount: 2
Fore
SplineSet
792 684 m 1
 792 0 l 1
 115 0 l 1
 115 684 l 1
 162 684 l 1
 162 42 l 1
 431 42 l 1
 431 684 l 1
 476 684 l 1
 476 42 l 1
 745 42 l 1
 745 684 l 1
 792 684 l 1
EndSplineSet
EndChar

StartChar: uni0429
Encoding: 1065 1065 465
Width: 906
Flags: W
LayerCount: 2
Fore
SplineSet
792 42 m 1
 859 42 l 1
 859 -143 l 1
 823 -143 l 1
 811 0 l 1
 115 0 l 1
 115 684 l 1
 162 684 l 1
 162 42 l 1
 431 42 l 1
 431 684 l 1
 476 684 l 1
 476 42 l 1
 745 42 l 1
 745 684 l 1
 792 684 l 1
 792 42 l 1
EndSplineSet
EndChar

StartChar: uni042A
Encoding: 1066 1066 466
Width: 662
Flags: W
LayerCount: 2
Fore
SplineSet
384 418 m 2
 532 418 622 353 622 216 c 0
 622 63 523 0 383 0 c 2
 220 0 l 1
 220 641 l 1
 15 641 l 1
 15 684 l 1
 267 684 l 1
 267 418 l 1
 384 418 l 2
391 41 m 2
 499 41 572 88 572 216 c 0
 572 330 503 378 386 378 c 2
 267 378 l 1
 267 41 l 1
 391 41 l 2
EndSplineSet
EndChar

StartChar: uni042B
Encoding: 1067 1067 467
Width: 789
Flags: W
LayerCount: 2
Fore
SplineSet
268 418 m 2
 417 418 507 353 507 216 c 0
 507 63 408 0 268 0 c 2
 115 0 l 1
 115 684 l 1
 162 684 l 1
 162 418 l 1
 268 418 l 2
627 684 m 1
 674 684 l 1
 674 0 l 1
 627 0 l 1
 627 684 l 1
276 41 m 2
 384 41 457 88 457 216 c 0
 457 330 388 378 270 378 c 2
 162 378 l 1
 162 41 l 1
 276 41 l 2
EndSplineSet
EndChar

StartChar: uni042C
Encoding: 1068 1068 468
Width: 557
Flags: W
LayerCount: 2
Fore
SplineSet
279 418 m 2
 427 418 517 353 517 216 c 0
 517 63 418 0 278 0 c 2
 115 0 l 1
 115 684 l 1
 162 684 l 1
 162 418 l 1
 279 418 l 2
286 41 m 2
 394 41 467 88 467 216 c 0
 467 330 398 378 281 378 c 2
 162 378 l 1
 162 41 l 1
 286 41 l 2
EndSplineSet
EndChar

StartChar: uni042D
Encoding: 1069 1069 469
Width: 523
Flags: W
LayerCount: 2
Fore
SplineSet
231 694 m 0
 356 694 453 607 453 342 c 0
 453 114 368 -11 209 -11 c 0
 122 -11 67 23 24 61 c 1
 50 93 l 1
 94 58 136 32 207 32 c 0
 334 32 403 133 404 335 c 1
 119 335 l 1
 119 376 l 1
 403 376 l 1
 396 587 324 653 230 653 c 0
 166 653 123 637 66 596 c 1
 40 628 l 1
 95 671 154 694 231 694 c 0
EndSplineSet
EndChar

StartChar: uni042E
Encoding: 1070 1070 470
Width: 871
Flags: W
LayerCount: 2
Fore
SplineSet
536 694 m 0
 697 694 801 572 801 341 c 0
 801 117 700 -11 536 -11 c 0
 378 -11 274 109 270 335 c 1
 162 335 l 1
 162 0 l 1
 115 0 l 1
 115 684 l 1
 162 684 l 1
 162 377 l 1
 271 377 l 1
 282 577 385 694 536 694 c 0
536 31 m 0
 671 31 751 133 751 341 c 0
 751 552 668 653 536 653 c 0
 406 653 320 549 320 343 c 0
 320 131 407 31 536 31 c 0
EndSplineSet
EndChar

StartChar: uni042F
Encoding: 1071 1071 471
Width: 590
Flags: W
LayerCount: 2
Fore
SplineSet
313 684 m 2
 476 684 l 1
 476 0 l 1
 428 0 l 1
 428 290 l 1
 249 290 l 1
 100 0 l 1
 45 0 l 1
 200 298 l 1
 113 323 58 378 58 482 c 0
 58 609 137 684 313 684 c 2
273 330 m 2
 428 330 l 1
 428 643 l 1
 315 643 l 2
 171 643 108 590 108 482 c 0
 108 382 173 330 273 330 c 2
EndSplineSet
EndChar

StartChar: uni0430
Encoding: 1072 1072 472
Width: 529
Flags: W
LayerCount: 2
Fore
SplineSet
420 113 m 2
 420 51 435 33 464 22 c 1
 453 -11 l 1
 410 0 385 24 380 80 c 1
 342 20 287 -11 215 -11 c 0
 115 -11 55 52 55 145 c 0
 55 253 138 312 267 312 c 2
 374 312 l 1
 374 367 l 2
 374 452 340 492 249 492 c 0
 205 492 158 481 107 461 c 1
 94 498 l 1
 150 520 200 532 253 532 c 0
 369 532 420 475 420 370 c 2
 420 113 l 2
221 28 m 0
 293 28 341 64 374 127 c 1
 374 276 l 1
 274 276 l 2
 167 276 104 234 104 146 c 0
 104 71 148 28 221 28 c 0
EndSplineSet
EndChar

StartChar: uni0431
Encoding: 1073 1073 473
Width: 572
Flags: W
LayerCount: 2
Fore
SplineSet
317 491 m 0
 436 491 507 401 507 252 c 0
 507 75 424 -11 297 -11 c 0
 167 -11 80 83 80 286 c 0
 80 502 111 609 268 665 c 0
 342 692 384 710 428 739 c 1
 449 705 l 1
 414 680 364 657 288 630 c 0
 192 594 140 550 126 372 c 1
 160 433 223 491 317 491 c 0
297 29 m 0
 389 29 458 84 458 248 c 0
 458 386 404 451 312 451 c 0
 228 451 164 398 128 320 c 1
 128 275 l 2
 127 116 188 29 297 29 c 0
EndSplineSet
EndChar

StartChar: uni0432
Encoding: 1074 1074 474
Width: 544
Flags: W
LayerCount: 2
Fore
SplineSet
349 283 m 1
 428 276 477 235 477 155 c 0
 477 53 396 0 269 0 c 2
 109 0 l 1
 109 516 l 1
 156 525 211 532 263 532 c 0
 385 532 448 477 448 395 c 0
 448 334 410 294 349 283 c 1
264 494 m 0
 222 494 189 490 155 485 c 1
 155 298 l 1
 288 298 l 2
 358 298 402 331 402 394 c 0
 402 454 362 494 264 494 c 0
269 39 m 2
 361 39 429 72 429 155 c 0
 429 227 384 261 294 261 c 2
 155 261 l 1
 155 39 l 1
 269 39 l 2
EndSplineSet
EndChar

StartChar: uni0433
Encoding: 1075 1075 475
Width: 420
Flags: W
LayerCount: 2
Fore
SplineSet
155 0 m 1
 109 0 l 1
 109 522 l 1
 411 522 l 1
 405 481 l 1
 155 481 l 1
 155 0 l 1
EndSplineSet
EndChar

StartChar: uni0434
Encoding: 1076 1076 476
Width: 549
Flags: W
LayerCount: 2
Fore
SplineSet
439 40 m 1
 487 40 l 1
 487 -143 l 1
 451 -143 l 1
 439 0 l 1
 55 0 l 1
 43 -143 l 1
 7 -143 l 1
 7 40 l 1
 39 40 l 1
 86 73 114 102 129 318 c 2
 143 522 l 1
 439 522 l 1
 439 40 l 1
392 40 m 1
 392 482 l 1
 187 482 l 1
 176 324 l 2
 162 116 135 72 85 40 c 1
 392 40 l 1
EndSplineSet
EndChar

StartChar: uni0435
Encoding: 1077 1077 477
Width: 531
Flags: W
LayerCount: 2
Fore
SplineSet
471 282 m 0
 471 266 470 251 469 241 c 1
 115 241 l 1
 122 93 192 30 286 30 c 0
 345 30 383 48 428 83 c 1
 451 53 l 1
 403 13 353 -11 284 -11 c 0
 150 -11 67 89 67 257 c 0
 67 425 147 532 272 532 c 0
 405 532 471 433 471 282 c 0
426 278 m 1
 426 297 l 2
 426 414 378 493 274 493 c 0
 189 493 120 428 115 278 c 1
 426 278 l 1
EndSplineSet
EndChar

StartChar: uni0436
Encoding: 1078 1078 478
Width: 702
Flags: W
LayerCount: 2
Fore
SplineSet
639 522 m 1
 505 279 l 1
 662 0 l 1
 613 0 l 1
 468 258 l 1
 373 258 l 1
 373 0 l 1
 330 0 l 1
 330 258 l 1
 234 258 l 1
 89 0 l 1
 40 0 l 1
 198 279 l 1
 63 522 l 1
 112 522 l 1
 235 295 l 1
 330 295 l 1
 330 522 l 1
 373 522 l 1
 373 295 l 1
 468 295 l 1
 592 522 l 1
 639 522 l 1
EndSplineSet
EndChar

StartChar: uni0437
Encoding: 1079 1079 479
Width: 470
Flags: W
LayerCount: 2
Fore
SplineSet
219 532 m 0
 312 532 383 482 383 396 c 0
 383 328 342 292 273 278 c 1
 357 270 410 234 410 150 c 0
 410 43 329 -11 218 -11 c 0
 130 -11 71 19 26 58 c 1
 52 87 l 1
 95 52 141 29 216 29 c 0
 299 29 361 62 361 150 c 0
 361 229 299 255 202 255 c 2
 143 255 l 1
 146 293 l 1
 195 293 l 2
 285 293 336 330 336 395 c 0
 336 457 290 493 216 493 c 0
 150 493 113 477 66 448 c 1
 43 478 l 1
 94 513 146 532 219 532 c 0
EndSplineSet
EndChar

StartChar: uni0438
Encoding: 1080 1080 480
Width: 588
Flags: W
LayerCount: 2
Fore
SplineSet
479 522 m 1
 479 0 l 1
 433 0 l 1
 433 354 l 2
 433 403 436 441 438 468 c 1
 163 0 l 1
 109 0 l 1
 109 522 l 1
 155 522 l 1
 155 190 l 2
 155 142 153 95 151 55 c 1
 425 522 l 1
 479 522 l 1
EndSplineSet
EndChar

StartChar: uni0439
Encoding: 1081 1081 481
Width: 588
Flags: W
LayerCount: 2
Fore
SplineSet
294 656 m 0
 228 656 180 689 171 741 c 1
 203 748 l 1
 216 712 247 696 294 696 c 0
 341 696 372 712 385 748 c 1
 417 741 l 1
 408 689 359 656 294 656 c 0
479 522 m 1
 479 0 l 1
 433 0 l 1
 433 354 l 2
 433 403 436 441 438 468 c 1
 163 0 l 1
 109 0 l 1
 109 522 l 1
 155 522 l 1
 155 190 l 2
 155 142 153 95 151 55 c 1
 425 522 l 1
 479 522 l 1
EndSplineSet
EndChar

StartChar: uni043A
Encoding: 1082 1082 482
Width: 499
Flags: W
LayerCount: 2
Fore
SplineSet
442 522 m 1
 276 280 l 1
 470 0 l 1
 416 0 l 1
 238 259 l 1
 155 259 l 1
 155 0 l 1
 109 0 l 1
 109 522 l 1
 155 522 l 1
 155 296 l 1
 238 296 l 1
 391 522 l 1
 442 522 l 1
EndSplineSet
EndChar

StartChar: uni043B
Encoding: 1083 1083 483
Width: 565
Flags: W
LayerCount: 2
Fore
SplineSet
151 522 m 1
 456 522 l 1
 456 0 l 1
 410 0 l 1
 410 482 l 1
 193 482 l 1
 178 282 l 2
 161 70 153 23 61 -8 c 1
 48 30 l 1
 112 52 116 88 132 286 c 2
 151 522 l 1
EndSplineSet
EndChar

StartChar: uni043C
Encoding: 1084 1084 484
Width: 655
Flags: W
LayerCount: 2
Fore
SplineSet
538 522 m 1
 584 0 l 1
 538 0 l 1
 511 325 l 2
 506 381 504 426 502 474 c 1
 347 67 l 1
 303 67 l 1
 150 474 l 1
 149 430 147 381 142 325 c 2
 116 0 l 1
 71 0 l 1
 117 522 l 1
 175 522 l 1
 325 114 l 1
 479 522 l 1
 538 522 l 1
EndSplineSet
EndChar

StartChar: uni043D
Encoding: 1085 1085 485
Width: 585
Flags: W
LayerCount: 2
Fore
SplineSet
430 0 m 1
 430 251 l 1
 155 251 l 1
 155 0 l 1
 109 0 l 1
 109 522 l 1
 155 522 l 1
 155 291 l 1
 430 291 l 1
 430 522 l 1
 476 522 l 1
 476 0 l 1
 430 0 l 1
EndSplineSet
EndChar

StartChar: uni043E
Encoding: 1086 1086 486
Width: 567
Flags: W
LayerCount: 2
Fore
SplineSet
284 532 m 0
 419 532 500 435 500 263 c 0
 500 92 417 -11 283 -11 c 0
 148 -11 67 92 67 260 c 0
 67 430 151 532 284 532 c 0
284 492 m 0
 181 492 115 414 115 260 c 0
 115 110 178 29 283 29 c 0
 387 29 452 109 452 263 c 0
 452 414 390 492 284 492 c 0
EndSplineSet
EndChar

StartChar: uni043F
Encoding: 1087 1087 487
Width: 582
Flags: W
LayerCount: 2
Fore
SplineSet
427 0 m 1
 427 482 l 1
 155 482 l 1
 155 0 l 1
 109 0 l 1
 109 522 l 1
 473 522 l 1
 473 0 l 1
 427 0 l 1
EndSplineSet
EndChar

StartChar: uni0440
Encoding: 1088 1088 488
Width: 570
Flags: W
LayerCount: 2
Fore
SplineSet
315 532 m 0
 441 532 504 434 504 264 c 0
 504 97 436 -11 308 -11 c 0
 239 -11 187 24 155 66 c 1
 155 -195 l 1
 109 -203 l 1
 109 522 l 1
 149 522 l 1
 152 443 l 1
 190 496 245 532 315 532 c 0
301 30 m 0
 401 30 455 110 455 264 c 0
 455 417 405 493 310 493 c 0
 239 493 194 453 155 399 c 1
 155 114 l 1
 190 63 237 30 301 30 c 0
EndSplineSet
EndChar

StartChar: uni0441
Encoding: 1089 1089 489
Width: 466
Flags: W
LayerCount: 2
Fore
SplineSet
285 532 m 0
 342 532 385 517 428 481 c 1
 404 450 l 1
 371 477 336 492 287 492 c 0
 187 492 116 414 116 258 c 0
 116 104 186 30 286 30 c 0
 336 30 373 47 408 76 c 1
 432 45 l 1
 393 10 344 -11 286 -11 c 0
 154 -11 67 88 67 258 c 0
 67 426 153 532 285 532 c 0
EndSplineSet
EndChar

StartChar: uni0442
Encoding: 1090 1090 490
Width: 427
Flags: W
LayerCount: 2
Fore
SplineSet
419 522 m 1
 413 481 l 1
 237 481 l 1
 237 0 l 1
 191 0 l 1
 191 481 l 1
 9 481 l 1
 9 522 l 1
 419 522 l 1
EndSplineSet
EndChar

StartChar: uni0443
Encoding: 1091 1091 491
Width: 459
Flags: W
LayerCount: 2
Fore
SplineSet
442 522 m 1
 261 -2 l 2
 222 -116 180 -173 59 -201 c 1
 53 -165 l 1
 158 -137 182 -95 217 0 c 1
 201 0 l 1
 17 522 l 1
 67 522 l 1
 232 35 l 1
 392 522 l 1
 442 522 l 1
EndSplineSet
EndChar

StartChar: uni0444
Encoding: 1092 1092 492
Width: 782
Flags: W
LayerCount: 2
Fore
SplineSet
551 532 m 0
 673 532 715 427 715 264 c 0
 715 99 659 -11 547 -11 c 0
 490 -11 450 17 414 63 c 1
 414 -195 l 1
 369 -203 l 1
 369 64 l 1
 334 15 292 -11 234 -11 c 0
 126 -11 67 99 67 264 c 0
 67 429 122 532 236 532 c 0
 292 532 335 507 369 456 c 1
 369 741 l 1
 414 735 l 1
 414 456 l 1
 450 507 498 532 551 532 c 0
241 29 m 0
 295 29 335 59 369 113 c 1
 369 405 l 1
 334 463 294 493 242 493 c 0
 163 493 115 415 115 264 c 0
 115 113 159 29 241 29 c 0
544 29 m 0
 625 29 666 113 666 264 c 0
 666 415 629 493 547 493 c 0
 492 493 448 462 414 407 c 1
 414 111 l 1
 452 59 492 29 544 29 c 0
EndSplineSet
EndChar

StartChar: uni0445
Encoding: 1093 1093 493
Width: 449
Flags: W
LayerCount: 2
Fore
SplineSet
252 280 m 1
 437 0 l 1
 382 0 l 1
 223 250 l 1
 65 0 l 1
 12 0 l 1
 196 278 l 1
 36 522 l 1
 90 522 l 1
 225 307 l 1
 360 522 l 1
 413 522 l 1
 252 280 l 1
EndSplineSet
EndChar

StartChar: uni0446
Encoding: 1094 1094 494
Width: 577
Flags: W
LayerCount: 2
Fore
SplineSet
466 40 m 1
 532 40 l 1
 532 -143 l 1
 496 -143 l 1
 484 0 l 1
 109 0 l 1
 109 522 l 1
 155 522 l 1
 155 40 l 1
 420 40 l 1
 420 522 l 1
 466 522 l 1
 466 40 l 1
EndSplineSet
EndChar

StartChar: uni0447
Encoding: 1095 1095 495
Width: 536
Flags: W
LayerCount: 2
Fore
SplineSet
381 522 m 1
 427 522 l 1
 427 0 l 1
 381 0 l 1
 381 249 l 1
 344 209 285 178 213 178 c 0
 127 178 62 224 62 319 c 2
 62 522 l 1
 108 522 l 1
 108 325 l 2
 108 251 149 217 223 217 c 0
 288 217 348 250 381 294 c 1
 381 522 l 1
EndSplineSet
EndChar

StartChar: uni0448
Encoding: 1096 1096 496
Width: 794
Flags: W
LayerCount: 2
Fore
SplineSet
685 522 m 1
 685 0 l 1
 109 0 l 1
 109 522 l 1
 155 522 l 1
 155 40 l 1
 375 40 l 1
 375 522 l 1
 419 522 l 1
 419 40 l 1
 640 40 l 1
 640 522 l 1
 685 522 l 1
EndSplineSet
EndChar

StartChar: uni0449
Encoding: 1097 1097 497
Width: 796
Flags: W
LayerCount: 2
Fore
SplineSet
685 40 m 1
 751 40 l 1
 751 -143 l 1
 716 -143 l 1
 704 0 l 1
 109 0 l 1
 109 522 l 1
 155 522 l 1
 155 40 l 1
 375 40 l 1
 375 522 l 1
 419 522 l 1
 419 40 l 1
 640 40 l 1
 640 522 l 1
 685 522 l 1
 685 40 l 1
EndSplineSet
EndChar

StartChar: uni044A
Encoding: 1098 1098 498
Width: 578
Flags: W
LayerCount: 2
Fore
SplineSet
337 343 m 2
 481 343 539 279 539 176 c 0
 539 54 455 0 345 0 c 2
 190 0 l 1
 190 483 l 1
 9 483 l 1
 9 522 l 1
 237 522 l 1
 236 521 l 1
 236 343 l 1
 337 343 l 2
341 39 m 2
 433 39 491 76 491 176 c 0
 491 257 451 304 337 304 c 2
 236 304 l 1
 236 39 l 1
 341 39 l 2
EndSplineSet
EndChar

StartChar: uni044B
Encoding: 1099 1099 499
Width: 706
Flags: W
LayerCount: 2
Fore
SplineSet
245 343 m 2
 390 343 448 279 448 176 c 0
 448 54 364 0 254 0 c 2
 109 0 l 1
 109 522 l 1
 155 522 l 1
 155 343 l 1
 245 343 l 2
551 522 m 1
 597 522 l 1
 597 0 l 1
 551 0 l 1
 551 522 l 1
250 39 m 2
 342 39 400 76 400 176 c 0
 400 257 360 304 246 304 c 2
 155 304 l 1
 155 39 l 1
 250 39 l 2
EndSplineSet
EndChar

StartChar: uni044C
Encoding: 1100 1100 500
Width: 497
Flags: W
LayerCount: 2
Fore
SplineSet
255 343 m 2
 400 343 458 279 458 176 c 0
 458 54 374 0 264 0 c 2
 109 0 l 1
 109 522 l 1
 155 522 l 1
 155 343 l 1
 255 343 l 2
260 39 m 2
 352 39 410 76 410 176 c 0
 410 257 370 304 256 304 c 2
 155 304 l 1
 155 39 l 1
 260 39 l 2
EndSplineSet
EndChar

StartChar: uni044D
Encoding: 1101 1101 501
Width: 472
Flags: W
LayerCount: 2
Fore
SplineSet
217 532 m 0
 331 532 405 456 405 265 c 0
 405 93 334 -11 204 -11 c 0
 130 -11 83 14 41 47 c 1
 65 78 l 1
 101 50 139 30 200 30 c 0
 300 30 355 104 358 251 c 1
 117 251 l 1
 117 289 l 1
 358 289 l 1
 351 440 296 493 217 493 c 0
 161 493 123 476 82 448 c 1
 59 478 l 1
 104 512 153 532 217 532 c 0
EndSplineSet
EndChar

StartChar: uni044E
Encoding: 1102 1102 502
Width: 755
Flags: W
LayerCount: 2
Fore
SplineSet
482 532 m 0
 610 532 689 431 689 263 c 0
 689 97 610 -11 481 -11 c 0
 355 -11 280 91 276 251 c 1
 155 251 l 1
 155 0 l 1
 109 0 l 1
 109 522 l 1
 155 522 l 1
 155 290 l 1
 277 290 l 1
 286 440 364 532 482 532 c 0
481 29 m 0
 583 29 640 112 640 263 c 0
 640 410 582 492 482 492 c 0
 384 492 324 414 324 260 c 0
 324 113 382 29 481 29 c 0
EndSplineSet
EndChar

StartChar: uni044F
Encoding: 1103 1103 503
Width: 537
Flags: W
LayerCount: 2
Fore
SplineSet
266 522 m 2
 428 522 l 1
 428 0 l 1
 382 0 l 1
 382 221 l 1
 233 221 l 1
 108 0 l 1
 57 0 l 1
 188 230 l 1
 114 250 78 300 78 370 c 0
 78 470 148 522 266 522 c 2
255 259 m 2
 382 259 l 1
 382 483 l 1
 265 483 l 2
 180 484 126 450 126 371 c 0
 126 293 176 259 255 259 c 2
EndSplineSet
EndChar

StartChar: uni0450
Encoding: 1104 1104 504
Width: 531
Flags: W
LayerCount: 2
Fore
SplineSet
196 776 m 1
 380 676 l 1
 365 648 l 1
 175 732 l 1
 196 776 l 1
471 282 m 0
 471 266 470 251 469 241 c 1
 115 241 l 1
 122 93 192 30 286 30 c 0
 345 30 383 48 428 83 c 1
 451 53 l 1
 403 13 353 -11 284 -11 c 0
 150 -11 67 89 67 257 c 0
 67 425 147 532 272 532 c 0
 405 532 471 433 471 282 c 0
426 278 m 1
 426 297 l 2
 426 414 378 493 274 493 c 0
 189 493 120 428 115 278 c 1
 426 278 l 1
EndSplineSet
EndChar

StartChar: uni0451
Encoding: 1105 1105 505
Width: 531
Flags: W
LayerCount: 2
Fore
SplineSet
184 732 m 0
 204 732 218 718 218 699 c 0
 218 680 204 666 184 666 c 0
 164 666 150 680 150 699 c 0
 150 718 164 732 184 732 c 0
366 732 m 0
 385 732 399 718 399 699 c 0
 399 680 385 666 366 666 c 0
 346 666 332 680 332 699 c 0
 332 718 346 732 366 732 c 0
471 282 m 0
 471 266 470 251 469 241 c 1
 115 241 l 1
 122 93 192 30 286 30 c 0
 345 30 383 48 428 83 c 1
 451 53 l 1
 403 13 353 -11 284 -11 c 0
 150 -11 67 89 67 257 c 0
 67 425 147 532 272 532 c 0
 405 532 471 433 471 282 c 0
426 278 m 1
 426 297 l 2
 426 414 378 493 274 493 c 0
 189 493 120 428 115 278 c 1
 426 278 l 1
EndSplineSet
EndChar

StartChar: uni0452
Encoding: 1106 1106 506
Width: 586
Flags: W
LayerCount: 2
Fore
SplineSet
339 532 m 0
 433 532 483 472 483 372 c 2
 483 14 l 2
 483 -122 440 -158 352 -200 c 1
 338 -167 l 1
 407 -132 437 -103 437 13 c 2
 437 366 l 2
 437 454 400 494 333 494 c 0
 257 494 206 447 160 381 c 1
 160 0 l 1
 114 0 l 1
 114 620 l 1
 39 620 l 1
 39 658 l 1
 114 658 l 1
 114 735 l 1
 160 741 l 1
 160 658 l 1
 334 658 l 1
 334 620 l 1
 160 620 l 1
 160 429 l 1
 204 491 262 532 339 532 c 0
EndSplineSet
EndChar

StartChar: uni0453
Encoding: 1107 1107 507
Width: 420
Flags: W
LayerCount: 2
Fore
SplineSet
334 776 m 1
 355 732 l 1
 165 648 l 1
 150 676 l 1
 334 776 l 1
155 0 m 1
 109 0 l 1
 109 522 l 1
 411 522 l 1
 405 481 l 1
 155 481 l 1
 155 0 l 1
EndSplineSet
EndChar

StartChar: uni0454
Encoding: 1108 1108 508
Width: 475
Flags: W
LayerCount: 2
Fore
SplineSet
411 75 m 1
 434 42 l 1
 393 10 344 -11 285 -11 c 0
 154 -11 67 88 67 261 c 0
 67 429 156 532 287 532 c 0
 342 532 386 517 433 481 c 1
 408 450 l 1
 369 479 334 493 288 493 c 0
 193 493 123 423 115 288 c 1
 366 288 l 1
 366 250 l 1
 114 250 l 1
 117 101 189 30 285 30 c 0
 335 30 370 45 411 75 c 1
EndSplineSet
EndChar

StartChar: uni0455
Encoding: 1109 1109 509
Width: 455
Flags: W
LayerCount: 2
Fore
SplineSet
229 532 m 0
 293 532 343 513 392 475 c 1
 368 444 l 1
 323 477 285 493 231 493 c 0
 158 493 108 457 108 398 c 0
 108 344 143 320 239 294 c 0
 355 263 405 227 405 138 c 0
 405 46 327 -11 223 -11 c 0
 139 -11 85 18 40 56 c 1
 66 86 l 1
 112 50 155 29 223 29 c 0
 301 29 357 68 357 137 c 0
 357 204 327 228 216 258 c 0
 105 287 60 326 60 398 c 0
 60 477 133 532 229 532 c 0
EndSplineSet
EndChar

StartChar: uni0456
Encoding: 1110 1110 510
Width: 264
Flags: W
LayerCount: 2
Fore
SplineSet
132 744 m 0
 154 744 168 728 168 709 c 0
 168 690 154 674 132 674 c 0
 110 674 96 690 96 709 c 0
 96 728 110 744 132 744 c 0
155 522 m 1
 155 0 l 1
 109 0 l 1
 109 522 l 1
 155 522 l 1
EndSplineSet
EndChar

StartChar: uni0457
Encoding: 1111 1111 511
Width: 264
Flags: W
LayerCount: 2
Fore
SplineSet
41 732 m 0
 61 732 75 718 75 699 c 0
 75 680 61 666 41 666 c 0
 21 666 7 680 7 699 c 0
 7 718 21 732 41 732 c 0
223 732 m 0
 242 732 256 718 256 699 c 0
 256 680 242 666 223 666 c 0
 203 666 189 680 189 699 c 0
 189 718 203 732 223 732 c 0
155 522 m 1
 155 0 l 1
 109 0 l 1
 109 522 l 1
 155 522 l 1
EndSplineSet
EndChar

StartChar: uni0458
Encoding: 1112 1112 512
Width: 265
Flags: W
LayerCount: 2
Fore
SplineSet
133 744 m 0
 155 744 169 728 169 709 c 0
 169 690 155 674 133 674 c 0
 111 674 97 690 97 709 c 0
 97 728 111 744 133 744 c 0
156 522 m 1
 156 14 l 2
 156 -122 114 -158 25 -200 c 1
 12 -167 l 1
 81 -132 110 -103 110 13 c 2
 110 522 l 1
 156 522 l 1
EndSplineSet
EndChar

